<?xml version="1.0" encoding="UTF-8" standalone="no"?> <!-- Created with Vectornator for iOS (http://vectornator.io/) --><!DOCTYPE svg PUBLIC "-//W3C//DTD SVG 1.1//EN" "http://www.w3.org/Graphics/SVG/1.1/DTD/svg11.dtd">
<svg height="100%" style="fill-rule:nonzero;clip-rule:evenodd;stroke-linecap:round;stroke-linejoin:round;" xmlns:xlink="http://www.w3.org/1999/xlink" xmlns="http://www.w3.org/2000/svg" xml:space="preserve" width="100%" xmlns:vectornator="http://vectornator.io" version="1.1" viewBox="0 0 398 642">
<metadata>
<vectornator:setting key="DimensionsVisible" value="0"/>
<vectornator:setting key="PencilOnly" value="1"/>
<vectornator:setting key="SnapToPoints" value="1"/>
<vectornator:setting key="OutlineMode" value="0"/>
<vectornator:setting key="RulersVisible" value="1"/>
<vectornator:setting key="CMYKEnabledKey" value="0"/>
<vectornator:setting key="GuidesVisible" value="1"/>
<vectornator:setting key="SnapToEdges" value="1"/>
<vectornator:setting key="DisplayWhiteBackground" value="0"/>
<vectornator:setting key="doHistoryDisabled" value="0"/>
<vectornator:setting key="TimeLapseWatermarkDisabled" value="0"/>
<vectornator:setting key="SnapToGuides" value="1"/>
<vectornator:setting key="Units" value="Points"/>
<vectornator:setting key="IsolateActiveLayer" value="0"/>
<vectornator:setting key="SnapToGrid" value="0"/>
<vectornator:setting key="DynamicGuides" value="1"/>
</metadata>
<defs/>
<g id="Main Machine" vectornator:layerName="Main Machine">
<path d="M33.8973+596.5C32.4208+596.5+31.338+596.5+31.338+596.6L31.338+611.7L31.6333+628.8L44.5279+628.8L44.7247+611.8L355.375+611.8L355.572+628.8L368.467+628.8C368.467+628.8+368.762+611.8+368.762+611.7L368.762+596.6C368.762+596.6+367.581+596.5+366.104+596.5L33.8973+596.5Z" opacity="1" fill="#2a2a2a"/>
<path d="M329.8+231.5L375.8+231.5C378.2+231.5+380.1+233.4+380.1+235.8L380.1+349.6C380.1+352+378.2+353.9+375.8+353.9L329.8+353.9C327.4+353.9+325.5+352+325.5+349.6L325.5+235.7C325.5+233.4+327.4+231.5+329.8+231.5Z" opacity="0" fill="#b3b3b3"/>
<path d="M38+488.6L298.4+488.6L298.4+494.7L38+494.7L38+488.6Z" opacity="0" fill="#b6b6b6"/>
<path d="M329.4+150.6C329.4+137.3+340.2+126.6+353.5+126.6C366.8+126.6+377.6+137.3+377.6+150.6C377.6+163.9+366.8+174.6+353.5+174.6C340.2+174.6+329.4+163.8+329.4+150.6Z" opacity="0" fill="#2a2a2a"/>
<path d="M353.6+130.3L353.2+157.7L365.6+150.5L353.6+130.3Z" opacity="0" fill="#b3b3b3"/>
<path d="M340.6+151.8L353.1+159.2L365.6+151.7L352.8+170.6L340.6+151.8Z" opacity="0" fill="#8c8c8c"/>
<path d="M353.1+159.2L365.6+151.7L352.8+170.6L353.1+159.2Z" opacity="0" fill="#b3b3b3"/>
<path d="M353.6+130.3L353.6+130.3L365.5+150.5L353.6+130.3Z" opacity="0" fill="#b3b3b3"/>
<path d="M353.5+130.2L340.6+150.8L353.1+157.7L365.5+150.4L353.1+157.6L353.5+130.2L353.5+130.2Z" opacity="0" fill="#8c8c8c"/>
<path d="M38+358.5L298.4+358.5L298.4+364.6L38+364.6L38+358.5Z" opacity="0" fill="#b6b6b6"/>
<path d="M332+233.6L373.8+233.6C376.1+233.6+377.9+235+377.9+236.8L377.9+280.8C377.9+282.6+376+284+373.8+284L332+284C329.7+284+327.9+282.6+327.9+280.8L327.9+236.8C327.8+235+329.7+233.6+332+233.6Z" opacity="0" fill="#a6dfdd"/>
<path d="M366.5+3L366.5+3L366.5+3.6L366.5+3.6L366.5+3Z" opacity="1" fill="#2a92b3"/>
<path d="M31.5535+231.5L368.547+231.5C370.012+231.5+371.2+232.688+371.2+234.153L371.2+593.847C371.2+595.312+370.012+596.5+368.547+596.5L31.5535+596.5C30.088+596.5+28.9+595.312+28.9+593.847L28.9+234.153C28.9+232.688+30.088+231.5+31.5535+231.5Z" opacity="1" fill="#429ad2"/>
<path d="M117.792+82.384L282.308+82.384C331.402+82.384+371.2+122.182+371.2+171.276L371.2+358.492C371.2+407.586+331.402+447.384+282.308+447.384L117.792+447.384C68.6982+447.384+28.9+407.586+28.9+358.492L28.9+171.276C28.9+122.182+68.6982+82.384+117.792+82.384Z" opacity="1" fill="#429ad2"/>
<path stroke="#fff5d0" stroke-width="2.0869" d="M125.256+95.9089C80.6113+95.9089+44.4069+127.474+44.4069+166.413L44.4069+314.926C44.4069+317.579+44.6104+320.168+44.9376+322.745L355.162+322.745C355.49+320.168+355.693+317.579+355.693+314.926L355.693+166.413C355.693+127.474+319.489+95.9089+274.844+95.9089L125.256+95.9089Z" fill="#fedf80" stroke-linecap="round" opacity="1" stroke-linejoin="round"/>
<g opacity="1">
<path stroke="#606060" fill-rule="evenodd" stroke-width="0.645158" d="M199.929+197.614C199.929+197.614+195.676+211.365+212.47+219.454C232.404+229.488+233.749+230.822+242.379+233.377C251.476+235.038+256.267+231.467+256.742+230.185C257.218+228.903+258.061+225.805+250.705+219.686C243.447+213.663+246.282+215.805+239.868+213.611C234.279+211.227+231.569+209.36+210.694+207.019C208.523+199.929+199.929+197.614+199.929+197.614Z" fill="#000000" stroke-linecap="round" opacity="1" stroke-linejoin="round"/>
<path stroke="#606060" fill-rule="evenodd" stroke-width="0.645158" d="M207.617+215.143C212.344+212.053+211.51+210.195+210.29+217.767C217.261+214.962+213.986+213.706+214.255+220.409C220.535+218.077+217.637+214.059+218.005+222.483C222.867+219.815+222.859+217.225+222.051+224.006C222.248+224.634+225.971+220.883+226.501+220.409C226.716+221.115+226.456+223.912+226.205+225.598C227.559+224.299+229.111+222.569+230.475+221.993C228.869+227.405+226.241+228.765+233.364+223.051C232.404+225.03+232.224+226.674+232.197+227.732C235.265+226.158+238.423+222.191+236.674+225.375C232.754+231.742+237.607+227.147+240.235+225.624C239.966+226.39+239.051+228.283+238.701+229.471C239.607+229.006+241.716+227.293+243.429+226.278C242.918+227.732+241.796+229.531+241.348+230.555C243.142+229.514+244.703+228.016+246.506+226.846C245.089+228.834+244.766+230.865+244.38+231.407C245.744+230.65+249.574+227.242+250.283+226.691C247.968+233.05+249.063+231.863+252.983+226.269C252.983+226.269+251.261+230.847+252.032+230.718C254.508+229.436+255.899+223.937+255.926+228.713C258.375+226.571+256.832+226.898+257.029+226.622C255.002+243.403+206.459+233.455+206.881+218.903" fill="#000000" stroke-linecap="round" opacity="1" stroke-linejoin="round"/>
<path stroke="#606060" fill-rule="evenodd" stroke-width="0.645158" d="M260.25+220.409C257.729+220.151+253.835+222.948+251.153+223.042C252.382+221.425+254.634+218.249+251.126+219.712C247.062+220.719+245.582+223.963+247.448+218.198C247.933+216.15+243.555+220.022+241.509+221.244C241.617+219.084+241.886+217.122+242.092+216.072C241.375+216.545+238.298+219.54+235.831+220.607C235.992+219.6+239.518+214.231+236.638+215.952C230.493+220.332+231.641+221.046+232.763+214.282C230.385+214.962+229.524+218.404+226.869+218.938C227.236+216.967+228.178+214.867+227.631+212.733C227.55+210.788+223.343+217.587+222.096+217.965C222.257+216.95+223.89+211.967+223.89+209.894C223.11+211.176+219.136+214.411+217.996+215.418C217.619+214.145+218.247+211.744+217.808+209.678C216.848+210.668+218.66+208.637+212.416+213.904C212.147+205.737+215.359+207.114+206.46+213.172C209.07+202.467+210.111+202.768+221.172+203.775C229.73+205.642+239.643+204.644+246.686+209.764" fill="#000000" stroke-linecap="round" opacity="1" stroke-linejoin="round"/>
<path stroke="#606060" fill-rule="evenodd" stroke-width="0.645158" d="M199.525+255.837C223.011+263.66+243.052+285.509+243.052+285.509C243.052+285.509+245.062+287.333+246.838+286.016C248.543+284.863+249.26+283.564+249.054+282.591C248.883+278.444+241.976+250.502+223.711+236.381C211.322+229.694+194.681+243.566+199.525+255.837Z" fill="#000000" stroke-linecap="round" opacity="1" stroke-linejoin="round"/>
<path stroke="#606060" fill-rule="evenodd" stroke-width="0.645158" d="M151.889+196.96C158.689+196.96+195.371+180.782+187.593+170.825C179.807+160.869+141.303+141.206+120.759+157.151C133.444+161.42+153.71+178.295+151.889+196.96Z" fill="#000000" stroke-linecap="round" opacity="1" stroke-linejoin="round"/>
<path stroke="#666666" fill-rule="evenodd" stroke-width="0.645158" d="M273.168+218.921C268.368+220.693+266.036+221.864+262.089+220.943C260.214+220.444+235.714+214.05+226.86+211.83C223.989+211.115+220.714+208.078+215.789+208.783C206.827+207.088+211.089+207.037+202.378+199.541C206.352+212.226+208.568+217.914+213.861+221.442C217.889+223.998+237.194+231.209+246.381+231.975C257.801+232.474+258.626+226.02+252.49+221.149C244.936+215.642+269.427+227.337+248.848+236.785C237.069+241.053+226.034+239.281+225.379+239.926C213.618+244.194+194.77+272.265+194.77+272.265C189.11+288.933+184.22+291.825+193.218+322.899C188.544+322.899+164.179+323.665+146.201+322.856C146.201+322.856+106.639+250.442+139.948+201.237C142.119+197.855+150.543+185.997+160.043+180.007C183.225+163.081+213.448+159.174+239.58+168.192C253.889+172.959+260.878+181.195+269.122+187.253C276.272+192.769+282.955+198.345+286.858+203.026C291.397+208.155+286.409+210.823+273.168+218.921Z" fill="#000000" stroke-linecap="round" opacity="1" stroke-linejoin="round"/>
<path stroke="#666666" fill-rule="evenodd" stroke-width="0.645158" d="M273.5+218.921C268.709+220.693+267.418+222.087+262.421+220.943C260.546+220.444+235.579+215.272+226.725+213.043C222.042+211.804+222.042+210.754+216.121+208.775C207.159+207.08+211.564+207.811+202.844+200.307C206.827+212.991+208.568+217.905+213.861+221.425C217.889+223.98+237.526+231.192+246.703+231.958C258.124+232.457+258.949+226.003+252.813+221.132C245.259+215.625+269.759+227.319+249.171+236.768C237.392+241.036+226.357+239.264+225.702+239.909C213.941+244.177+200.942+262.971+196.143+272.807C193.218+278.796+184.22+291.808+193.218+322.881C183.924+322.881+167.149+322.838+167.149+322.838C167.149+322.838+158.644+302.452+160.357+281.369C163.991+257.644+185.225+237.379+189.8+233.816C194.95+228.67+201.768+226.579+199.444+217.759C192.779+192.451+191.245+187.606+213.645+197.614C220.069+199.748+240.603+194.086+252.579+195.712C267.974+197.803+279.349+204.128+279.717+196.022C282.489+198.044+284.014+199.464+287.181+203.018C291.729+208.155+286.732+210.823+273.5+218.921Z" fill="#000000" stroke-linecap="round" opacity="1" stroke-linejoin="round"/>
<path stroke="#606060" fill-rule="evenodd" stroke-width="0.645158" d="M251.44+219.445C253.037+219.23+253.145+218.989+253.952+219.118C253.907+219.807+253.952+223.042+254.105+223.662C254.993+223.154+256.123+221.519+256.59+220.667C256.841+221.631+253.961+227.922+256.15+225.874C259.227+220.883+257.056+228.602+255.935+228.679C255.935+228.679+255.45+227.302+255.271+226.941C254.75+225.942+251.243+220.9+250.4+220.134" fill="#000000" stroke-linecap="round" opacity="1" stroke-linejoin="round"/>
<path stroke="#606060" fill-rule="evenodd" stroke-width="0.645158" d="M175.644+205.384C175.536+205.014+176.434+209.042+176.792+209.98C179.322+216.7+181.368+219.497+187.306+223.955C183.296+220.487+181.278+214.093+179.807+208.818C178.856+205.384+179.125+200.651+181.359+207.536C183.619+212.991+188.06+217.432+192.222+221.562C188.616+218.146+186.481+213.654+185.665+208.895C184.803+204.791+184.328+199.688+186.625+196.039C187.001+203.216+188.984+210.548+194.609+215.78C195.093+216.304+195.685+217.01+196.143+217.449C189.244+209.61+189.738+198.337+187.845+189.215C182.13+195.032+181.036+201.839+184.149+209.11C183.027+206.503+180.076+200.522+180.156+194.292C179.825+190.54+178.138+197.373+178.012+198.655C177.689+201.753+177.411+203.741+177.878+206.796C178.138+208.491+178.299+210.315+178.533+210.883C176.747+206.632+176.783+203.655+175.976+200.049C175.931+199.679+175.985+199.275+175.931+198.913C175.393+201.615+175.007+202.743+175.644+205.384" fill="#000000" stroke-linecap="round" opacity="1" stroke-linejoin="round"/>
<path stroke="#606060" fill-rule="evenodd" stroke-width="0.645158" d="M110.47+292.642C109.357+292.315+110.82+286.937+111.169+285.268C114.246+270.656+120.051+247.748+143.025+233.739C168.62+218.129+166.87+243.385+178.255+246.759C148.085+258.453+125.855+281.55+116.112+289.303C113.95+291.033+111.421+293.236+110.47+292.642Z" fill="#000000" stroke-linecap="round" opacity="1" stroke-linejoin="round"/>
<path stroke="#606060" fill-rule="evenodd" stroke-width="0.645158" d="M277.896+203.379C277.896+203.379+278.9+204.119+281.17+204.911C282.659+204.369+279.241+203.001+277.896+203.379Z" fill="#000000" stroke-linecap="round" opacity="1" stroke-linejoin="round"/>
<path stroke="#606060" fill-rule="evenodd" stroke-width="0.645158" d="M255.127+201.194C255.701+202.304+254.67+203.655+260.716+204.111C255.127+201.194+252.445+200.032+255.127+201.194Z" fill="#000000" stroke-linecap="round" opacity="1" stroke-linejoin="round"/>
<path stroke="#606060" fill-rule="evenodd" stroke-width="0.645158" d="M212.389+181.298C210.236+181.857+222.975+183.337+222.15+186.762C220.562+185.102+216.839+184.68+214.623+184.396C205.123+183.785+210.371+183.406+213.834+186.134C214.749+187.761+216.704+189.938+222.545+188.845C224.411+188.638+226.169+190.867+227.12+191.444C232.565+190.841+234.934+190.902+227.506+190.48C226.097+190.144+223.774+188.07+222.867+187.21C222.948+186.384+222.293+184.895+221.952+184.241C219.746+183.441+214.91+180.842+212.389+181.298Z" fill="#000000" stroke-linecap="round" opacity="1" stroke-linejoin="round"/>
<path stroke="#606060" fill-rule="evenodd" stroke-width="0.645158" d="M258.025+182.649C256.948+183.372+255.522+184.628+256.042+185.549C257.182+187.58+259.137+189.137+261.263+190.428C264.977+192.683+266.467+192.537+266.467+192.537C266.467+192.537+262.349+190.566+261.999+189.74C261.667+188.94+261.882+187.098+261.093+186.625C259.864+185.885+257.828+186.074+256.85+185.583C257.128+184.74+256.904+184.387+258.025+182.649Z" fill="#000000" stroke-linecap="round" opacity="1" stroke-linejoin="round"/>
<path stroke="#606060" fill-rule="evenodd" stroke-width="0.645158" d="M219.387+186.9C219.387+186.194+219.988+185.627+220.714+185.627C221.45+185.627+222.042+186.194+222.042+186.9C222.042+187.606+221.45+188.174+220.714+188.174C219.979+188.174+219.387+187.606+219.387+186.9Z" fill="#000000" stroke-linecap="round" opacity="1" stroke-linejoin="round"/>
<path stroke="#606060" fill-rule="evenodd" stroke-width="0.645158" d="M261.577+188.165C261.577+188.165+261.882+189.224+261.138+189.224C260.402+189.224+259.756+188.656+259.81+187.95C259.846+187.425+259.873+186.78+260.609+186.78C261.335+186.771+261.577+188.165+261.577+188.165Z" fill="#000000" stroke-linecap="round" opacity="1" stroke-linejoin="round"/>
<path stroke="#606060" fill-rule="evenodd" stroke-width="0.645158" d="M261.631+220.779C259.218+220.452+253.979+222.302+251.144+223.042C252.373+221.425+254.625+218.249+251.117+219.712C247.053+220.719+244.793+225.495+247.296+217.767C249.888+218.344+257.029+219.729+261.631+220.805" fill="#000000" stroke-linecap="round" opacity="1" stroke-linejoin="round"/>
<path stroke="#606060" fill-rule="evenodd" stroke-width="0.645158" d="M250.382+233.816C244.936+238.937+232.188+238.601+224.482+238.274C214.462+237.388+204.262+236.914+196.134+231.897C197.515+234.204+206.451+239.943+212.793+240.795C214.883+241.69+219.162+240.305+217.664+241.303C210.12+246.328+202.001+256.466+200.691+258.548C190.94+274.089+180.273+288.968+189.89+322.881C182.552+322.881+167.059+323.208+157.532+323.208C152.194+312.779+149.467+303.373+149.592+285.801C149.655+276.387+153.136+261.887+157.747+257.077C159.128+255.639+173.94+248.661+175.303+247.886C178.255+246.217+175.303+248.187+178.255+246.724C175.312+246.277+170.647+240.623+167.418+235.357C162.753+227.75+185.27+206.013+195.264+200.307C196.322+210.539+199.247+221.915+210.263+227.259C226.86+235.314+240.119+234.642+250.382+233.816Z" fill="#000000" stroke-linecap="round" opacity="0.1351" stroke-linejoin="round"/>
</g>
<path d="M301.569+323.227L311.627+323.227L311.627+596.502L301.569+596.502L301.569+323.227Z" opacity="1" fill="#fdf9e3"/>
<g opacity="1">
<g opacity="1">
<path stroke="#fffde9" stroke-width="10.4814" d="M102.679+315.585C102.499+313.857+101.887+312.426+100.843+311.292C99.7991+310.158+98.2511+309.591+96.1991+309.591C95.2991+309.591+94.4981+309.735+93.7961+310.023C93.0941+310.311+92.5091+310.68+92.0411+311.13C91.5731+311.58+91.2221+312.102+90.9881+312.696C90.7541+313.29+90.6371+313.893+90.6371+314.505C90.6371+315.189+90.7721+315.846+91.0421+316.476C91.3121+317.106+91.7081+317.736+92.2301+318.366C92.7521+318.996+93.4091+319.662+94.2011+320.364C94.9931+321.066+95.9111+321.849+96.9551+322.713C97.7831+323.397+98.5751+324.09+99.3311+324.792C100.087+325.494+100.744+326.25+101.302+327.06C101.86+327.87+102.31+328.752+102.652+329.706C102.994+330.66+103.165+331.731+103.165+332.919C103.165+334.827+102.814+336.501+102.112+337.941C101.41+339.381+100.456+340.587+99.2501+341.559C98.0441+342.531+96.6491+343.251+95.0651+343.719C93.4811+344.187+91.8251+344.421+90.0971+344.421C87.9371+344.421+85.9751+344.187+84.2111+343.719C82.4471+343.251+80.6471+342.441+78.8111+341.289C79.3871+340.209+79.8731+339.075+80.2691+337.887C80.6651+336.699+80.9531+335.637+81.1331+334.701L82.2671+334.701C82.4111+336.753+83.1491+338.4+84.4811+339.642C85.8131+340.884+87.5591+341.505+89.7191+341.505C90.5111+341.505+91.2761+341.388+92.0141+341.154C92.7521+340.92+93.4091+340.569+93.9851+340.101C94.5611+339.633+95.0291+339.075+95.3891+338.427C95.7491+337.779+95.9291+337.023+95.9291+336.159C95.9291+335.439+95.7761+334.755+95.4701+334.107C95.1641+333.459+94.7501+332.82+94.2281+332.19C93.7061+331.56+93.1031+330.939+92.4191+330.327C91.7351+329.715+90.9971+329.085+90.2051+328.437C89.2691+327.681+88.3961+326.934+87.5861+326.196C86.7761+325.458+86.0651+324.675+85.4531+323.847C84.8411+323.019+84.3641+322.101+84.0221+321.093C83.6801+320.085+83.5091+318.951+83.5091+317.691C83.5091+315.855+83.8331+314.226+84.4811+312.804C85.1291+311.382+86.0111+310.194+87.1271+309.24C88.2431+308.286+89.5661+307.557+91.0961+307.053C92.6261+306.549+94.2551+306.297+95.9831+306.297C97.9271+306.297+99.7091+306.513+101.329+306.945C102.949+307.377+104.569+308.115+106.189+309.159C105.469+310.491+104.965+311.652+104.677+312.642C104.389+313.632+104.119+314.613+103.867+315.585L102.679+315.585Z" fill="#000000" stroke-linecap="round" opacity="1" stroke-linejoin="round"/>
<path stroke="#fffde9" stroke-width="10.4814" d="M119.116+303.165C118.252+305.865+117.433+308.826+116.659+312.048C115.885+315.27+115.138+318.681+114.418+322.281C115.822+320.553+117.325+319.32+118.927+318.582C120.529+317.844+122.158+317.475+123.814+317.475C125.974+317.475+127.639+317.988+128.809+319.014C129.979+320.04+130.564+321.471+130.564+323.307C130.564+324.027+130.483+324.873+130.321+325.845C130.159+326.817+129.97+327.798+129.754+328.788C129.538+329.778+129.313+330.732+129.079+331.65C128.845+332.568+128.656+333.351+128.512+333.999C128.368+334.575+128.116+335.718+127.756+337.428C127.396+339.138+127.018+341.271+126.622+343.827C126.01+343.755+125.371+343.719+124.705+343.719C124.039+343.719+123.364+343.719+122.68+343.719C122.176+343.719+121.609+343.719+120.979+343.719C120.349+343.719+119.512+343.755+118.468+343.827C118.828+342.747+119.143+341.739+119.413+340.803C119.683+339.867+119.944+338.94+120.196+338.022C120.448+337.104+120.709+336.132+120.979+335.106C121.249+334.08+121.564+332.883+121.924+331.515C122.032+331.083+122.176+330.525+122.356+329.841C122.536+329.157+122.707+328.455+122.869+327.735C123.031+327.015+123.166+326.34+123.274+325.71C123.382+325.08+123.436+324.603+123.436+324.279C123.436+323.451+123.175+322.776+122.653+322.254C122.131+321.732+121.348+321.471+120.304+321.471C119.368+321.471+118.531+321.696+117.793+322.146C117.055+322.596+116.398+323.163+115.822+323.847C115.246+324.531+114.769+325.287+114.391+326.115C114.013+326.943+113.698+327.753+113.446+328.545C113.05+329.661+112.681+330.957+112.339+332.433C111.997+333.909+111.682+335.376+111.394+336.834C111.106+338.292+110.854+339.66+110.638+340.938C110.422+342.216+110.26+343.179+110.152+343.827C109.504+343.755+108.874+343.719+108.262+343.719C107.65+343.719+107.02+343.719+106.372+343.719C105.832+343.719+105.202+343.719+104.482+343.719C103.762+343.719+103.06+343.755+102.376+343.827C102.952+341.559+103.546+339.12+104.158+336.51C104.77+333.9+105.373+331.263+105.967+328.599C106.561+325.935+107.137+323.316+107.695+320.742C108.253+318.168+108.757+315.756+109.207+313.506C109.657+311.256+110.053+309.24+110.395+307.458C110.737+305.676+110.998+304.245+111.178+303.165C111.754+303.237+112.357+303.3+112.987+303.354C113.617+303.408+114.328+303.435+115.12+303.435C115.84+303.435+116.533+303.408+117.199+303.354C117.865+303.3+118.504+303.237+119.116+303.165Z" fill="#000000" stroke-linecap="round" opacity="1" stroke-linejoin="round"/>
<path stroke="#fffde9" stroke-width="10.4814" d="M136.093+308.025C136.093+306.909+136.489+305.946+137.281+305.136C138.073+304.326+139.045+303.921+140.197+303.921C141.349+303.921+142.321+304.317+143.113+305.109C143.905+305.901+144.301+306.873+144.301+308.025C144.301+309.177+143.905+310.149+143.113+310.941C142.321+311.733+141.349+312.129+140.197+312.129C139.045+312.129+138.073+311.724+137.281+310.914C136.489+310.104+136.093+309.141+136.093+308.025ZM134.419+318.015C135.031+318.087+135.67+318.15+136.336+318.204C137.002+318.258+137.713+318.285+138.469+318.285C139.405+318.285+140.188+318.258+140.818+318.204C141.448+318.15+142.033+318.087+142.573+318.015C142.213+319.167+141.754+320.832+141.196+323.01C140.638+325.188+140.08+327.537+139.522+330.057C138.964+332.577+138.451+335.079+137.983+337.563C137.515+340.047+137.173+342.135+136.957+343.827C136.345+343.755+135.715+343.719+135.067+343.719C134.419+343.719+133.699+343.719+132.907+343.719C132.079+343.719+131.332+343.719+130.666+343.719C130+343.719+129.379+343.755+128.803+343.827C129.343+342.027+129.91+339.921+130.504+337.509C131.098+335.097+131.656+332.676+132.178+330.246C132.7+327.816+133.168+325.512+133.582+323.334C133.996+321.156+134.275+319.383+134.419+318.015Z" fill="#000000" stroke-linecap="round" opacity="1" stroke-linejoin="round"/>
<path stroke="#fffde9" stroke-width="10.4814" d="M160.09+310.239C159.586+309.843+158.902+309.402+158.038+308.916C157.174+308.43+156.148+308.187+154.96+308.187C154.276+308.187+153.745+308.286+153.367+308.484C152.989+308.682+152.719+308.916+152.557+309.186C152.395+309.456+152.296+309.726+152.26+309.996C152.224+310.266+152.206+310.491+152.206+310.671C152.206+311.679+152.359+312.858+152.665+314.208C152.971+315.558+153.286+316.863+153.61+318.123L156.472+318.123C156.868+318.123+157.291+318.114+157.741+318.096C158.191+318.078+158.668+318.051+159.172+318.015C158.992+318.627+158.875+319.104+158.821+319.446C158.767+319.788+158.704+320.265+158.632+320.877C157.732+320.841+156.823+320.814+155.905+320.796C154.987+320.778+154.114+320.769+153.286+320.769C152.53+324.189+151.774+327.771+151.018+331.515C150.262+335.259+149.614+339.363+149.074+343.827C148.57+343.755+148.021+343.719+147.427+343.719C146.833+343.719+146.086+343.719+145.186+343.719C144.358+343.719+143.539+343.719+142.729+343.719C141.919+343.719+141.172+343.755+140.488+343.827C140.848+342.747+141.262+341.316+141.73+339.534C142.198+337.752+142.675+335.817+143.161+333.729C143.647+331.641+144.133+329.481+144.619+327.249C145.105+325.017+145.546+322.857+145.942+320.769C145.402+320.769+144.7+320.778+143.836+320.796C142.972+320.814+142.234+320.841+141.622+320.877C141.802+320.265+141.928+319.788+142+319.446C142.072+319.104+142.162+318.627+142.27+318.015C142.99+318.051+143.701+318.078+144.403+318.096C145.105+318.114+145.816+318.123+146.536+318.123C146.752+316.971+146.977+315.864+147.211+314.802C147.445+313.74+147.751+312.705+148.129+311.697C148.507+310.689+149.011+309.699+149.641+308.727C150.271+307.755+151.072+306.783+152.044+305.811C153.412+304.515+154.726+303.687+155.986+303.327C157.246+302.967+158.362+302.787+159.334+302.787C159.982+302.787+160.576+302.832+161.116+302.922C161.656+303.012+162.142+303.093+162.574+303.165L160.846+310.023L160.09+310.239Z" fill="#000000" stroke-linecap="round" opacity="1" stroke-linejoin="round"/>
<path stroke="#fffde9" stroke-width="10.4814" d="M167.347+343.773C166.627+343.953+165.907+344.124+165.187+344.286C164.467+344.448+163.675+344.529+162.811+344.529C161.911+344.529+161.065+344.403+160.273+344.151C159.481+343.899+158.779+343.539+158.167+343.071C157.555+342.603+157.069+342+156.709+341.262C156.349+340.524+156.169+339.687+156.169+338.751C156.169+338.319+156.187+337.887+156.223+337.455C156.259+337.023+156.331+336.537+156.439+335.997C156.547+335.457+156.673+334.845+156.817+334.161C156.961+333.477+157.141+332.649+157.357+331.677C157.753+329.841+158.158+328.023+158.572+326.223C158.986+324.423+159.391+322.605+159.787+320.769C159.283+320.769+158.752+320.778+158.194+320.796C157.636+320.814+156.943+320.841+156.115+320.877C156.259+320.409+156.367+320.004+156.439+319.662C156.511+319.32+156.601+318.771+156.709+318.015C157.105+318.051+157.474+318.078+157.816+318.096C158.158+318.114+158.473+318.123+158.761+318.123L160.327+318.123C160.471+317.331+160.615+316.422+160.759+315.396C160.903+314.37+161.065+313.281+161.245+312.129C162.145+311.805+162.91+311.526+163.54+311.292C164.17+311.058+164.773+310.824+165.349+310.59C165.925+310.356+166.519+310.086+167.131+309.78C167.743+309.474+168.481+309.105+169.345+308.673L169.777+309.159C169.489+310.023+169.246+310.806+169.048+311.508C168.85+312.21+168.661+312.903+168.481+313.587C168.301+314.271+168.139+314.973+167.995+315.693C167.851+316.413+167.689+317.223+167.509+318.123L169.507+318.123C169.867+318.123+170.281+318.114+170.749+318.096C171.217+318.078+171.739+318.051+172.315+318.015C172.099+318.519+171.955+319.023+171.883+319.527C171.811+320.031+171.757+320.481+171.721+320.877C171.217+320.841+170.749+320.814+170.317+320.796C169.885+320.778+169.471+320.769+169.075+320.769L166.969+320.769C166.825+321.417+166.582+322.488+166.24+323.982C165.898+325.476+165.547+327.042+165.187+328.68C164.827+330.318+164.503+331.83+164.215+333.216C163.927+334.602+163.747+335.511+163.675+335.943C163.495+336.843+163.369+337.554+163.297+338.076C163.225+338.598+163.189+339.093+163.189+339.561C163.189+340.533+163.45+341.217+163.972+341.613C164.494+342.009+165.223+342.207+166.159+342.207C166.735+342.207+167.293+342.135+167.833+341.991L167.347+343.773Z" fill="#000000" stroke-linecap="round" opacity="1" stroke-linejoin="round"/>
<path stroke="#fffde9" stroke-width="10.4814" d="M195.178+318.339C194.854+318.843+194.548+319.311+194.26+319.743C193.972+320.175+193.666+320.634+193.342+321.12C193.018+321.606+192.676+322.137+192.316+322.713C191.956+323.289+191.542+323.973+191.074+324.765C187.618+330.309+184.216+335.754+180.868+341.1C177.52+346.446+174.262+351.963+171.094+357.651C170.698+357.579+170.284+357.516+169.852+357.462C169.42+357.408+168.952+357.381+168.448+357.381C167.584+357.381+166.792+357.471+166.072+357.651C166.756+356.607+167.557+355.437+168.475+354.141C169.393+352.845+170.302+351.549+171.202+350.253C172.102+348.957+172.939+347.724+173.713+346.554C174.487+345.384+175.108+344.439+175.576+343.719C175.396+342.819+175.189+341.649+174.955+340.209C174.721+338.769+174.469+337.257+174.199+335.673C173.929+334.089+173.659+332.496+173.389+330.894C173.119+329.292+172.876+327.843+172.66+326.547C172.408+325.107+172.147+323.685+171.877+322.281C171.607+320.877+171.328+319.455+171.04+318.015C171.544+318.087+172.093+318.15+172.687+318.204C173.281+318.258+173.938+318.285+174.658+318.285C175.342+318.285+176.017+318.258+176.683+318.204C177.349+318.15+177.97+318.087+178.546+318.015C178.942+321.147+179.32+324.135+179.68+326.979C180.04+329.823+180.472+332.721+180.976+335.673C181.336+335.097+181.93+334.098+182.758+332.676C183.586+331.254+184.495+329.67+185.485+327.924C186.475+326.178+187.456+324.414+188.428+322.632C189.4+320.85+190.21+319.311+190.858+318.015C191.146+318.087+191.461+318.15+191.803+318.204C192.145+318.258+192.532+318.285+192.964+318.285C193.432+318.285+193.837+318.258+194.179+318.204C194.521+318.15+194.836+318.087+195.124+318.015L195.178+318.339Z" fill="#000000" stroke-linecap="round" opacity="1" stroke-linejoin="round"/>
<path stroke="#fffde9" stroke-width="10.4814" d="M225.515+315.585C225.335+313.857+224.723+312.426+223.679+311.292C222.635+310.158+221.087+309.591+219.035+309.591C218.135+309.591+217.334+309.735+216.632+310.023C215.93+310.311+215.345+310.68+214.877+311.13C214.409+311.58+214.058+312.102+213.824+312.696C213.59+313.29+213.473+313.893+213.473+314.505C213.473+315.189+213.608+315.846+213.878+316.476C214.148+317.106+214.544+317.736+215.066+318.366C215.588+318.996+216.245+319.662+217.037+320.364C217.829+321.066+218.747+321.849+219.791+322.713C220.619+323.397+221.411+324.09+222.167+324.792C222.923+325.494+223.58+326.25+224.138+327.06C224.696+327.87+225.146+328.752+225.488+329.706C225.83+330.66+226.001+331.731+226.001+332.919C226.001+334.827+225.65+336.501+224.948+337.941C224.246+339.381+223.292+340.587+222.086+341.559C220.88+342.531+219.485+343.251+217.901+343.719C216.317+344.187+214.661+344.421+212.933+344.421C210.773+344.421+208.811+344.187+207.047+343.719C205.283+343.251+203.483+342.441+201.647+341.289C202.223+340.209+202.709+339.075+203.105+337.887C203.501+336.699+203.789+335.637+203.969+334.701L205.103+334.701C205.247+336.753+205.985+338.4+207.317+339.642C208.649+340.884+210.395+341.505+212.555+341.505C213.347+341.505+214.112+341.388+214.85+341.154C215.588+340.92+216.245+340.569+216.821+340.101C217.397+339.633+217.865+339.075+218.225+338.427C218.585+337.779+218.765+337.023+218.765+336.159C218.765+335.439+218.612+334.755+218.306+334.107C218+333.459+217.586+332.82+217.064+332.19C216.542+331.56+215.939+330.939+215.255+330.327C214.571+329.715+213.833+329.085+213.041+328.437C212.105+327.681+211.232+326.934+210.422+326.196C209.612+325.458+208.901+324.675+208.289+323.847C207.677+323.019+207.2+322.101+206.858+321.093C206.516+320.085+206.345+318.951+206.345+317.691C206.345+315.855+206.669+314.226+207.317+312.804C207.965+311.382+208.847+310.194+209.963+309.24C211.079+308.286+212.402+307.557+213.932+307.053C215.462+306.549+217.091+306.297+218.819+306.297C220.763+306.297+222.545+306.513+224.165+306.945C225.785+307.377+227.405+308.115+229.025+309.159C228.305+310.491+227.801+311.652+227.513+312.642C227.225+313.632+226.955+314.613+226.703+315.585L225.515+315.585Z" fill="#000000" stroke-linecap="round" opacity="1" stroke-linejoin="round"/>
<path stroke="#fffde9" stroke-width="10.4814" d="M241.952+303.165C241.088+305.865+240.269+308.826+239.495+312.048C238.721+315.27+237.974+318.681+237.254+322.281C238.658+320.553+240.161+319.32+241.763+318.582C243.365+317.844+244.994+317.475+246.65+317.475C248.81+317.475+250.475+317.988+251.645+319.014C252.815+320.04+253.4+321.471+253.4+323.307C253.4+324.027+253.319+324.873+253.157+325.845C252.995+326.817+252.806+327.798+252.59+328.788C252.374+329.778+252.149+330.732+251.915+331.65C251.681+332.568+251.492+333.351+251.348+333.999C251.204+334.575+250.952+335.718+250.592+337.428C250.232+339.138+249.854+341.271+249.458+343.827C248.846+343.755+248.207+343.719+247.541+343.719C246.875+343.719+246.2+343.719+245.516+343.719C245.012+343.719+244.445+343.719+243.815+343.719C243.185+343.719+242.348+343.755+241.304+343.827C241.664+342.747+241.979+341.739+242.249+340.803C242.519+339.867+242.78+338.94+243.032+338.022C243.284+337.104+243.545+336.132+243.815+335.106C244.085+334.08+244.4+332.883+244.76+331.515C244.868+331.083+245.012+330.525+245.192+329.841C245.372+329.157+245.543+328.455+245.705+327.735C245.867+327.015+246.002+326.34+246.11+325.71C246.218+325.08+246.272+324.603+246.272+324.279C246.272+323.451+246.011+322.776+245.489+322.254C244.967+321.732+244.184+321.471+243.14+321.471C242.204+321.471+241.367+321.696+240.629+322.146C239.891+322.596+239.234+323.163+238.658+323.847C238.082+324.531+237.605+325.287+237.227+326.115C236.849+326.943+236.534+327.753+236.282+328.545C235.886+329.661+235.517+330.957+235.175+332.433C234.833+333.909+234.518+335.376+234.23+336.834C233.942+338.292+233.69+339.66+233.474+340.938C233.258+342.216+233.096+343.179+232.988+343.827C232.34+343.755+231.71+343.719+231.098+343.719C230.486+343.719+229.856+343.719+229.208+343.719C228.668+343.719+228.038+343.719+227.318+343.719C226.598+343.719+225.896+343.755+225.212+343.827C225.788+341.559+226.382+339.12+226.994+336.51C227.606+333.9+228.209+331.263+228.803+328.599C229.397+325.935+229.973+323.316+230.531+320.742C231.089+318.168+231.593+315.756+232.043+313.506C232.493+311.256+232.889+309.24+233.231+307.458C233.573+305.676+233.834+304.245+234.014+303.165C234.59+303.237+235.193+303.3+235.823+303.354C236.453+303.408+237.164+303.435+237.956+303.435C238.676+303.435+239.369+303.408+240.035+303.354C240.701+303.3+241.34+303.237+241.952+303.165Z" fill="#000000" stroke-linecap="round" opacity="1" stroke-linejoin="round"/>
<path stroke="#fffde9" stroke-width="10.4814" d="M259.415+337.401C259.415+338.337+259.622+339.174+260.036+339.912C260.45+340.65+261.197+341.019+262.277+341.019C263.105+341.019+263.789+340.803+264.329+340.371C264.869+339.939+265.31+339.399+265.652+338.751C265.994+338.103+266.255+337.383+266.435+336.591C266.615+335.799+266.777+335.061+266.921+334.377L267.731+330.219C266.111+330.471+264.869+330.705+264.005+330.921C263.141+331.137+262.403+331.443+261.791+331.839C260.927+332.379+260.315+333.189+259.955+334.269C259.595+335.349+259.415+336.393+259.415+337.401ZM275.777+343.017C275.273+343.377+274.706+343.683+274.076+343.935C273.446+344.187+272.555+344.313+271.403+344.313C270.431+344.313+269.63+344.178+269+343.908C268.37+343.638+267.875+343.296+267.515+342.882C267.155+342.468+266.894+342.036+266.732+341.586C266.57+341.136+266.453+340.767+266.381+340.479C265.517+341.991+264.518+343.044+263.384+343.638C262.25+344.232+260.801+344.529+259.037+344.529C256.877+344.529+255.158+343.917+253.88+342.693C252.602+341.469+251.963+339.777+251.963+337.617C251.963+335.889+252.458+334.287+253.448+332.811C254.438+331.335+255.869+330.309+257.741+329.733C258.569+329.481+259.595+329.265+260.819+329.085C262.043+328.905+263.213+328.743+264.329+328.599C265.157+328.491+265.832+328.392+266.354+328.302C266.876+328.212+267.29+328.059+267.596+327.843C267.902+327.627+268.118+327.312+268.244+326.898C268.37+326.484+268.433+325.899+268.433+325.143C268.433+324.315+268.289+323.64+268.001+323.118C267.713+322.596+267.344+322.173+266.894+321.849C266.444+321.525+265.94+321.3+265.382+321.174C264.824+321.048+264.275+320.985+263.735+320.985C262.619+320.985+261.602+321.165+260.684+321.525C259.766+321.885+258.875+322.389+258.011+323.037L257.741+323.037C257.813+322.317+257.867+321.768+257.903+321.39C257.939+321.012+257.975+320.535+258.011+319.959C260.963+318.303+264.113+317.475+267.461+317.475C268.505+317.475+269.522+317.583+270.512+317.799C271.502+318.015+272.393+318.375+273.185+318.879C273.977+319.383+274.616+320.058+275.102+320.904C275.588+321.75+275.831+322.803+275.831+324.063C275.831+324.855+275.75+325.719+275.588+326.655C275.426+327.591+275.273+328.365+275.129+328.977L273.671+335.727C273.383+336.987+273.203+337.914+273.131+338.508C273.059+339.102+273.023+339.579+273.023+339.939C273.023+340.371+273.113+340.839+273.293+341.343C273.473+341.847+273.869+342.099+274.481+342.099C274.661+342.099+274.814+342.063+274.94+341.991C275.066+341.919+275.201+341.847+275.345+341.775L275.777+343.017Z" fill="#000000" stroke-linecap="round" opacity="1" stroke-linejoin="round"/>
<path stroke="#fffde9" stroke-width="10.4814" d="M294.05+325.035C293.762+324.855+293.42+324.675+293.024+324.495C292.628+324.315+292.052+324.225+291.296+324.225C290.18+324.225+289.253+324.432+288.515+324.846C287.777+325.26+287.174+325.773+286.706+326.385C286.238+326.997+285.878+327.654+285.626+328.356C285.374+329.058+285.176+329.697+285.032+330.273C284.708+331.425+284.33+333.054+283.898+335.16C283.466+337.266+282.926+340.155+282.278+343.827C281.738+343.755+281.126+343.719+280.442+343.719C279.758+343.719+279.056+343.719+278.336+343.719C277.652+343.719+276.986+343.719+276.338+343.719C275.69+343.719+275.096+343.755+274.556+343.827C275.78+339.435+276.887+335.034+277.877+330.624C278.867+326.214+279.668+322.011+280.28+318.015C280.784+318.087+281.333+318.15+281.927+318.204C282.521+318.258+283.178+318.285+283.898+318.285C284.618+318.285+285.239+318.258+285.761+318.204C286.283+318.15+286.796+318.087+287.3+318.015C287.048+319.023+286.814+320.031+286.598+321.039C286.382+322.047+286.166+323.055+285.95+324.063C286.166+323.631+286.499+323.046+286.949+322.308C287.399+321.57+287.966+320.841+288.65+320.121C289.334+319.401+290.126+318.771+291.026+318.231C291.926+317.691+292.934+317.421+294.05+317.421C294.554+317.421+294.986+317.475+295.346+317.583C295.706+317.691+296.03+317.835+296.318+318.015C295.67+319.275+295.229+320.4+294.995+321.39C294.761+322.38+294.608+323.523+294.536+324.819L294.05+325.035Z" fill="#000000" stroke-linecap="round" opacity="1" stroke-linejoin="round"/>
<path stroke="#fffde9" stroke-width="10.4814" d="M319.937+318.879C319.325+319.275+318.56+319.824+317.642+320.526C316.724+321.228+315.671+322.101+314.483+323.145C314.267+323.361+313.88+323.721+313.322+324.225C312.764+324.729+312.17+325.251+311.54+325.791C310.91+326.331+310.325+326.844+309.785+327.33C309.245+327.816+308.867+328.149+308.651+328.329C309.155+329.661+309.713+331.128+310.325+332.73C310.937+334.332+311.54+335.871+312.134+337.347C312.728+338.823+313.268+340.128+313.754+341.262C314.24+342.396+314.591+343.179+314.807+343.611L314.807+343.827C314.267+343.755+313.727+343.719+313.187+343.719C312.647+343.719+311.945+343.719+311.081+343.719C310.181+343.719+309.398+343.719+308.732+343.719C308.066+343.719+307.427+343.755+306.815+343.827C306.527+342.891+306.284+342.099+306.086+341.451C305.888+340.803+305.672+340.11+305.438+339.372C305.204+338.634+304.907+337.743+304.547+336.699C304.187+335.655+303.683+334.233+303.035+332.433C302.819+331.785+302.666+331.38+302.576+331.218C302.486+331.056+302.333+330.975+302.117+330.975C301.865+330.975+301.685+331.101+301.577+331.353C301.469+331.605+301.325+332.091+301.145+332.811C300.641+335.007+300.227+337.005+299.903+338.805C299.579+340.605+299.291+342.279+299.039+343.827C298.499+343.755+297.95+343.719+297.392+343.719C296.834+343.719+296.141+343.719+295.313+343.719C294.593+343.719+293.882+343.719+293.18+343.719C292.478+343.719+291.821+343.755+291.209+343.827C292.469+338.859+293.666+333.891+294.8+328.923C295.934+323.955+297.023+318.879+298.067+313.695C298.427+311.931+298.787+310.113+299.147+308.241C299.507+306.369+299.777+304.677+299.957+303.165C300.569+303.237+301.199+303.3+301.847+303.354C302.495+303.408+303.233+303.435+304.061+303.435C304.817+303.435+305.474+303.408+306.032+303.354C306.59+303.3+307.193+303.237+307.841+303.165C306.977+306.621+306.194+309.87+305.492+312.912C304.79+315.954+304.196+318.618+303.71+320.904C303.224+323.19+302.711+325.683+302.171+328.383C302.171+328.707+302.315+328.869+302.603+328.869C302.819+328.869+303.17+328.671+303.656+328.275C304.142+327.879+304.691+327.429+305.303+326.925C306.959+325.485+308.597+324.045+310.217+322.605C311.837+321.165+313.367+319.635+314.807+318.015C315.203+318.087+315.617+318.15+316.049+318.204C316.481+318.258+316.967+318.285+317.507+318.285C318.011+318.285+318.443+318.258+318.803+318.204C319.163+318.15+319.523+318.087+319.883+318.015L319.937+318.879Z" fill="#000000" stroke-linecap="round" opacity="1" stroke-linejoin="round"/>
<path stroke="#fffde9" stroke-width="10.4814" d="M331.676+324.603C331.604+324.279+331.487+323.865+331.325+323.361C331.163+322.857+330.884+322.353+330.488+321.849C330.092+321.345+329.561+320.913+328.895+320.553C328.229+320.193+327.356+320.013+326.276+320.013C324.872+320.013+323.783+320.346+323.009+321.012C322.235+321.678+321.848+322.479+321.848+323.415C321.848+323.883+321.938+324.297+322.118+324.657C322.298+325.017+322.613+325.377+323.063+325.737C323.513+326.097+324.116+326.484+324.872+326.898C325.628+327.312+326.564+327.807+327.68+328.383C329.12+329.175+330.344+330.111+331.352+331.191C332.36+332.271+332.864+333.711+332.864+335.511C332.864+337.095+332.54+338.463+331.892+339.615C331.244+340.767+330.38+341.712+329.3+342.45C328.22+343.188+327.005+343.719+325.655+344.043C324.305+344.367+322.928+344.529+321.524+344.529C320.228+344.529+318.986+344.394+317.798+344.124C316.61+343.854+315.44+343.431+314.288+342.855C314.684+341.955+314.999+341.064+315.233+340.182C315.467+339.3+315.656+338.391+315.8+337.455L316.826+337.455C316.934+338.211+317.177+338.886+317.555+339.48C317.933+340.074+318.392+340.569+318.932+340.965C319.472+341.361+320.066+341.667+320.714+341.883C321.362+342.099+322.028+342.207+322.712+342.207C324.008+342.207+325.079+341.856+325.925+341.154C326.771+340.452+327.194+339.633+327.194+338.697C327.194+337.653+326.771+336.825+325.925+336.213C325.079+335.601+323.9+334.881+322.388+334.053C321.704+333.693+321.02+333.306+320.336+332.892C319.652+332.478+319.04+331.983+318.5+331.407C317.96+330.831+317.528+330.156+317.204+329.382C316.88+328.608+316.718+327.663+316.718+326.547C316.718+325.467+316.934+324.387+317.366+323.307C317.798+322.227+318.446+321.255+319.31+320.391C320.174+319.527+321.254+318.825+322.55+318.285C323.846+317.745+325.358+317.475+327.086+317.475C328.706+317.475+330.119+317.664+331.325+318.042C332.531+318.42+333.548+318.789+334.376+319.149C333.872+320.121+333.503+321.111+333.269+322.119C333.035+323.127+332.882+323.955+332.81+324.603L331.676+324.603Z" fill="#000000" stroke-linecap="round" opacity="1" stroke-linejoin="round"/>
</g>
<g opacity="1">
<path d="M102.21+315.585C102.03+313.857+101.418+312.426+100.374+311.292C99.3301+310.158+97.7821+309.591+95.7301+309.591C94.8301+309.591+94.0291+309.735+93.3271+310.023C92.6251+310.311+92.0401+310.68+91.5721+311.13C91.1041+311.58+90.7531+312.102+90.5191+312.696C90.2851+313.29+90.1681+313.893+90.1681+314.505C90.1681+315.189+90.3031+315.846+90.5731+316.476C90.8431+317.106+91.2391+317.736+91.7611+318.366C92.2831+318.996+92.9401+319.662+93.7321+320.364C94.5241+321.066+95.4421+321.849+96.4861+322.713C97.3141+323.397+98.1061+324.09+98.8621+324.792C99.6181+325.494+100.275+326.25+100.833+327.06C101.391+327.87+101.841+328.752+102.183+329.706C102.525+330.66+102.696+331.731+102.696+332.919C102.696+334.827+102.345+336.501+101.643+337.941C100.941+339.381+99.9871+340.587+98.7811+341.559C97.5751+342.531+96.1801+343.251+94.5961+343.719C93.0121+344.187+91.3561+344.421+89.6281+344.421C87.4681+344.421+85.5061+344.187+83.7421+343.719C81.9781+343.251+80.1781+342.441+78.3421+341.289C78.9181+340.209+79.4041+339.075+79.8001+337.887C80.1961+336.699+80.4841+335.637+80.6641+334.701L81.7981+334.701C81.9421+336.753+82.6801+338.4+84.0121+339.642C85.3441+340.884+87.0901+341.505+89.2501+341.505C90.0421+341.505+90.8071+341.388+91.5451+341.154C92.2831+340.92+92.9401+340.569+93.5161+340.101C94.0921+339.633+94.5601+339.075+94.9201+338.427C95.2801+337.779+95.4601+337.023+95.4601+336.159C95.4601+335.439+95.3071+334.755+95.0011+334.107C94.6951+333.459+94.2811+332.82+93.7591+332.19C93.2371+331.56+92.6341+330.939+91.9501+330.327C91.2661+329.715+90.5281+329.085+89.7361+328.437C88.8001+327.681+87.9271+326.934+87.1171+326.196C86.3071+325.458+85.5961+324.675+84.9841+323.847C84.3721+323.019+83.8951+322.101+83.5531+321.093C83.2111+320.085+83.0401+318.951+83.0401+317.691C83.0401+315.855+83.3641+314.226+84.0121+312.804C84.6601+311.382+85.5421+310.194+86.6581+309.24C87.7741+308.286+89.0971+307.557+90.6271+307.053C92.1571+306.549+93.7861+306.297+95.5141+306.297C97.4581+306.297+99.2401+306.513+100.86+306.945C102.48+307.377+104.1+308.115+105.72+309.159C105+310.491+104.496+311.652+104.208+312.642C103.92+313.632+103.65+314.613+103.398+315.585L102.21+315.585Z" opacity="1" fill="#000000"/>
<path d="M118.647+303.165C117.783+305.865+116.964+308.826+116.19+312.048C115.416+315.27+114.669+318.681+113.949+322.281C115.353+320.553+116.856+319.32+118.458+318.582C120.06+317.844+121.689+317.475+123.345+317.475C125.505+317.475+127.17+317.988+128.34+319.014C129.51+320.04+130.095+321.471+130.095+323.307C130.095+324.027+130.014+324.873+129.852+325.845C129.69+326.817+129.501+327.798+129.285+328.788C129.069+329.778+128.844+330.732+128.61+331.65C128.376+332.568+128.187+333.351+128.043+333.999C127.899+334.575+127.647+335.718+127.287+337.428C126.927+339.138+126.549+341.271+126.153+343.827C125.541+343.755+124.902+343.719+124.236+343.719C123.57+343.719+122.895+343.719+122.211+343.719C121.707+343.719+121.14+343.719+120.51+343.719C119.88+343.719+119.043+343.755+117.999+343.827C118.359+342.747+118.674+341.739+118.944+340.803C119.214+339.867+119.475+338.94+119.727+338.022C119.979+337.104+120.24+336.132+120.51+335.106C120.78+334.08+121.095+332.883+121.455+331.515C121.563+331.083+121.707+330.525+121.887+329.841C122.067+329.157+122.238+328.455+122.4+327.735C122.562+327.015+122.697+326.34+122.805+325.71C122.913+325.08+122.967+324.603+122.967+324.279C122.967+323.451+122.706+322.776+122.184+322.254C121.662+321.732+120.879+321.471+119.835+321.471C118.899+321.471+118.062+321.696+117.324+322.146C116.586+322.596+115.929+323.163+115.353+323.847C114.777+324.531+114.3+325.287+113.922+326.115C113.544+326.943+113.229+327.753+112.977+328.545C112.581+329.661+112.212+330.957+111.87+332.433C111.528+333.909+111.213+335.376+110.925+336.834C110.637+338.292+110.385+339.66+110.169+340.938C109.953+342.216+109.791+343.179+109.683+343.827C109.035+343.755+108.405+343.719+107.793+343.719C107.181+343.719+106.551+343.719+105.903+343.719C105.363+343.719+104.733+343.719+104.013+343.719C103.293+343.719+102.591+343.755+101.907+343.827C102.483+341.559+103.077+339.12+103.689+336.51C104.301+333.9+104.904+331.263+105.498+328.599C106.092+325.935+106.668+323.316+107.226+320.742C107.784+318.168+108.288+315.756+108.738+313.506C109.188+311.256+109.584+309.24+109.926+307.458C110.268+305.676+110.529+304.245+110.709+303.165C111.285+303.237+111.888+303.3+112.518+303.354C113.148+303.408+113.859+303.435+114.651+303.435C115.371+303.435+116.064+303.408+116.73+303.354C117.396+303.3+118.035+303.237+118.647+303.165Z" opacity="1" fill="#000000"/>
<path d="M135.624+308.025C135.624+306.909+136.02+305.946+136.812+305.136C137.604+304.326+138.576+303.921+139.728+303.921C140.88+303.921+141.852+304.317+142.644+305.109C143.436+305.901+143.832+306.873+143.832+308.025C143.832+309.177+143.436+310.149+142.644+310.941C141.852+311.733+140.88+312.129+139.728+312.129C138.576+312.129+137.604+311.724+136.812+310.914C136.02+310.104+135.624+309.141+135.624+308.025ZM133.95+318.015C134.562+318.087+135.201+318.15+135.867+318.204C136.533+318.258+137.244+318.285+138+318.285C138.936+318.285+139.719+318.258+140.349+318.204C140.979+318.15+141.564+318.087+142.104+318.015C141.744+319.167+141.285+320.832+140.727+323.01C140.169+325.188+139.611+327.537+139.053+330.057C138.495+332.577+137.982+335.079+137.514+337.563C137.046+340.047+136.704+342.135+136.488+343.827C135.876+343.755+135.246+343.719+134.598+343.719C133.95+343.719+133.23+343.719+132.438+343.719C131.61+343.719+130.863+343.719+130.197+343.719C129.531+343.719+128.91+343.755+128.334+343.827C128.874+342.027+129.441+339.921+130.035+337.509C130.629+335.097+131.187+332.676+131.709+330.246C132.231+327.816+132.699+325.512+133.113+323.334C133.527+321.156+133.806+319.383+133.95+318.015Z" opacity="1" fill="#000000"/>
<path d="M159.621+310.239C159.117+309.843+158.433+309.402+157.569+308.916C156.705+308.43+155.679+308.187+154.491+308.187C153.807+308.187+153.276+308.286+152.898+308.484C152.52+308.682+152.25+308.916+152.088+309.186C151.926+309.456+151.827+309.726+151.791+309.996C151.755+310.266+151.737+310.491+151.737+310.671C151.737+311.679+151.89+312.858+152.196+314.208C152.502+315.558+152.817+316.863+153.141+318.123L156.003+318.123C156.399+318.123+156.822+318.114+157.272+318.096C157.722+318.078+158.199+318.051+158.703+318.015C158.523+318.627+158.406+319.104+158.352+319.446C158.298+319.788+158.235+320.265+158.163+320.877C157.263+320.841+156.354+320.814+155.436+320.796C154.518+320.778+153.645+320.769+152.817+320.769C152.061+324.189+151.305+327.771+150.549+331.515C149.793+335.259+149.145+339.363+148.605+343.827C148.101+343.755+147.552+343.719+146.958+343.719C146.364+343.719+145.617+343.719+144.717+343.719C143.889+343.719+143.07+343.719+142.26+343.719C141.45+343.719+140.703+343.755+140.019+343.827C140.379+342.747+140.793+341.316+141.261+339.534C141.729+337.752+142.206+335.817+142.692+333.729C143.178+331.641+143.664+329.481+144.15+327.249C144.636+325.017+145.077+322.857+145.473+320.769C144.933+320.769+144.231+320.778+143.367+320.796C142.503+320.814+141.765+320.841+141.153+320.877C141.333+320.265+141.459+319.788+141.531+319.446C141.603+319.104+141.693+318.627+141.801+318.015C142.521+318.051+143.232+318.078+143.934+318.096C144.636+318.114+145.347+318.123+146.067+318.123C146.283+316.971+146.508+315.864+146.742+314.802C146.976+313.74+147.282+312.705+147.66+311.697C148.038+310.689+148.542+309.699+149.172+308.727C149.802+307.755+150.603+306.783+151.575+305.811C152.943+304.515+154.257+303.687+155.517+303.327C156.777+302.967+157.893+302.787+158.865+302.787C159.513+302.787+160.107+302.832+160.647+302.922C161.187+303.012+161.673+303.093+162.105+303.165L160.377+310.023L159.621+310.239Z" opacity="1" fill="#000000"/>
<path d="M166.878+343.773C166.158+343.953+165.438+344.124+164.718+344.286C163.998+344.448+163.206+344.529+162.342+344.529C161.442+344.529+160.596+344.403+159.804+344.151C159.012+343.899+158.31+343.539+157.698+343.071C157.086+342.603+156.6+342+156.24+341.262C155.88+340.524+155.7+339.687+155.7+338.751C155.7+338.319+155.718+337.887+155.754+337.455C155.79+337.023+155.862+336.537+155.97+335.997C156.078+335.457+156.204+334.845+156.348+334.161C156.492+333.477+156.672+332.649+156.888+331.677C157.284+329.841+157.689+328.023+158.103+326.223C158.517+324.423+158.922+322.605+159.318+320.769C158.814+320.769+158.283+320.778+157.725+320.796C157.167+320.814+156.474+320.841+155.646+320.877C155.79+320.409+155.898+320.004+155.97+319.662C156.042+319.32+156.132+318.771+156.24+318.015C156.636+318.051+157.005+318.078+157.347+318.096C157.689+318.114+158.004+318.123+158.292+318.123L159.858+318.123C160.002+317.331+160.146+316.422+160.29+315.396C160.434+314.37+160.596+313.281+160.776+312.129C161.676+311.805+162.441+311.526+163.071+311.292C163.701+311.058+164.304+310.824+164.88+310.59C165.456+310.356+166.05+310.086+166.662+309.78C167.274+309.474+168.012+309.105+168.876+308.673L169.308+309.159C169.02+310.023+168.777+310.806+168.579+311.508C168.381+312.21+168.192+312.903+168.012+313.587C167.832+314.271+167.67+314.973+167.526+315.693C167.382+316.413+167.22+317.223+167.04+318.123L169.038+318.123C169.398+318.123+169.812+318.114+170.28+318.096C170.748+318.078+171.27+318.051+171.846+318.015C171.63+318.519+171.486+319.023+171.414+319.527C171.342+320.031+171.288+320.481+171.252+320.877C170.748+320.841+170.28+320.814+169.848+320.796C169.416+320.778+169.002+320.769+168.606+320.769L166.5+320.769C166.356+321.417+166.113+322.488+165.771+323.982C165.429+325.476+165.078+327.042+164.718+328.68C164.358+330.318+164.034+331.83+163.746+333.216C163.458+334.602+163.278+335.511+163.206+335.943C163.026+336.843+162.9+337.554+162.828+338.076C162.756+338.598+162.72+339.093+162.72+339.561C162.72+340.533+162.981+341.217+163.503+341.613C164.025+342.009+164.754+342.207+165.69+342.207C166.266+342.207+166.824+342.135+167.364+341.991L166.878+343.773Z" opacity="1" fill="#000000"/>
<path d="M194.709+318.339C194.385+318.843+194.079+319.311+193.791+319.743C193.503+320.175+193.197+320.634+192.873+321.12C192.549+321.606+192.207+322.137+191.847+322.713C191.487+323.289+191.073+323.973+190.605+324.765C187.149+330.309+183.747+335.754+180.399+341.1C177.051+346.446+173.793+351.963+170.625+357.651C170.229+357.579+169.815+357.516+169.383+357.462C168.951+357.408+168.483+357.381+167.979+357.381C167.115+357.381+166.323+357.471+165.603+357.651C166.287+356.607+167.088+355.437+168.006+354.141C168.924+352.845+169.833+351.549+170.733+350.253C171.633+348.957+172.47+347.724+173.244+346.554C174.018+345.384+174.639+344.439+175.107+343.719C174.927+342.819+174.72+341.649+174.486+340.209C174.252+338.769+174+337.257+173.73+335.673C173.46+334.089+173.19+332.496+172.92+330.894C172.65+329.292+172.407+327.843+172.191+326.547C171.939+325.107+171.678+323.685+171.408+322.281C171.138+320.877+170.859+319.455+170.571+318.015C171.075+318.087+171.624+318.15+172.218+318.204C172.812+318.258+173.469+318.285+174.189+318.285C174.873+318.285+175.548+318.258+176.214+318.204C176.88+318.15+177.501+318.087+178.077+318.015C178.473+321.147+178.851+324.135+179.211+326.979C179.571+329.823+180.003+332.721+180.507+335.673C180.867+335.097+181.461+334.098+182.289+332.676C183.117+331.254+184.026+329.67+185.016+327.924C186.006+326.178+186.987+324.414+187.959+322.632C188.931+320.85+189.741+319.311+190.389+318.015C190.677+318.087+190.992+318.15+191.334+318.204C191.676+318.258+192.063+318.285+192.495+318.285C192.963+318.285+193.368+318.258+193.71+318.204C194.052+318.15+194.367+318.087+194.655+318.015L194.709+318.339Z" opacity="1" fill="#000000"/>
<path d="M225.046+315.585C224.866+313.857+224.254+312.426+223.21+311.292C222.166+310.158+220.618+309.591+218.566+309.591C217.666+309.591+216.865+309.735+216.163+310.023C215.461+310.311+214.876+310.68+214.408+311.13C213.94+311.58+213.589+312.102+213.355+312.696C213.121+313.29+213.004+313.893+213.004+314.505C213.004+315.189+213.139+315.846+213.409+316.476C213.679+317.106+214.075+317.736+214.597+318.366C215.119+318.996+215.776+319.662+216.568+320.364C217.36+321.066+218.278+321.849+219.322+322.713C220.15+323.397+220.942+324.09+221.698+324.792C222.454+325.494+223.111+326.25+223.669+327.06C224.227+327.87+224.677+328.752+225.019+329.706C225.361+330.66+225.532+331.731+225.532+332.919C225.532+334.827+225.181+336.501+224.479+337.941C223.777+339.381+222.823+340.587+221.617+341.559C220.411+342.531+219.016+343.251+217.432+343.719C215.848+344.187+214.192+344.421+212.464+344.421C210.304+344.421+208.342+344.187+206.578+343.719C204.814+343.251+203.014+342.441+201.178+341.289C201.754+340.209+202.24+339.075+202.636+337.887C203.032+336.699+203.32+335.637+203.5+334.701L204.634+334.701C204.778+336.753+205.516+338.4+206.848+339.642C208.18+340.884+209.926+341.505+212.086+341.505C212.878+341.505+213.643+341.388+214.381+341.154C215.119+340.92+215.776+340.569+216.352+340.101C216.928+339.633+217.396+339.075+217.756+338.427C218.116+337.779+218.296+337.023+218.296+336.159C218.296+335.439+218.143+334.755+217.837+334.107C217.531+333.459+217.117+332.82+216.595+332.19C216.073+331.56+215.47+330.939+214.786+330.327C214.102+329.715+213.364+329.085+212.572+328.437C211.636+327.681+210.763+326.934+209.953+326.196C209.143+325.458+208.432+324.675+207.82+323.847C207.208+323.019+206.731+322.101+206.389+321.093C206.047+320.085+205.876+318.951+205.876+317.691C205.876+315.855+206.2+314.226+206.848+312.804C207.496+311.382+208.378+310.194+209.494+309.24C210.61+308.286+211.933+307.557+213.463+307.053C214.993+306.549+216.622+306.297+218.35+306.297C220.294+306.297+222.076+306.513+223.696+306.945C225.316+307.377+226.936+308.115+228.556+309.159C227.836+310.491+227.332+311.652+227.044+312.642C226.756+313.632+226.486+314.613+226.234+315.585L225.046+315.585Z" opacity="1" fill="#000000"/>
<path d="M241.483+303.165C240.619+305.865+239.8+308.826+239.026+312.048C238.252+315.27+237.505+318.681+236.785+322.281C238.189+320.553+239.692+319.32+241.294+318.582C242.896+317.844+244.525+317.475+246.181+317.475C248.341+317.475+250.006+317.988+251.176+319.014C252.346+320.04+252.931+321.471+252.931+323.307C252.931+324.027+252.85+324.873+252.688+325.845C252.526+326.817+252.337+327.798+252.121+328.788C251.905+329.778+251.68+330.732+251.446+331.65C251.212+332.568+251.023+333.351+250.879+333.999C250.735+334.575+250.483+335.718+250.123+337.428C249.763+339.138+249.385+341.271+248.989+343.827C248.377+343.755+247.738+343.719+247.072+343.719C246.406+343.719+245.731+343.719+245.047+343.719C244.543+343.719+243.976+343.719+243.346+343.719C242.716+343.719+241.879+343.755+240.835+343.827C241.195+342.747+241.51+341.739+241.78+340.803C242.05+339.867+242.311+338.94+242.563+338.022C242.815+337.104+243.076+336.132+243.346+335.106C243.616+334.08+243.931+332.883+244.291+331.515C244.399+331.083+244.543+330.525+244.723+329.841C244.903+329.157+245.074+328.455+245.236+327.735C245.398+327.015+245.533+326.34+245.641+325.71C245.749+325.08+245.803+324.603+245.803+324.279C245.803+323.451+245.542+322.776+245.02+322.254C244.498+321.732+243.715+321.471+242.671+321.471C241.735+321.471+240.898+321.696+240.16+322.146C239.422+322.596+238.765+323.163+238.189+323.847C237.613+324.531+237.136+325.287+236.758+326.115C236.38+326.943+236.065+327.753+235.813+328.545C235.417+329.661+235.048+330.957+234.706+332.433C234.364+333.909+234.049+335.376+233.761+336.834C233.473+338.292+233.221+339.66+233.005+340.938C232.789+342.216+232.627+343.179+232.519+343.827C231.871+343.755+231.241+343.719+230.629+343.719C230.017+343.719+229.387+343.719+228.739+343.719C228.199+343.719+227.569+343.719+226.849+343.719C226.129+343.719+225.427+343.755+224.743+343.827C225.319+341.559+225.913+339.12+226.525+336.51C227.137+333.9+227.74+331.263+228.334+328.599C228.928+325.935+229.504+323.316+230.062+320.742C230.62+318.168+231.124+315.756+231.574+313.506C232.024+311.256+232.42+309.24+232.762+307.458C233.104+305.676+233.365+304.245+233.545+303.165C234.121+303.237+234.724+303.3+235.354+303.354C235.984+303.408+236.695+303.435+237.487+303.435C238.207+303.435+238.9+303.408+239.566+303.354C240.232+303.3+240.871+303.237+241.483+303.165Z" opacity="1" fill="#000000"/>
<path d="M258.946+337.401C258.946+338.337+259.153+339.174+259.567+339.912C259.981+340.65+260.728+341.019+261.808+341.019C262.636+341.019+263.32+340.803+263.86+340.371C264.4+339.939+264.841+339.399+265.183+338.751C265.525+338.103+265.786+337.383+265.966+336.591C266.146+335.799+266.308+335.061+266.452+334.377L267.262+330.219C265.642+330.471+264.4+330.705+263.536+330.921C262.672+331.137+261.934+331.443+261.322+331.839C260.458+332.379+259.846+333.189+259.486+334.269C259.126+335.349+258.946+336.393+258.946+337.401ZM275.308+343.017C274.804+343.377+274.237+343.683+273.607+343.935C272.977+344.187+272.086+344.313+270.934+344.313C269.962+344.313+269.161+344.178+268.531+343.908C267.901+343.638+267.406+343.296+267.046+342.882C266.686+342.468+266.425+342.036+266.263+341.586C266.101+341.136+265.984+340.767+265.912+340.479C265.048+341.991+264.049+343.044+262.915+343.638C261.781+344.232+260.332+344.529+258.568+344.529C256.408+344.529+254.689+343.917+253.411+342.693C252.133+341.469+251.494+339.777+251.494+337.617C251.494+335.889+251.989+334.287+252.979+332.811C253.969+331.335+255.4+330.309+257.272+329.733C258.1+329.481+259.126+329.265+260.35+329.085C261.574+328.905+262.744+328.743+263.86+328.599C264.688+328.491+265.363+328.392+265.885+328.302C266.407+328.212+266.821+328.059+267.127+327.843C267.433+327.627+267.649+327.312+267.775+326.898C267.901+326.484+267.964+325.899+267.964+325.143C267.964+324.315+267.82+323.64+267.532+323.118C267.244+322.596+266.875+322.173+266.425+321.849C265.975+321.525+265.471+321.3+264.913+321.174C264.355+321.048+263.806+320.985+263.266+320.985C262.15+320.985+261.133+321.165+260.215+321.525C259.297+321.885+258.406+322.389+257.542+323.037L257.272+323.037C257.344+322.317+257.398+321.768+257.434+321.39C257.47+321.012+257.506+320.535+257.542+319.959C260.494+318.303+263.644+317.475+266.992+317.475C268.036+317.475+269.053+317.583+270.043+317.799C271.033+318.015+271.924+318.375+272.716+318.879C273.508+319.383+274.147+320.058+274.633+320.904C275.119+321.75+275.362+322.803+275.362+324.063C275.362+324.855+275.281+325.719+275.119+326.655C274.957+327.591+274.804+328.365+274.66+328.977L273.202+335.727C272.914+336.987+272.734+337.914+272.662+338.508C272.59+339.102+272.554+339.579+272.554+339.939C272.554+340.371+272.644+340.839+272.824+341.343C273.004+341.847+273.4+342.099+274.012+342.099C274.192+342.099+274.345+342.063+274.471+341.991C274.597+341.919+274.732+341.847+274.876+341.775L275.308+343.017Z" opacity="1" fill="#000000"/>
<path d="M293.581+325.035C293.293+324.855+292.951+324.675+292.555+324.495C292.159+324.315+291.583+324.225+290.827+324.225C289.711+324.225+288.784+324.432+288.046+324.846C287.308+325.26+286.705+325.773+286.237+326.385C285.769+326.997+285.409+327.654+285.157+328.356C284.905+329.058+284.707+329.697+284.563+330.273C284.239+331.425+283.861+333.054+283.429+335.16C282.997+337.266+282.457+340.155+281.809+343.827C281.269+343.755+280.657+343.719+279.973+343.719C279.289+343.719+278.587+343.719+277.867+343.719C277.183+343.719+276.517+343.719+275.869+343.719C275.221+343.719+274.627+343.755+274.087+343.827C275.311+339.435+276.418+335.034+277.408+330.624C278.398+326.214+279.199+322.011+279.811+318.015C280.315+318.087+280.864+318.15+281.458+318.204C282.052+318.258+282.709+318.285+283.429+318.285C284.149+318.285+284.77+318.258+285.292+318.204C285.814+318.15+286.327+318.087+286.831+318.015C286.579+319.023+286.345+320.031+286.129+321.039C285.913+322.047+285.697+323.055+285.481+324.063C285.697+323.631+286.03+323.046+286.48+322.308C286.93+321.57+287.497+320.841+288.181+320.121C288.865+319.401+289.657+318.771+290.557+318.231C291.457+317.691+292.465+317.421+293.581+317.421C294.085+317.421+294.517+317.475+294.877+317.583C295.237+317.691+295.561+317.835+295.849+318.015C295.201+319.275+294.76+320.4+294.526+321.39C294.292+322.38+294.139+323.523+294.067+324.819L293.581+325.035Z" opacity="1" fill="#000000"/>
<path d="M319.468+318.879C318.856+319.275+318.091+319.824+317.173+320.526C316.255+321.228+315.202+322.101+314.014+323.145C313.798+323.361+313.411+323.721+312.853+324.225C312.295+324.729+311.701+325.251+311.071+325.791C310.441+326.331+309.856+326.844+309.316+327.33C308.776+327.816+308.398+328.149+308.182+328.329C308.686+329.661+309.244+331.128+309.856+332.73C310.468+334.332+311.071+335.871+311.665+337.347C312.259+338.823+312.799+340.128+313.285+341.262C313.771+342.396+314.122+343.179+314.338+343.611L314.338+343.827C313.798+343.755+313.258+343.719+312.718+343.719C312.178+343.719+311.476+343.719+310.612+343.719C309.712+343.719+308.929+343.719+308.263+343.719C307.597+343.719+306.958+343.755+306.346+343.827C306.058+342.891+305.815+342.099+305.617+341.451C305.419+340.803+305.203+340.11+304.969+339.372C304.735+338.634+304.438+337.743+304.078+336.699C303.718+335.655+303.214+334.233+302.566+332.433C302.35+331.785+302.197+331.38+302.107+331.218C302.017+331.056+301.864+330.975+301.648+330.975C301.396+330.975+301.216+331.101+301.108+331.353C301+331.605+300.856+332.091+300.676+332.811C300.172+335.007+299.758+337.005+299.434+338.805C299.11+340.605+298.822+342.279+298.57+343.827C298.03+343.755+297.481+343.719+296.923+343.719C296.365+343.719+295.672+343.719+294.844+343.719C294.124+343.719+293.413+343.719+292.711+343.719C292.009+343.719+291.352+343.755+290.74+343.827C292+338.859+293.197+333.891+294.331+328.923C295.465+323.955+296.554+318.879+297.598+313.695C297.958+311.931+298.318+310.113+298.678+308.241C299.038+306.369+299.308+304.677+299.488+303.165C300.1+303.237+300.73+303.3+301.378+303.354C302.026+303.408+302.764+303.435+303.592+303.435C304.348+303.435+305.005+303.408+305.563+303.354C306.121+303.3+306.724+303.237+307.372+303.165C306.508+306.621+305.725+309.87+305.023+312.912C304.321+315.954+303.727+318.618+303.241+320.904C302.755+323.19+302.242+325.683+301.702+328.383C301.702+328.707+301.846+328.869+302.134+328.869C302.35+328.869+302.701+328.671+303.187+328.275C303.673+327.879+304.222+327.429+304.834+326.925C306.49+325.485+308.128+324.045+309.748+322.605C311.368+321.165+312.898+319.635+314.338+318.015C314.734+318.087+315.148+318.15+315.58+318.204C316.012+318.258+316.498+318.285+317.038+318.285C317.542+318.285+317.974+318.258+318.334+318.204C318.694+318.15+319.054+318.087+319.414+318.015L319.468+318.879Z" opacity="1" fill="#000000"/>
<path d="M331.207+324.603C331.135+324.279+331.018+323.865+330.856+323.361C330.694+322.857+330.415+322.353+330.019+321.849C329.623+321.345+329.092+320.913+328.426+320.553C327.76+320.193+326.887+320.013+325.807+320.013C324.403+320.013+323.314+320.346+322.54+321.012C321.766+321.678+321.379+322.479+321.379+323.415C321.379+323.883+321.469+324.297+321.649+324.657C321.829+325.017+322.144+325.377+322.594+325.737C323.044+326.097+323.647+326.484+324.403+326.898C325.159+327.312+326.095+327.807+327.211+328.383C328.651+329.175+329.875+330.111+330.883+331.191C331.891+332.271+332.395+333.711+332.395+335.511C332.395+337.095+332.071+338.463+331.423+339.615C330.775+340.767+329.911+341.712+328.831+342.45C327.751+343.188+326.536+343.719+325.186+344.043C323.836+344.367+322.459+344.529+321.055+344.529C319.759+344.529+318.517+344.394+317.329+344.124C316.141+343.854+314.971+343.431+313.819+342.855C314.215+341.955+314.53+341.064+314.764+340.182C314.998+339.3+315.187+338.391+315.331+337.455L316.357+337.455C316.465+338.211+316.708+338.886+317.086+339.48C317.464+340.074+317.923+340.569+318.463+340.965C319.003+341.361+319.597+341.667+320.245+341.883C320.893+342.099+321.559+342.207+322.243+342.207C323.539+342.207+324.61+341.856+325.456+341.154C326.302+340.452+326.725+339.633+326.725+338.697C326.725+337.653+326.302+336.825+325.456+336.213C324.61+335.601+323.431+334.881+321.919+334.053C321.235+333.693+320.551+333.306+319.867+332.892C319.183+332.478+318.571+331.983+318.031+331.407C317.491+330.831+317.059+330.156+316.735+329.382C316.411+328.608+316.249+327.663+316.249+326.547C316.249+325.467+316.465+324.387+316.897+323.307C317.329+322.227+317.977+321.255+318.841+320.391C319.705+319.527+320.785+318.825+322.081+318.285C323.377+317.745+324.889+317.475+326.617+317.475C328.237+317.475+329.65+317.664+330.856+318.042C332.062+318.42+333.079+318.789+333.907+319.149C333.403+320.121+333.034+321.111+332.8+322.119C332.566+323.127+332.413+323.955+332.341+324.603L331.207+324.603Z" opacity="1" fill="#000000"/>
</g>
</g>
<g opacity="1">
<path d="M114.968+547.323L301.062+547.323C311.427+547.323+319.829+556.119+319.829+566.969L319.829+566.969C319.829+577.819+311.427+586.614+301.062+586.614L114.968+586.614C104.604+586.614+96.2016+577.819+96.2016+566.969L96.2016+566.969C96.2016+556.119+104.604+547.323+114.968+547.323Z" opacity="1" fill="#30393e"/>
<path d="M96.2016+541.388L319.829+541.388L319.829+541.388L319.829+568.483L319.829+568.483L96.2016+568.483L96.2016+568.483L96.2016+541.388L96.2016+541.388Z" opacity="1" fill="#30393e"/>
</g>
<g opacity="1">
<path d="M255.133+370.289L323.943+370.289C328.182+370.289+331.618+374.002+331.618+378.583L331.618+388.302C331.618+392.882+328.182+396.596+323.943+396.596L255.133+396.596C250.894+396.596+247.458+392.882+247.458+388.302L247.458+378.583C247.458+374.002+250.894+370.289+255.133+370.289Z" opacity="1" fill="#6c7d88"/>
<path d="M255.133+402.886L323.943+402.886C328.182+402.886+331.618+406.599+331.618+411.18L331.618+420.899C331.618+425.48+328.182+429.193+323.943+429.193L255.133+429.193C250.894+429.193+247.458+425.48+247.458+420.899L247.458+411.18C247.458+406.599+250.894+402.886+255.133+402.886Z" opacity="1" fill="#6c7d88"/>
<path d="M255.133+435.483L323.943+435.483C328.182+435.483+331.618+439.197+331.618+443.777L331.618+453.496C331.618+458.077+328.182+461.79+323.943+461.79L255.133+461.79C250.894+461.79+247.458+458.077+247.458+453.496L247.458+443.777C247.458+439.197+250.894+435.483+255.133+435.483Z" opacity="1" fill="#6c7d88"/>
</g>
<g opacity="1">
<path stroke="#fffde9" stroke-width="0.933062" d="M267.498+379.377L268.011+379.377C270.802+379.377+273.064+381.639+273.064+384.429L273.064+384.429C273.064+387.219+270.802+389.482+268.011+389.482L267.498+389.482C264.707+389.482+262.445+387.219+262.445+384.429L262.445+384.429C262.445+381.639+264.707+379.377+267.498+379.377Z" fill="#7cffdf" stroke-linecap="round" opacity="1" stroke-linejoin="round"/>
<path stroke="#fffde9" stroke-width="0.933062" d="M267.498+411.277L268.011+411.277C270.802+411.277+273.064+413.539+273.064+416.329L273.064+416.329C273.064+419.12+270.802+421.382+268.011+421.382L267.498+421.382C264.707+421.382+262.445+419.12+262.445+416.329L262.445+416.329C262.445+413.539+264.707+411.277+267.498+411.277Z" fill="#7cffdf" stroke-linecap="round" opacity="1" stroke-linejoin="round"/>
<path stroke="#fffde9" stroke-width="0.933062" d="M267.498+443.177L268.011+443.177C270.802+443.177+273.064+445.439+273.064+448.23L273.064+448.23C273.064+451.02+270.802+453.282+268.011+453.282L267.498+453.282C264.707+453.282+262.445+451.02+262.445+448.23L262.445+448.23C262.445+445.439+264.707+443.177+267.498+443.177Z" fill="#7cffdf" stroke-linecap="round" opacity="1" stroke-linejoin="round"/>
</g>
<g opacity="1">
<path d="M280.428+444.864L280.428+443.467L285.203+443.467L285.203+444.864L283.608+444.864L283.608+450.09L285.203+450.09L285.203+451.486L280.428+451.486L280.428+450.09L282.023+450.09L282.023+444.864L280.428+444.864Z" opacity="1" fill="#fffaea"/>
<path d="M286.766+443.467L288.468+443.467L290.703+449.295L290.703+443.467L292.099+443.467L292.099+451.486L290.407+451.486L288.162+445.659L288.162+451.486L286.766+451.486L286.766+443.467Z" opacity="1" fill="#fffaea"/>
<path d="M298.722+444.864L295.311+444.864L295.311+446.593L298.416+446.593L298.416+447.99L295.311+447.99L295.311+451.486L293.727+451.486L293.727+443.467L298.722+443.467L298.722+444.864Z" opacity="1" fill="#fffaea"/>
<path d="M302.68+444.746C302.276+444.746+301.98+444.961+301.794+445.393C301.608+445.824+301.515+446.522+301.515+447.485C301.515+448.444+301.608+449.14+301.794+449.571C301.98+450.003+302.276+450.219+302.68+450.219C303.089+450.219+303.386+450.003+303.572+449.571C303.758+449.14+303.851+448.444+303.851+447.485C303.851+446.522+303.758+445.824+303.572+445.393C303.386+444.961+303.089+444.746+302.68+444.746ZM299.866+447.485C299.866+446.113+300.103+445.077+300.578+444.375C301.052+443.673+301.753+443.322+302.68+443.322C303.611+443.322+304.314+443.673+304.788+444.375C305.263+445.077+305.5+446.113+305.5+447.485C305.5+448.853+305.263+449.887+304.788+450.589C304.314+451.291+303.611+451.642+302.68+451.642C301.753+451.642+301.052+451.291+300.578+450.589C300.103+449.887+299.866+448.853+299.866+447.485Z" opacity="1" fill="#fffaea"/>
</g>
<g opacity="1">
<path d="M280.075+411.93L282.138+411.93L283.181+415.768L284.218+411.93L286.292+411.93L286.292+420.678L284.804+420.678L284.804+413.67L283.878+417.496L282.501+417.496L281.564+413.67L281.564+420.678L280.075+420.678L280.075+411.93Z" opacity="1" fill="#fffaea"/>
<path d="M287.804+413.453L287.804+411.93L293.013+411.93L293.013+413.453L291.273+413.453L291.273+419.154L293.013+419.154L293.013+420.678L287.804+420.678L287.804+419.154L289.544+419.154L289.544+413.453L287.804+413.453Z" opacity="1" fill="#fffaea"/>
<path d="M294.718+411.93L296.575+411.93L299.013+418.287L299.013+411.93L300.536+411.93L300.536+420.678L298.691+420.678L296.241+414.32L296.241+420.678L294.718+420.678L294.718+411.93Z" opacity="1" fill="#fffaea"/>
<path d="M305.722+420.678L303.993+420.678L303.993+413.442L301.773+413.442L301.773+411.93L307.943+411.93L307.943+413.442L305.722+413.442L305.722+420.678Z" opacity="1" fill="#fffaea"/>
</g>
<g opacity="1">
<path d="M91.3619+372.612L155.171+372.612C157.765+372.612+159.868+374.715+159.868+377.309L159.868+391.989C159.868+394.583+157.765+396.686+155.171+396.686L91.3619+396.686C88.7677+396.686+86.6647+394.583+86.6647+391.989L86.6647+377.309C86.6647+374.715+88.7677+372.612+91.3619+372.612Z" opacity="1" fill="#8d8d8d"/>
<path d="M91.423+373.628L155.087+373.628C156.058+373.628+156.846+374.416+156.846+375.387L156.846+394.172C156.846+395.143+156.058+395.931+155.087+395.931L91.423+395.931C90.4516+395.931+89.6641+395.143+89.6641+394.172L89.6641+375.387C89.6641+374.416+90.4516+373.628+91.423+373.628Z" opacity="1" fill="#fffaea"/>
<g opacity="1">
<path d="M170.46+377.032L172.295+377.032L165.77+391.002L163.936+391.002L170.46+377.032Z" opacity="1" fill="#fffaea"/>
<path d="M174.835+377.032L181.567+377.032L181.567+379.19L176.819+379.19L176.819+381.49C177.018+381.412+177.231+381.355+177.458+381.32C177.685+381.284+177.925+381.266+178.18+381.266C179.408+381.266+180.405+381.653+181.168+382.428C181.932+383.202+182.314+384.21+182.314+385.449C182.314+386.75+181.9+387.778+181.073+388.533C180.245+389.288+179.118+389.666+177.69+389.666C177.159+389.666+176.622+389.622+176.08+389.533C175.537+389.445+174.984+389.312+174.42+389.135L174.42+386.927C174.879+387.154+175.351+387.324+175.835+387.437C176.319+387.551+176.805+387.607+177.292+387.607C178.155+387.607+178.811+387.423+179.259+387.055C179.707+386.687+179.931+386.152+179.931+385.449C179.931+384.802+179.709+384.283+179.263+383.893C178.818+383.503+178.224+383.308+177.483+383.308C177.045+383.308+176.607+383.362+176.167+383.469C175.727+383.577+175.283+383.739+174.835+383.955L174.835+377.032Z" opacity="1" fill="#fffaea"/>
<path d="M184.489+383.241C184.489+381.094+184.829+379.485+185.51+378.414C186.19+377.343+187.214+376.808+188.581+376.808C189.953+376.808+190.98+377.342+191.66+378.41C192.341+379.478+192.681+381.088+192.681+383.241C192.681+385.388+192.341+386.996+191.66+388.064C190.98+389.132+189.953+389.666+188.581+389.666C187.214+389.666+186.19+389.131+185.51+388.06C184.829+386.989+184.489+385.383+184.489+383.241ZM187.344+386.553C187.604+387.245+188.016+387.591+188.581+387.591C189.151+387.591+189.566+387.245+189.826+386.553C190.086+385.861+190.216+384.757+190.216+383.241C190.216+382.666+190.197+382.151+190.158+381.697L187.261+386.312C187.289+386.401+187.316+386.481+187.344+386.553ZM188.581+378.883C188.016+378.883+187.604+379.229+187.344+379.921C187.084+380.613+186.954+381.719+186.954+383.241C186.954+383.712+186.965+384.14+186.987+384.528L189.843+379.971C189.837+379.954+189.831+379.937+189.826+379.921C189.566+379.229+189.151+378.883+188.581+378.883Z" opacity="1" fill="#fffaea"/>
<path d="M194.723+383.241C194.723+381.094+195.064+379.485+195.744+378.414C196.425+377.343+197.449+376.808+198.816+376.808C200.188+376.808+201.215+377.342+201.895+378.41C202.576+379.478+202.916+381.088+202.916+383.241C202.916+385.388+202.576+386.996+201.895+388.064C201.215+389.132+200.188+389.666+198.816+389.666C197.449+389.666+196.425+389.131+195.744+388.06C195.064+386.989+194.723+385.383+194.723+383.241ZM197.579+386.553C197.839+387.245+198.251+387.591+198.816+387.591C199.386+387.591+199.801+387.245+200.061+386.553C200.321+385.861+200.451+384.757+200.451+383.241C200.451+382.666+200.432+382.151+200.393+381.697L197.496+386.312C197.524+386.401+197.551+386.481+197.579+386.553ZM198.816+378.883C198.251+378.883+197.839+379.229+197.579+379.921C197.319+380.613+197.189+381.719+197.189+383.241C197.189+383.712+197.2+384.14+197.222+384.528L200.077+379.971C200.072+379.954+200.066+379.937+200.061+379.921C199.801+379.229+199.386+378.883+198.816+378.883Z" opacity="1" fill="#fffaea"/>
<path d="M204.958+383.241C204.958+381.094+205.299+379.485+205.979+378.414C206.66+377.343+207.684+376.808+209.051+376.808C210.423+376.808+211.449+377.342+212.13+378.41C212.811+379.478+213.151+381.088+213.151+383.241C213.151+385.388+212.811+386.996+212.13+388.064C211.449+389.132+210.423+389.666+209.051+389.666C207.684+389.666+206.66+389.131+205.979+388.06C205.299+386.989+204.958+385.383+204.958+383.241ZM207.814+386.553C208.074+387.245+208.486+387.591+209.051+387.591C209.621+387.591+210.036+387.245+210.296+386.553C210.556+385.861+210.686+384.757+210.686+383.241C210.686+382.666+210.666+382.151+210.628+381.697L207.731+386.312C207.758+386.401+207.786+386.481+207.814+386.553ZM209.051+378.883C208.486+378.883+208.074+379.229+207.814+379.921C207.554+380.613+207.424+381.719+207.424+383.241C207.424+383.712+207.435+384.14+207.457+384.528L210.312+379.971C210.307+379.954+210.301+379.937+210.296+379.921C210.036+379.229+209.621+378.883+209.051+378.883Z" opacity="1" fill="#fffaea"/>
</g>
<g opacity="1">
<path d="M107.83+381.251L104.7+386.148L107.83+386.148L107.83+381.251ZM107.614+378.528L110.179+378.528L110.179+386.148L111.54+386.148L111.54+388.248L110.179+388.248L110.179+390.921L107.83+390.921L107.83+388.248L102.915+388.248L102.915+385.874L107.614+378.528Z" opacity="1" fill="#6c7d88"/>
<path d="M113.424+378.528L121.26+378.528L121.26+380.263L117.06+390.921L114.561+390.921L118.596+380.686L113.424+380.686L113.424+378.528Z" opacity="1" fill="#6c7d88"/>
<path d="M127.876+384.712C127.345+384.712+126.939+384.905+126.66+385.289C126.38+385.674+126.241+386.231+126.241+386.962C126.241+387.687+126.38+388.242+126.66+388.626C126.939+389.011+127.345+389.203+127.876+389.203C128.407+389.203+128.815+389.011+129.1+388.626C129.385+388.242+129.528+387.687+129.528+386.962C129.528+386.237+129.385+385.681+129.1+385.293C128.815+384.906+128.407+384.712+127.876+384.712ZM131.088+378.819L131.088+381.043C130.651+380.794+130.232+380.608+129.831+380.483C129.43+380.359+129.044+380.296+128.673+380.296C127.787+380.296+127.114+380.594+126.652+381.189C126.189+381.784+125.947+382.662+125.925+383.824C126.185+383.464+126.517+383.195+126.921+383.015C127.325+382.835+127.801+382.745+128.349+382.745C129.467+382.745+130.33+383.098+130.939+383.803C131.548+384.509+131.852+385.509+131.852+386.804C131.852+388.193+131.51+389.269+130.827+390.033C130.143+390.797+129.182+391.179+127.942+391.179C126.432+391.179+125.335+390.672+124.651+389.66C123.968+388.647+123.626+387.012+123.626+384.754C123.626+382.607+124.044+380.998+124.879+379.927C125.715+378.856+126.968+378.321+128.64+378.321C129.027+378.321+129.427+378.362+129.839+378.445C130.251+378.528+130.668+378.653+131.088+378.819Z" opacity="1" fill="#6c7d88"/>
<path d="M136.376+388.763L141.597+388.763L141.597+390.921L133.728+390.921L133.728+388.829L135.056+387.418C136.633+385.742+137.591+384.71+137.928+384.322C138.343+383.846+138.642+383.424+138.825+383.056C139.007+382.688+139.099+382.324+139.099+381.965C139.099+381.411+138.931+380.984+138.596+380.682C138.262+380.381+137.787+380.23+137.173+380.23C136.736+380.23+136.245+380.317+135.699+380.491C135.154+380.666+134.586+380.919+133.994+381.251L133.994+378.968C134.586+378.752+135.165+378.588+135.733+378.474C136.3+378.361+136.844+378.304+137.364+378.304C138.675+378.304+139.706+378.61+140.456+379.221C141.206+379.833+141.581+380.667+141.581+381.724C141.581+382.211+141.499+382.668+141.336+383.094C141.172+383.52+140.892+383.993+140.493+384.513C140.2+384.889+139.395+385.736+138.078+387.053C137.364+387.767+136.797+388.337+136.376+388.763Z" opacity="1" fill="#6c7d88"/>
</g>
</g>
<g opacity="1">
<path d="M283.163+387.859C283.108+387.87+283.062+387.879+283.025+387.885C282.988+387.891+282.952+387.894+282.917+387.894C281.913+387.894+281.152+387.511+280.635+386.745C280.117+385.98+279.858+384.851+279.858+383.359C279.858+381.863+280.117+380.732+280.635+379.966C281.152+379.2+281.917+378.818+282.929+378.818C283.944+378.818+284.711+379.2+285.228+379.966C285.746+380.732+286.005+381.863+286.005+383.359C286.005+384.386+285.882+385.246+285.636+385.94C285.39+386.633+285.032+387.128+284.563+387.425L285.653+388.491L284.47+389.37L283.163+387.859ZM282.929+380.37C282.487+380.37+282.165+380.606+281.962+381.076C281.759+381.547+281.657+382.308+281.657+383.359C281.657+384.406+281.759+385.164+281.962+385.635C282.165+386.106+282.487+386.341+282.929+386.341C283.374+386.341+283.698+386.106+283.901+385.635C284.104+385.164+284.206+384.406+284.206+383.359C284.206+382.308+284.104+381.547+283.901+381.076C283.698+380.606+283.374+380.37+282.929+380.37Z" opacity="1" fill="#fffaea"/>
<path d="M287.241+378.976L289.099+378.976L291.536+385.333L291.536+378.976L293.059+378.976L293.059+387.724L291.214+387.724L288.765+381.366L288.765+387.724L287.241+387.724L287.241+378.976Z" opacity="1" fill="#fffaea"/>
<path d="M298.245+387.724L296.517+387.724L296.517+380.488L294.296+380.488L294.296+378.976L300.466+378.976L300.466+380.488L298.245+380.488L298.245+387.724Z" opacity="1" fill="#fffaea"/>
<path d="M301.04+378.976L302.903+378.976L304.602+382.491L306.308+378.976L308.171+378.976L305.47+384.279L305.47+387.724L303.741+387.724L303.741+384.279L301.04+378.976Z" opacity="1" fill="#fffaea"/>
</g>
</g>
<g id="Controls" vectornator:layerName="Controls" visibility="hidden">
<path d="M367.6+336.3L367.6+335.2L372.1+335.2L372.1+336.3C372.1+336.4+372.1+336.5+372+336.6C371.9+336.7+371.8+336.7+371.7+336.7C371.6+336.7+371.5+336.7+371.4+336.6C371.3+336.5+371.3+336.4+371.3+336.3L371.3+336L370.4+336L370.4+341.2C370.4+341.3+370.4+341.4+370.3+341.5C370.2+341.6+370.1+341.6+370+341.6C369.9+341.6+369.8+341.6+369.7+341.5C369.6+341.4+369.6+341.3+369.6+341.2L369.6+336L368.7+336L368.7+336.3C368.7+336.4+368.7+336.5+368.6+336.6C368.5+336.7+368.4+336.7+368.3+336.7C368.2+336.7+368.1+336.7+368+336.6C367.6+336.5+367.6+336.4+367.6+336.3Z" opacity="1" fill="#b9fff8"/>
<path d="M364.6+340.8L366.2+340.8C366.3+340.8+366.4+340.8+366.5+340.9C366.6+341+366.6+341.1+366.6+341.2C366.6+341.3+366.6+341.4+366.5+341.5C366.4+341.6+366.3+341.6+366.2+341.6L364.5+341.6C364.3+341.6+364.1+341.5+363.8+341.4C363.5+341.3+363.4+341.1+363.3+341L362.3+339.2C362.2+338.9+362.1+338.7+362.1+338.4C362.1+338.1+362.2+337.8+362.3+337.6L363.3+335.8C363.4+335.6+363.6+335.5+363.8+335.4C364+335.3+364.2+335.2+364.4+335.2L366.2+335.2C366.3+335.2+366.4+335.2+366.5+335.3C366.6+335.4+366.6+335.5+366.6+335.6C366.6+335.7+366.6+335.8+366.5+335.9C366.4+336+366.3+336+366.2+336L364.5+336C364.4+336+364.2+336.1+364.2+336.2L363.2+337.9C363.1+338+363.1+338.2+363.1+338.4C363.1+338.6+363.1+338.8+363.2+338.9L364.1+340.6C364.2+340.7+364.4+340.8+364.6+340.8Z" opacity="1" fill="#b9fff8"/>
<path d="M360.7+336L357.6+336L357.6+338L359+338C359.1+338+359.2+338+359.3+338.1C359.4+338.2+359.4+338.3+359.4+338.4C359.4+338.5+359.4+338.6+359.3+338.7C359.2+338.8+359.1+338.8+359+338.8L357.6+338.8L357.6+340.8L360.7+340.8C360.8+340.8+360.9+340.8+361+340.9C361.1+341+361.1+341.1+361.1+341.2C361.1+341.3+361.1+341.4+361+341.5C360.9+341.6+360.8+341.6+360.7+341.6L356.7+341.6L356.7+335.1L360.7+335.1C360.8+335.1+360.9+335.1+361+335.2C361.1+335.3+361.1+335.4+361.1+335.5C361.1+335.6+361.1+335.7+361+335.8C360.9+335.9+360.8+336+360.7+336Z" opacity="1" fill="#b9fff8"/>
<path d="M355.7+335.6L355.7+341.7L354.5+341.7L352.1+336.7L352.1+341.3C352.1+341.4+352.1+341.5+352+341.6C351.9+341.7+351.8+341.7+351.7+341.7C351.6+341.7+351.5+341.7+351.4+341.6C351.3+341.5+351.3+341.4+351.3+341.3L351.3+335.2L352.5+335.2L354.9+340.2L354.9+335.6C354.9+335.5+354.9+335.4+355+335.3C355.1+335.2+355.2+335.2+355.3+335.2C355.4+335.2+355.5+335.2+355.6+335.3C355.7+335.4+355.7+335.4+355.7+335.6Z" opacity="1" fill="#b9fff8"/>
<path d="M350.2+335.6L350.2+341.7L349+341.7L346.6+336.7L346.6+341.3C346.6+341.4+346.6+341.5+346.5+341.6C346.4+341.7+346.3+341.7+346.2+341.7C346.1+341.7+346+341.7+345.9+341.6C345.8+341.5+345.8+341.4+345.8+341.3L345.8+335.2L347+335.2L349.4+340.2L349.4+335.6C349.4+335.5+349.4+335.4+349.5+335.3C349.6+335.2+349.7+335.2+349.8+335.2C349.9+335.2+350+335.2+350.1+335.3C350.2+335.4+350.2+335.4+350.2+335.6Z" opacity="1" fill="#b9fff8"/>
<path d="M343.6+335.7L344.6+337.5C344.7+337.8+344.8+338+344.8+338.3C344.8+338.6+344.7+338.9+344.6+339.1L343.6+340.9C343.4+341.3+343+341.5+342.5+341.5C342.3+341.5+342.1+341.4+341.9+341.3C341.7+341.2+341.6+341+341.5+340.9L340.5+339.1C340.4+338.9+340.3+338.6+340.3+338.3C340.3+338+340.4+337.7+340.5+337.5L341.5+335.7C341.7+335.3+342.1+335.1+342.6+335.1C343+335.1+343.4+335.3+343.6+335.7ZM342.3+336.2L341.4+337.9C341.3+338.1+341.3+338.2+341.3+338.4C341.3+338.6+341.3+338.7+341.4+338.9L342.3+340.6C342.3+340.7+342.4+340.8+342.6+340.8C342.7+340.8+342.8+340.7+342.9+340.6L343.9+338.9C344+338.7+344+338.6+344+338.4C344+338.2+344+338.1+343.9+337.9L343+336.2C342.9+336.1+342.8+336+342.7+336C342.6+336+342.3+336+342.3+336.2Z" opacity="1" fill="#b9fff8"/>
<path d="M337.3+340.8L338.9+340.8C339+340.8+339.1+340.8+339.2+340.9C339.3+341+339.3+341.1+339.3+341.2C339.3+341.3+339.3+341.4+339.2+341.5C339.1+341.6+339+341.6+338.9+341.6L337.2+341.6C337+341.6+336.8+341.5+336.5+341.4C336.2+341.3+336.1+341.1+336+341L335+339.2C334.9+338.9+334.8+338.7+334.8+338.4C334.8+338.1+334.9+337.8+335+337.6L336+335.8C336.1+335.6+336.3+335.5+336.5+335.4C336.7+335.3+336.9+335.2+337.1+335.2L338.9+335.2C339+335.2+339.1+335.2+339.2+335.3C339.3+335.4+339.3+335.5+339.3+335.6C339.3+335.7+339.3+335.8+339.2+335.9C339.1+336+339+336+338.9+336L337.2+336C337.1+336+336.9+336.1+336.9+336.2L335.9+337.9C335.8+338+335.8+338.2+335.8+338.4C335.8+338.6+335.8+338.8+335.9+338.9L336.8+340.6C337+340.7+337.1+340.8+337.3+340.8Z" opacity="1" fill="#b9fff8"/>
<path stroke="#f6851b" stroke-width="0.25" d="M355.8+313.4L356.2+305.5L358.3+299.8L349.1+299.8L351.1+305.5L351.6+313.4L351.8+315.9L351.8+322L355.6+322L355.6+315.9L355.8+313.4Z" fill="#f6851b" stroke-linecap="round" opacity="1" stroke-linejoin="round"/>
<path stroke="#f6851b" stroke-width="0.25" d="M346.1+309.8L338.9+311.9L336.5+319.3L342.9+319.3L347.1+319.3L343.9+313L346.1+309.8Z" fill="#f6851b" stroke-linecap="round" opacity="1" stroke-linejoin="round"/>
<path stroke="#f6851b" stroke-width="0.25" d="M368.5+311.9L361.3+309.8L363.5+313L360.2+319.3L364.5+319.3L370.9+319.3L368.5+311.9Z" fill="#f6851b" stroke-linecap="round" opacity="1" stroke-linejoin="round"/>
<path stroke="#763d16" stroke-width="0.25" d="M336.2+300.9L337.4+306.5L336.6+307L337.7+307.9L336.9+308.5L338+309.5L337.3+310L338.9+311.9L346.1+309.8L351.1+305.5L337.9+295.7L336.2+300.9Z" fill="#763d16" stroke-linecap="round" opacity="1" stroke-linejoin="round"/>
<path stroke="#763d16" stroke-width="0.25" d="M370+306.5L371.2+300.9L369.4+295.7L356.2+305.5L361.3+309.8L368.5+311.9L370.1+310L369.4+309.5L370.5+308.5L369.6+307.9L370.7+307L370+306.5Z" fill="#763d16" stroke-linecap="butt" opacity="1" stroke-linejoin="miter"/>
<path stroke="#161616" stroke-width="0.25" d="M356.2+322.5L355.6+322L351.8+322L351.1+322.5L350.8+325.5L351.1+325.2L356.3+325.2L356.6+325.5L356.2+322.5Z" fill="#161616" stroke-linecap="butt" opacity="1" stroke-linejoin="miter"/>
<path stroke="#c0ad9e" stroke-width="0.25" d="M356.6+326.8L356.6+325.5L356.3+325.2L351.1+325.2L350.8+325.5L350.8+326.8L346.5+324.7L348+326L351.1+328.1L356.3+328.1L359.4+326L360.9+324.7L356.6+326.8Z" fill="#c0ad9e" stroke-linecap="round" opacity="1" stroke-linejoin="round"/>
<path stroke="#f6851b" stroke-width="0.25" d="M347+316.2L347.1+319.3L351.1+322.5L351.8+322L350.9+317.3L347+316.2Z" fill="#f6851b" stroke-linecap="butt" opacity="1" stroke-linejoin="miter"/>
<path stroke="#f6851b" stroke-width="0.25" d="M356.5+317.3L355.6+322L356.2+322.5L360.2+319.3L360.4+316.2L356.5+317.3Z" fill="#f6851b" stroke-linecap="round" opacity="1" stroke-linejoin="round"/>
<path stroke="#e4751f" stroke-width="0.25" d="M355.8+313.4L355.4+315.8L355.6+322L356.5+317.3L355.8+313.4Z" fill="#e4751f" stroke-linecap="round" opacity="1" stroke-linejoin="round"/>
<path stroke="#e4751f" stroke-width="0.25" d="M351.6+313.4L350.9+317.3L351.8+322L352+315.9L351.6+313.4Z" fill="#e4751f" stroke-linecap="round" opacity="1" stroke-linejoin="round"/>
<path stroke="#e4751f" stroke-width="0.25" d="M360.4+316.2L360.2+319.3L363.5+313L360.4+316.2Z" fill="#e4751f" stroke-linecap="round" opacity="1" stroke-linejoin="round"/>
<path stroke="#e4751f" stroke-width="0.25" d="M343.9+313L347.1+319.3L347+316.2L343.9+313Z" fill="#e4751f" stroke-linecap="round" opacity="1" stroke-linejoin="round"/>
<path stroke="#cd6116" stroke-width="0.25" d="M347+316.2L349.8+315L350.9+317.3L351.6+313.4L343.9+313L347+316.2Z" fill="#cd6116" stroke-linecap="round" opacity="1" stroke-linejoin="round"/>
<path stroke="#cd6116" stroke-width="0.25" d="M363.5+313L355.8+313.4L356.5+317.3L357.6+315L360.4+316.2L363.5+313Z" fill="#cd6116" stroke-linecap="round" opacity="1" stroke-linejoin="round"/>
<path stroke="#cd6116" stroke-width="0.25" d="M360.2+319.2L360.9+324.7L364.5+319.3L360.2+319.2Z" fill="#cd6116" stroke-linecap="round" opacity="1" stroke-linejoin="round"/>
<path stroke="#cd6116" stroke-width="0.25" d="M346.5+324.7L347.1+319.2L342.9+319.3L346.5+324.7Z" fill="#cd6116" stroke-linecap="round" opacity="1" stroke-linejoin="round"/>
<path stroke="#233447" stroke-width="0.25" d="M356.5+317.3L357.6+315L360.4+316.2L356.5+317.3Z" fill="#233447" stroke-linecap="round" opacity="1" stroke-linejoin="round"/>
<path stroke="#233447" stroke-width="0.25" d="M350.9+317.3L347+316.2L349.7+315L350.9+317.3Z" fill="#233447" stroke-linecap="round" opacity="1" stroke-linejoin="round"/>
<path stroke="#d7c1b3" stroke-width="0.25" d="M346.5+324.7L350.8+326.8L350.8+325.5L351.1+322.5L346.5+324.7Z" fill="#d7c1b3" stroke-linecap="round" opacity="1" stroke-linejoin="round"/>
<path stroke="#d7c1b3" stroke-width="0.25" d="M360.9+324.7L356.2+322.5L356.6+325.5L356.6+326.8L360.9+324.7Z" fill="#d7c1b3" stroke-linecap="round" opacity="1" stroke-linejoin="round"/>
<path stroke="#e4761b" stroke-width="0.25" d="M356.2+322.5L360.9+324.7L360.2+319.3L356.2+322.5Z" fill="#e4761b" stroke-linecap="round" opacity="1" stroke-linejoin="round"/>
<path stroke="#e4761b" stroke-width="0.25" d="M346.5+324.7L351.1+322.5L347.1+319.3L346.5+324.7Z" fill="#e4761b" stroke-linecap="round" opacity="1" stroke-linejoin="round"/>
<path stroke="#e4761b" stroke-width="0.25" d="M361.3+309.8L356+305L355.8+313.4L363.5+313L361.3+309.8Z" fill="#e4761b" stroke-linecap="round" opacity="1" stroke-linejoin="round"/>
<path stroke="#e4761b" stroke-width="0.25" d="M346.1+309.8L343.9+313L351.6+313.4L351.3+305.1L346.1+309.8Z" fill="#e4761b" stroke-linecap="butt" opacity="1" stroke-linejoin="miter"/>
<path stroke="#e4761b" stroke-width="0.25" d="M336.5+319.3L338.7+326.9L346.5+324.7L342.9+319.2L336.5+319.3Z" fill="#e4761b" stroke-linecap="round" opacity="1" stroke-linejoin="round"/>
<path stroke="#e4761b" stroke-width="0.25" d="M364.5+319.2L360.9+324.7L368.7+326.9L370.9+319.3L364.5+319.2Z" fill="#e4761b" stroke-linecap="round" opacity="1" stroke-linejoin="round"/>
<path stroke="#e4761b" stroke-width="0.25" d="M337.9+295.7L351.5+305.9L349.1+299.8L337.9+295.7Z" fill="#e4761b" stroke-linecap="round" opacity="1" stroke-linejoin="round"/>
<path stroke="#e2761b" stroke-width="0.25" d="M369.4+295.7L355.8+305.8L358.3+299.8L369.4+295.7Z" fill="#e2761b" stroke-linecap="round" opacity="1" stroke-linejoin="round"/>
<path d="M331.1+416.9L376.5+416.9C377.1+416.9+377.6+417.5+377.6+418.2L377.6+433.7C377.6+434.4+377.1+435+376.5+435L331.1+435C330.5+435+330+434.4+330+433.7L330+418.2C330+417.5+330.5+416.9+331.1+416.9Z" opacity="1" fill="#2a2a2a"/>
<path d="M331+391.8L376.4+391.8C377+391.8+377.5+392.4+377.5+393.1L377.5+408.6C377.5+409.3+377+409.9+376.4+409.9L331+409.9C330.4+409.9+329.9+409.3+329.9+408.6L329.9+393C329.9+392.3+330.4+391.8+331+391.8Z" opacity="1" fill="#2a2a2a"/>
<path d="M347.714+371.715L347.714+380.785L355.25+376.25" opacity="1" fill="#b6b6b6"/>
<path d="M353.564+371.715L353.564+380.785L361.1+376.25" opacity="1" fill="#b6b6b6"/>
<path d="M359.2+396.315L359.2+405.385L351.664+400.85" opacity="1" fill="#b6b6b6"/>
<path d="M353.35+396.315L353.35+405.385L345.814+400.85" opacity="1" fill="#b6b6b6"/>
<path d="M393.374+260.973L393.618+260.915" opacity="1" fill="none"/>
<path stroke="#b1fffe" stroke-width="2.66" d="M345.472+257.834L351.046+264.884L367.6+251.307" fill="none" stroke-linecap="butt" opacity="1" stroke-linejoin="round"/>
<path stroke="#b1fffe" stroke-width="1.95" d="M335.6+259.448C335.6+250.168+343.256+242.645+352.7+242.645C362.144+242.645+369.8+250.168+369.8+259.448C369.8+268.729+362.144+276.252+352.7+276.252C343.256+276.252+335.6+268.729+335.6+259.448Z" fill="none" stroke-linecap="butt" opacity="1" stroke-linejoin="round"/>
</g>
</svg>
