<svg id="Layer_1" data-name="Layer 1" xmlns="http://www.w3.org/2000/svg" viewBox="0 0 672.89 965.72"><g id="Main_Machine" data-name="Main Machine"><path d="M58.12,889.18c-2.48,0-4.31,0-4.31.16v25.41l.5,28.76H76l.33-28.6H598.92l.33,28.6H621s.49-28.6.49-28.76V889.34s-2-.16-4.47-.16Z" style="fill:#2a2a2a"/><path d="M555.9,275.16h77.38a7.18,7.18,0,0,1,7.24,7.23V473.83a7.18,7.18,0,0,1-7.24,7.23H555.9a7.17,7.17,0,0,1-7.23-7.23V282.22A7.14,7.14,0,0,1,555.9,275.16Z" style="fill:#b3b3b3;fill-opacity:0"/><path d="M65,707.66H503.08v10.26H65Z" style="fill:#b6b6b6;fill-opacity:0"/><path d="M555.23,139.06a40.54,40.54,0,1,1,40.54,40.38A40.41,40.41,0,0,1,555.23,139.06Z" style="fill:#2a2a2a;fill-opacity:0"/><path d="M595.94,104.91l-.68,46.1,20.86-12.11Z" style="fill:#b3b3b3;fill-opacity:0"/><path d="M574.07,141.08l21,12.45,21-12.62-21.53,31.8Z" style="fill:#8c8c8c;fill-opacity:0"/><path d="M595.1,153.53l21-12.62-21.53,31.8Z" style="fill:#b3b3b3;fill-opacity:0"/><path d="M595.94,104.91h0l20,34Z" style="fill:#b3b3b3;fill-opacity:0"/><path d="M595.77,104.75l-21.7,34.65,21,11.61L616,138.73,595.1,150.84l.67-46.09Z" style="fill:#8c8c8c;fill-opacity:0"/><path d="M65,488.8H503.08v10.26H65Z" style="fill:#b6b6b6;fill-opacity:0"/><path d="M559.6,278.69h70.32c3.87,0,6.9,2.36,6.9,5.38v74c0,3-3.2,5.39-6.9,5.39H559.6c-3.87,0-6.9-2.36-6.9-5.39v-74C552.54,281.05,555.73,278.69,559.6,278.69Z" style="fill:#a6dfdd;fill-opacity:0"/><path d="M54.18,275.16h566.9a4.46,4.46,0,0,1,4.46,4.46V884.71a4.46,4.46,0,0,1-4.46,4.47H54.18a4.47,4.47,0,0,1-4.47-4.47V279.62A4.47,4.47,0,0,1,54.18,275.16Z" style="fill:#429ad2"/><path d="M199.25,24.31H476A149.54,149.54,0,0,1,625.54,173.85V488.79A149.54,149.54,0,0,1,476,638.33H199.25A149.54,149.54,0,0,1,49.71,488.79V173.85A149.54,149.54,0,0,1,199.25,24.31Z" style="fill:#429ad2"/><path d="M211.81,47.06c-75.11,0-136,53.1-136,118.61V415.5a104,104,0,0,0,.89,13.15H598.56a102.14,102.14,0,0,0,.9-13.15V165.67c0-65.51-60.91-118.61-136-118.61Z" style="fill:#fedf80;stroke:#fff5d0;stroke-linecap:round;stroke-linejoin:round;stroke-width:3.5106728878122624px"/><path d="M337.42,218.15s-7.15,23.14,21.1,36.74c33.54,16.88,35.8,19.13,50.32,23.43,15.3,2.79,23.36-3.22,24.16-5.37s2.22-7.37-10.16-17.67c-12.21-10.13-7.44-6.52-18.23-10.22-9.4-4-14-7.15-49.08-11.09C351.88,222.05,337.42,218.15,337.42,218.15Z" style="stroke:#606060;stroke-linecap:round;stroke-linejoin:round;stroke-width:1.085312510600538px;fill-rule:evenodd"/><path d="M350.36,247.64c7.95-5.2,6.55-8.32,4.49,4.42,11.73-4.72,6.22-6.84,6.67,4.44,10.57-3.92,5.69-10.68,6.31,3.49,8.18-4.49,8.17-8.85,6.81,2.56.33,1.06,6.59-5.25,7.49-6.05.36,1.19-.08,5.89-.5,8.73,2.28-2.19,4.89-5.1,7.18-6.07-2.7,9.11-7.12,11.4,4.86,1.78a18.77,18.77,0,0,0-2,7.88c5.16-2.65,10.47-9.32,7.53-4-6.6,10.72,1.57,3,6,.42-.45,1.29-2,4.48-2.58,6.47,1.52-.78,5.07-3.66,8-5.37-.86,2.45-2.74,5.48-3.5,7.2,3-1.75,5.65-4.27,8.68-6.24-2.38,3.34-2.93,6.76-3.58,7.67,2.3-1.27,8.74-7,9.93-7.93-3.89,10.7-2.05,8.7,4.54-.71,0,0-2.89,7.7-1.6,7.48,4.17-2.15,6.51-11.4,6.56-3.37,4.12-3.6,1.52-3.05,1.85-3.52-3.41,28.23-85.07,11.5-84.36-13" style="stroke:#606060;stroke-linecap:round;stroke-linejoin:round;stroke-width:1.085312510600538px;fill-rule:evenodd"/><path d="M438.9,256.5c-4.24-.43-10.79,4.27-15.3,4.43,2.06-2.72,5.85-8.06-.05-5.6-6.84,1.69-9.33,7.15-6.19-2.55.82-3.44-6.55,3.07-10,5.12a67.94,67.94,0,0,1,1-8.7c-1.2.8-6.38,5.84-10.53,7.63.27-1.69,6.2-10.72,1.36-7.83-10.34,7.37-8.41,8.57-6.52-2.81-4,1.15-5.45,6.94-9.92,7.84.62-3.32,2.21-6.85,1.29-10.44-.14-3.27-7.22,8.16-9.31,8.8.27-1.71,3-10.09,3-13.58-1.31,2.16-8,7.6-9.91,9.29-.64-2.14.42-6.18-.32-9.65-1.61,1.66,1.44-1.75-9.07,7.11-.45-13.74,4.95-11.43-10-1.23,4.39-18,6.14-17.51,24.75-15.81,14.4,3.14,31.07,1.46,42.92,10.07" style="stroke:#606060;stroke-linecap:round;stroke-linejoin:round;stroke-width:1.085312510600538px;fill-rule:evenodd"/><path d="M336.75,316.1C376.25,329.26,410,366,410,366s3.38,3.07,6.37.86c2.87-1.94,4.07-4.13,3.73-5.76-.29-7-11.91-54-42.64-77.74C356.59,272.12,328.6,295.46,336.75,316.1Z" style="stroke:#606060;stroke-linecap:round;stroke-linejoin:round;stroke-width:1.085312510600538px;fill-rule:evenodd"/><path d="M256.61,217.05c11.44,0,73.15-27.21,60.06-44s-77.87-49.83-112.43-23C225.58,157.27,259.67,185.65,256.61,217.05Z" style="stroke:#606060;stroke-linecap:round;stroke-linejoin:round;stroke-width:1.085312510600538px;fill-rule:evenodd"/><path d="M460.63,254c-8.07,3-12,4.95-18.64,3.4-3.15-.84-44.37-11.6-59.26-15.33-4.83-1.2-10.34-6.31-18.62-5.13C349,234.09,356.2,234,341.54,221.4c6.69,21.33,10.42,30.9,19.32,36.84,6.78,4.3,39.25,16.43,54.71,17.72,19.21.84,20.6-10,10.28-18.21-12.71-9.27,28.49,10.4-6.13,26.3-19.82,7.18-38.38,4.2-39.48,5.28-19.79,7.18-51.49,54.4-51.49,54.4-9.53,28-17.75,32.91-2.61,85.18-7.87,0-48.86,1.29-79.1-.07,0,0-66.55-121.82-10.52-204.59,3.65-5.69,17.83-25.64,33.81-35.72,39-28.47,89.84-35,133.8-19.87,24.07,8,35.83,21.87,49.69,32.06,12,9.28,23.27,18.66,29.84,26.54C491.3,235.89,482.91,240.37,460.63,254Z" style="stroke:#666;stroke-linecap:round;stroke-linejoin:round;stroke-width:1.085312510600538px;fill-rule:evenodd"/><path d="M461.19,254c-8.06,3-10.23,5.32-18.64,3.4-3.15-.84-45.15-9.54-60.05-13.29-7.88-2.09-7.88-3.85-17.84-7.18-15.07-2.85-7.66-1.62-22.33-14.25C349,244,352,252.29,360.86,258.21c6.78,4.3,39.81,16.43,55.25,17.72,19.21.84,20.6-10,10.28-18.21-12.71-9.27,28.51,10.4-6.13,26.3-19.81,7.18-38.38,4.2-39.48,5.28-19.78,7.18-41.65,38.8-49.72,55.35-4.92,10.07-20.06,32-4.92,84.23-15.64,0-43.86-.07-43.86-.07S268,394.52,270.86,359.05c6.11-39.91,41.83-74,49.53-80,8.66-8.65,20.13-12.17,16.22-27-11.21-42.57-13.79-50.72,23.89-33.89,10.81,3.59,45.35-5.93,65.5-3.2,25.89,3.52,45,14.16,45.65.53,4.66,3.4,7.23,5.79,12.55,11.76C491.85,235.89,483.45,240.37,461.19,254Z" style="stroke:#666;stroke-linecap:round;stroke-linejoin:round;stroke-width:1.085312510600538px;fill-rule:evenodd"/><path d="M424.08,254.88c2.69-.36,2.87-.77,4.22-.55a58.4,58.4,0,0,0,.26,7.64c1.5-.85,3.4-3.6,4.18-5,.42,1.63-4.42,12.21-.74,8.76,5.18-8.39,1.53,4.59-.36,4.72,0,0-.82-2.31-1.12-2.92-.87-1.68-6.77-10.16-8.19-11.45" style="stroke:#606060;stroke-linecap:round;stroke-linejoin:round;stroke-width:1.085312510600538px;fill-rule:evenodd"/><path d="M296.57,231.22c-.18-.62,1.33,6.16,1.93,7.74,4.26,11.3,7.7,16,17.69,23.51-6.75-5.84-10.14-16.59-12.62-25.47-1.59-5.78-1.14-13.74,2.62-2.16,3.8,9.18,11.27,16.65,18.27,23.6a37.79,37.79,0,0,1-11-21.31c-1.45-6.9-2.25-15.49,1.61-21.63.64,12.08,4,24.41,13.44,33.21.81.88,1.81,2.07,2.58,2.81-11.61-13.19-10.78-32.15-14-47.5-9.62,9.79-11.46,21.24-6.22,33.47-1.89-4.38-6.85-14.44-6.72-24.92-.55-6.32-3.39,5.18-3.6,7.33-.55,5.22-1,8.56-.23,13.7.44,2.85.71,5.92,1.1,6.88-3-7.16-2.94-12.16-4.3-18.23-.08-.62,0-1.3-.08-1.91-.9,4.54-1.55,6.44-.48,10.88" style="stroke:#606060;stroke-linecap:round;stroke-linejoin:round;stroke-width:1.085312510600538px;fill-rule:evenodd"/><path d="M186.93,378c-1.87-.55.59-9.59,1.18-12.4,5.18-24.58,14.94-63.12,53.59-86.69,43.06-26.26,40.11,16.23,59.26,21.91-50.75,19.67-88.15,58.52-104.54,71.57C192.79,375.31,188.53,379,186.93,378Z" style="stroke:#606060;stroke-linecap:round;stroke-linejoin:round;stroke-width:1.085312510600538px;fill-rule:evenodd"/><path d="M468.58,227.85a22.53,22.53,0,0,0,5.51,2.58C476.6,229.52,470.85,227.22,468.58,227.85Z" style="stroke:#606060;stroke-linecap:round;stroke-linejoin:round;stroke-width:1.085312510600538px;fill-rule:evenodd"/><path d="M430.28,224.18c1,1.86-.77,4.14,9.4,4.9C430.28,224.18,425.77,222.22,430.28,224.18Z" style="stroke:#606060;stroke-linecap:round;stroke-linejoin:round;stroke-width:1.085312510600538px;fill-rule:evenodd"/><path d="M358.39,190.71c-3.63.94,17.8,3.43,16.42,9.19-2.68-2.79-8.94-3.5-12.67-4-16-1-7.15-1.67-1.32,2.92,1.54,2.74,4.82,6.4,14.65,4.56,3.14-.35,6.1,3.4,7.7,4.37,9.16-1,13.14-.91.65-1.62-2.37-.56-6.28-4.05-7.81-5.5.14-1.39-1-3.89-1.54-5C370.76,194.31,362.63,189.94,358.39,190.71Z" style="stroke:#606060;stroke-linecap:round;stroke-linejoin:round;stroke-width:1.085312510600538px;fill-rule:evenodd"/><path d="M435.16,193c-1.82,1.21-4.21,3.33-3.34,4.88,1.92,3.41,5.21,6,8.78,8.2,6.25,3.8,8.76,3.55,8.76,3.55s-6.93-3.31-7.52-4.7-.2-4.45-1.52-5.24c-2.07-1.25-5.49-.93-7.14-1.76C433.65,196.5,433.27,195.9,435.16,193Z" style="stroke:#606060;stroke-linecap:round;stroke-linejoin:round;stroke-width:1.085312510600538px;fill-rule:evenodd"/><path d="M370.16,200.13a2.23,2.23,0,1,1,2.23,2.14A2.19,2.19,0,0,1,370.16,200.13Z" style="stroke:#606060;stroke-linecap:round;stroke-linejoin:round;stroke-width:1.085312510600538px;fill-rule:evenodd"/><path d="M441.13,202.26s.51,1.78-.74,1.78a2.13,2.13,0,0,1-2.23-2.14c.06-.89.11-2,1.34-2S441.13,202.26,441.13,202.26Z" style="stroke:#606060;stroke-linecap:round;stroke-linejoin:round;stroke-width:1.085312510600538px;fill-rule:evenodd"/><path d="M441.22,257.12c-4.06-.55-12.87,2.56-17.64,3.81,2.07-2.72,5.86-8.06,0-5.6-6.84,1.69-10.64,9.73-6.43-3.27,4.36,1,16.37,3.3,24.11,5.11" style="stroke:#606060;stroke-linecap:round;stroke-linejoin:round;stroke-width:1.085312510600538px;fill-rule:evenodd"/><path d="M422.3,279.05c-9.16,8.62-30.61,8.05-43.57,7.5-16.86-1.49-34-2.28-47.69-10.72,2.32,3.88,17.36,13.53,28,15,3.51,1.51,10.71-.82,8.19.86-12.69,8.45-26.35,25.51-28.55,29-16.41,26.14-34.35,51.17-18.17,108.22-12.35,0-38.41.55-54.44.55-9-17.54-13.56-33.36-13.35-62.92.1-15.84,6-40.23,13.71-48.33,2.33-2.41,27.25-14.15,29.54-15.46,5-2.8,0,.51,5-2-4.95-.75-12.79-10.26-18.23-19.12-7.84-12.8,30-49.37,46.85-59,1.78,17.22,6.7,36.35,25.23,45.34C382.73,281.57,405,280.44,422.3,279.05Z" style="stroke:#606060;stroke-linecap:round;stroke-linejoin:round;stroke-width:1.085312510600538px;fill-rule:evenodd;opacity:0.13510000705718994;isolation:isolate"/><path d="M508.41,429.46h16.92V889.18H508.41Z" style="fill:#fdf9e3"/><path d="M173.83,416.61a12.28,12.28,0,0,0-3.09-7.22q-2.64-2.86-7.81-2.86a10.68,10.68,0,0,0-4.05.72,9.54,9.54,0,0,0-2.95,1.86,7.32,7.32,0,0,0-1.77,2.64,8.3,8.3,0,0,0-.59,3,8.43,8.43,0,0,0,.68,3.32,13,13,0,0,0,2,3.18,31.29,31.29,0,0,0,3.31,3.36c1.34,1.18,2.88,2.5,4.64,4q2.09,1.72,4,3.5a22.79,22.79,0,0,1,3.32,3.81,19.24,19.24,0,0,1,2.27,4.45,15.87,15.87,0,0,1,.86,5.41,19.07,19.07,0,0,1-1.77,8.45,17.53,17.53,0,0,1-4.81,6.08,20.24,20.24,0,0,1-7,3.64,29.63,29.63,0,0,1-8.36,1.18,39,39,0,0,1-9.9-1.18,33.08,33.08,0,0,1-9.08-4.09,38.31,38.31,0,0,0,2.45-5.72,43.53,43.53,0,0,0,1.45-5.36h1.91a12,12,0,0,0,3.72,8.31,12.41,12.41,0,0,0,8.82,3.13,12.55,12.55,0,0,0,3.86-.59,9.87,9.87,0,0,0,3.31-1.77,9.51,9.51,0,0,0,2.36-2.81,7.74,7.74,0,0,0,.91-3.82,8,8,0,0,0-.77-3.45,15.53,15.53,0,0,0-2.09-3.23,29.59,29.59,0,0,0-3-3.13q-1.73-1.55-3.73-3.18-2.35-1.91-4.4-3.77a27,27,0,0,1-3.59-3.95,17,17,0,0,1-2.41-4.63,18,18,0,0,1-.86-5.73,19.61,19.61,0,0,1,1.63-8.22,17.12,17.12,0,0,1,4.45-6,19.43,19.43,0,0,1,6.68-3.68,26.11,26.11,0,0,1,8.22-1.28,35.23,35.23,0,0,1,9,1.09,28.84,28.84,0,0,1,8.17,3.73,30.49,30.49,0,0,0-2.54,5.86q-.74,2.49-1.36,4.95Z" style="stroke:#fffde9;stroke-linecap:round;stroke-linejoin:round;stroke-width:17.63226089022828px"/><path d="M201.48,395.72q-2.19,6.81-4.14,14.94t-3.77,17.21a21.7,21.7,0,0,1,7.59-6.22,19.49,19.49,0,0,1,8.22-1.86c3.63,0,6.44.86,8.4,2.59a9.08,9.08,0,0,1,3,7.22,26.82,26.82,0,0,1-.41,4.27c-.28,1.63-.59,3.28-1,4.95s-.74,3.27-1.13,4.81-.71,2.87-1,4-.66,2.89-1.27,5.76-1.24,6.47-1.91,10.77a27.66,27.66,0,0,0-3.22-.18h-6.27c-1.06,0-2.47.06-4.22.18.6-1.82,1.13-3.51,1.59-5.09s.89-3.13,1.31-4.68.87-3.18,1.32-4.9l1.59-6c.18-.73.43-1.67.73-2.82s.59-2.33.86-3.54.5-2.35.68-3.41a16,16,0,0,0,.28-2.41,4.6,4.6,0,0,0-1.32-3.4,5.37,5.37,0,0,0-4-1.32,7.93,7.93,0,0,0-4.23,1.14,13.4,13.4,0,0,0-3.31,2.86,16.71,16.71,0,0,0-2.41,3.81,35.73,35.73,0,0,0-1.59,4.09,59,59,0,0,0-1.86,6.54q-.87,3.72-1.59,7.41t-1.27,6.9c-.37,2.15-.64,3.77-.82,4.86a29.06,29.06,0,0,0-3.18-.18h-6.36a34.1,34.1,0,0,0-3.54.18q1.45-5.73,3-12.31t3.05-13.31q1.5-6.72,2.9-13.22t2.55-12.17q1.14-5.67,2-10.17t1.31-7.22c1,.12,2,.22,3,.31s2.25.14,3.59.14,2.37-.05,3.49-.14S200.45,395.84,201.48,395.72Z" style="stroke:#fffde9;stroke-linecap:round;stroke-linejoin:round;stroke-width:17.63226089022828px"/><path d="M230,403.89a6.68,6.68,0,0,1,2-4.86,6.58,6.58,0,0,1,4.9-2,6.91,6.91,0,1,1,0,13.81,6.59,6.59,0,0,1-4.9-2.05A6.68,6.68,0,0,1,230,403.89Zm-2.82,16.81c1,.12,2.11.22,3.23.32s2.31.13,3.58.13c1.58,0,2.9,0,4-.13s2-.2,2.95-.32q-.91,2.91-2.32,8.4c-.94,3.66-1.88,7.62-2.81,11.85s-1.81,8.45-2.59,12.63-1.37,7.69-1.73,10.54a27.47,27.47,0,0,0-3.18-.18h-7.4a25.68,25.68,0,0,0-3.14.18q1.36-4.55,2.87-10.63t2.81-12.22q1.32-6.13,2.36-11.62T227.22,420.7Z" style="stroke:#fffde9;stroke-linecap:round;stroke-linejoin:round;stroke-width:17.63226089022828px"/><path d="M270.41,407.62a27.35,27.35,0,0,0-3.46-2.23,10.35,10.35,0,0,0-5.17-1.23,5.89,5.89,0,0,0-2.68.5,3.46,3.46,0,0,0-1.37,1.18,3.63,3.63,0,0,0-.5,1.37,8.86,8.86,0,0,0-.09,1.13,27.1,27.1,0,0,0,.78,6q.76,3.4,1.59,6.59h4.81c.67,0,1.38,0,2.13-.05s1.56-.07,2.41-.13a21.16,21.16,0,0,0-.59,2.4c-.09.58-.2,1.38-.32,2.41-1.51-.06-3-.1-4.58-.13s-3-.05-4.41-.05q-1.9,8.63-3.82,18.08t-3.27,20.71a19.73,19.73,0,0,0-2.77-.18h-7.9a36.52,36.52,0,0,0-3.77.18c.61-1.82,1.3-4.22,2.09-7.22s1.59-6.26,2.41-9.77,1.63-7.14,2.45-10.9,1.56-7.39,2.23-10.9c-.91,0-2.09,0-3.55.05s-2.69.07-3.72.13c.3-1,.51-1.83.63-2.41s.28-1.37.46-2.4c1.21.06,2.41.1,3.59.13s2.37.05,3.58.05q.56-2.91,1.14-5.59a38.67,38.67,0,0,1,1.54-5.22,26.23,26.23,0,0,1,2.55-5,30.6,30.6,0,0,1,4-4.9A16.59,16.59,0,0,1,263.5,396a20.67,20.67,0,0,1,5.63-.91,18.48,18.48,0,0,1,3,.23l2.45.41-2.9,11.53Z" style="stroke:#fffde9;stroke-linecap:round;stroke-linejoin:round;stroke-width:17.63226089022828px"/><path d="M282.61,464c-1.21.3-2.42.59-3.63.86a18.35,18.35,0,0,1-4,.41,13.88,13.88,0,0,1-4.27-.64,11.61,11.61,0,0,1-3.54-1.81,8.3,8.3,0,0,1-2.45-3.05,9.44,9.44,0,0,1-.91-4.22c0-.73,0-1.45.09-2.18a22,22,0,0,1,.36-2.45l.64-3.09c.24-1.15.55-2.54.91-4.18.66-3.09,1.35-6.15,2-9.18s1.38-6.08,2-9.17c-.85,0-1.74,0-2.68.05l-3.5.13q.36-1.18.54-2c.13-.58.28-1.5.46-2.77.66.06,1.29.1,1.86.13s1.11.05,1.59.05h2.63c.25-1.33.49-2.86.73-4.59s.52-3.56.82-5.49l3.86-1.41c1.06-.4,2.07-.79,3-1.18s2-.85,3-1.37L286,405l.72.82c-.48,1.45-.89,2.77-1.22,3.95s-.66,2.35-1,3.5-.57,2.33-.82,3.54l-.81,4.09h3.36c.6,0,1.3,0,2.09-.05s1.66-.07,2.63-.13a10.57,10.57,0,0,0-.73,2.54c-.12.85-.21,1.61-.27,2.27-.85-.06-1.63-.1-2.36-.13s-1.42-.05-2.09-.05H282q-.36,1.64-1.23,5.41t-1.77,7.9c-.61,2.75-1.15,5.3-1.63,7.63s-.79,3.86-.91,4.59c-.31,1.51-.52,2.71-.64,3.58a18.61,18.61,0,0,0-.18,2.5,4,4,0,0,0,1.32,3.45,5.92,5.92,0,0,0,3.68,1,11,11,0,0,0,2.81-.36Z" style="stroke:#fffde9;stroke-linecap:round;stroke-linejoin:round;stroke-width:17.63226089022828px"/><path d="M329.43,421.24c-.54.85-1.06,1.64-1.54,2.36l-1.55,2.32c-.54.82-1.12,1.71-1.72,2.68s-1.3,2.12-2.09,3.45q-8.73,14-17.17,27.48t-16.44,27.84c-.67-.12-1.37-.22-2.09-.31a19.33,19.33,0,0,0-2.36-.14,16.6,16.6,0,0,0-4,.45q1.72-2.62,4-5.9t4.59-6.54c1.51-2.18,2.92-4.26,4.22-6.22s2.35-3.56,3.14-4.77c-.31-1.52-.65-3.48-1-5.91s-.81-5-1.27-7.63-.91-5.34-1.36-8-.86-5.13-1.23-7.31q-.63-3.63-1.32-7.18t-1.4-7.17c.84.12,1.77.22,2.77.32s2.1.13,3.31.13,2.29,0,3.41-.13,2.16-.2,3.13-.32q1,7.91,1.91,15.08t2.18,14.62q.91-1.45,3-5t4.59-8q2.49-4.41,4.95-8.91c1.63-3,3-5.58,4.09-7.76.48.12,1,.22,1.59.32a12.65,12.65,0,0,0,1.95.13,13.35,13.35,0,0,0,2-.13c.58-.1,1.11-.2,1.59-.32Z" style="stroke:#fffde9;stroke-linecap:round;stroke-linejoin:round;stroke-width:17.63226089022828px"/><path d="M380.47,416.61a12.28,12.28,0,0,0-3.09-7.22q-2.64-2.86-7.81-2.86a10.68,10.68,0,0,0-4.05.72,9.54,9.54,0,0,0-2.95,1.86,7.32,7.32,0,0,0-1.77,2.64,8.3,8.3,0,0,0-.59,3,8.43,8.43,0,0,0,.68,3.32,13,13,0,0,0,2,3.18,31.29,31.29,0,0,0,3.31,3.36c1.34,1.18,2.88,2.5,4.64,4q2.09,1.72,4,3.5a22.79,22.79,0,0,1,3.32,3.81,19.24,19.24,0,0,1,2.27,4.45,15.87,15.87,0,0,1,.86,5.41,19.07,19.07,0,0,1-1.77,8.45,17.53,17.53,0,0,1-4.81,6.08,20.24,20.24,0,0,1-7,3.64,29.63,29.63,0,0,1-8.36,1.18,39,39,0,0,1-9.9-1.18,33.08,33.08,0,0,1-9.08-4.09,38.31,38.31,0,0,0,2.45-5.72,43.53,43.53,0,0,0,1.45-5.36h1.91a12,12,0,0,0,3.72,8.31,12.4,12.4,0,0,0,8.81,3.13,12.57,12.57,0,0,0,3.87-.59,9.87,9.87,0,0,0,3.31-1.77A9.51,9.51,0,0,0,368.2,455a7.74,7.74,0,0,0,.91-3.82,8,8,0,0,0-.77-3.45,15.53,15.53,0,0,0-2.09-3.23,29.59,29.59,0,0,0-3-3.13c-1.15-1-2.4-2.09-3.73-3.18q-2.36-1.91-4.4-3.77a27,27,0,0,1-3.59-3.95,17,17,0,0,1-2.41-4.63,18,18,0,0,1-.86-5.73,19.61,19.61,0,0,1,1.63-8.22,17.12,17.12,0,0,1,4.45-6,19.43,19.43,0,0,1,6.68-3.68A26.11,26.11,0,0,1,369.2,401a35.23,35.23,0,0,1,9,1.09,28.84,28.84,0,0,1,8.17,3.73,30.49,30.49,0,0,0-2.54,5.86q-.74,2.49-1.36,4.95Z" style="stroke:#fffde9;stroke-linecap:round;stroke-linejoin:round;stroke-width:17.63226089022828px"/><path d="M408.12,395.72q-2.19,6.81-4.14,14.94t-3.77,17.21a21.7,21.7,0,0,1,7.59-6.22,19.49,19.49,0,0,1,8.22-1.86c3.63,0,6.44.86,8.4,2.59a9.08,9.08,0,0,1,3,7.22,26.82,26.82,0,0,1-.41,4.27c-.28,1.63-.59,3.28-1,4.95s-.74,3.27-1.13,4.81-.71,2.87-1,4-.66,2.89-1.27,5.76-1.24,6.47-1.91,10.77a27.66,27.66,0,0,0-3.22-.18h-6.27c-1.06,0-2.47.06-4.22.18.6-1.82,1.13-3.51,1.59-5.09s.89-3.13,1.31-4.68.87-3.18,1.32-4.9,1-3.74,1.59-6c.18-.73.43-1.67.73-2.82s.59-2.33.86-3.54.5-2.35.68-3.41a16,16,0,0,0,.28-2.41,4.6,4.6,0,0,0-1.32-3.4,5.37,5.37,0,0,0-3.95-1.32,7.93,7.93,0,0,0-4.23,1.14,13.4,13.4,0,0,0-3.31,2.86,16.71,16.71,0,0,0-2.41,3.81,35.73,35.73,0,0,0-1.59,4.09,59,59,0,0,0-1.86,6.54q-.87,3.72-1.59,7.41t-1.27,6.9c-.37,2.15-.64,3.77-.82,4.86a29.06,29.06,0,0,0-3.18-.18H383.5a34.1,34.1,0,0,0-3.54.18q1.46-5.73,3-12.31T386,438.5q1.5-6.72,2.91-13.22t2.54-12.17q1.14-5.67,2-10.17t1.31-7.22c1,.12,2,.22,3.05.31s2.25.14,3.59.14,2.37-.05,3.49-.14S407.09,395.84,408.12,395.72Z" style="stroke:#fffde9;stroke-linecap:round;stroke-linejoin:round;stroke-width:17.63226089022828px"/><path d="M437.49,453.31a8.44,8.44,0,0,0,1.05,4.22,4,4,0,0,0,3.77,1.87,5.39,5.39,0,0,0,3.45-1.09,8.66,8.66,0,0,0,2.23-2.73A14.85,14.85,0,0,0,449.3,452c.31-1.34.58-2.58.82-3.73l1.36-7q-4.08.63-6.26,1.18a12.35,12.35,0,0,0-3.73,1.54A7.41,7.41,0,0,0,438.4,448,16.79,16.79,0,0,0,437.49,453.31ZM465,462.76a13.67,13.67,0,0,1-2.86,1.54,12.64,12.64,0,0,1-4.5.64,10.41,10.41,0,0,1-4-.68,6.86,6.86,0,0,1-2.5-1.73,7.15,7.15,0,0,1-1.32-2.18c-.27-.76-.47-1.38-.59-1.86a13,13,0,0,1-5,5.31,15.68,15.68,0,0,1-7.31,1.5,12,12,0,0,1-8.68-3.09c-2.15-2.06-3.22-4.9-3.22-8.54a14.19,14.19,0,0,1,2.5-8.08,12.9,12.9,0,0,1,7.22-5.18,36.33,36.33,0,0,1,5.18-1.09c2.06-.3,4-.58,5.9-.82,1.39-.18,2.53-.35,3.41-.5a5.16,5.16,0,0,0,2.09-.77,2.89,2.89,0,0,0,1.09-1.59,10.71,10.71,0,0,0,.32-2.95,7.09,7.09,0,0,0-.73-3.41,6.43,6.43,0,0,0-1.86-2.13,6.85,6.85,0,0,0-2.55-1.14,12.67,12.67,0,0,0-2.77-.32,14,14,0,0,0-5.13.91,19.59,19.59,0,0,0-4.5,2.55h-.45c.12-1.22.21-2.14.27-2.78s.12-1.43.18-2.4a32,32,0,0,1,15.9-4.18,24.14,24.14,0,0,1,5.13.54,13.82,13.82,0,0,1,4.5,1.82,9.59,9.59,0,0,1,3.22,3.41,10.48,10.48,0,0,1,1.23,5.31,25.94,25.94,0,0,1-.41,4.36c-.27,1.58-.53,2.88-.77,3.91l-2.45,11.35c-.49,2.12-.79,3.68-.91,4.68a21.17,21.17,0,0,0-.18,2.41,7.1,7.1,0,0,0,.45,2.36,1.89,1.89,0,0,0,2,1.27,1.54,1.54,0,0,0,.77-.18l.68-.36Z" style="stroke:#fffde9;stroke-linecap:round;stroke-linejoin:round;stroke-width:17.63226089022828px"/><path d="M495.76,432.51a13.72,13.72,0,0,0-1.73-.91,7.26,7.26,0,0,0-2.9-.46,9.42,9.42,0,0,0-4.68,1.05,9.93,9.93,0,0,0-3.05,2.59,12.3,12.3,0,0,0-1.81,3.31,31.84,31.84,0,0,0-1,3.23c-.55,1.94-1.18,4.68-1.91,8.22s-1.63,8.4-2.72,14.58a23.83,23.83,0,0,0-3.09-.18H466a22.77,22.77,0,0,0-3,.18Q466,453,468.55,441.91t4-21.21c.85.12,1.78.22,2.78.32s2.1.13,3.31.13,2.26,0,3.14-.13,1.74-.2,2.58-.32c-.42,1.69-.81,3.39-1.18,5.08s-.72,3.4-1.09,5.09c.37-.73.93-1.71,1.68-2.95a21.78,21.78,0,0,1,2.87-3.68,19,19,0,0,1,4-3.18,9.7,9.7,0,0,1,5.09-1.36,7.73,7.73,0,0,1,2.18.27,6.22,6.22,0,0,1,1.63.73,25.44,25.44,0,0,0-2.22,5.67,33.65,33.65,0,0,0-.77,5.77Z" style="stroke:#fffde9;stroke-linecap:round;stroke-linejoin:round;stroke-width:17.63226089022828px"/><path d="M539.31,422.15q-1.54,1-3.86,2.77t-5.32,4.41c-.36.36-1,1-2,1.81s-1.94,1.73-3,2.64-2,1.77-2.95,2.59-1.54,1.37-1.91,1.68q1.27,3.36,2.82,7.4t3,7.77c1,2.48,1.91,4.68,2.73,6.58s1.4,3.23,1.77,4v.36a20.86,20.86,0,0,0-2.73-.18h-7.49a28,28,0,0,0-3.23.18l-1.22-4-1.09-3.5c-.4-1.24-.9-2.74-1.5-4.49S512,448,510.87,445a15.62,15.62,0,0,0-.77-2,.81.81,0,0,0-.77-.41.94.94,0,0,0-.91.63,21.4,21.4,0,0,0-.73,2.46q-1.26,5.54-2.08,10.08c-.55,3-1,5.85-1.46,8.45a21.13,21.13,0,0,0-2.77-.18H494.3a28.67,28.67,0,0,0-3.32.18q3.18-12.54,6-25.07t5.5-25.62c.6-3,1.21-6,1.81-9.18s1.06-6,1.37-8.53c1,.12,2.09.22,3.18.31s2.33.14,3.72.14,2.38-.05,3.32-.14l3-.31q-2.18,8.71-4,16.39t-3,13.45q-1.23,5.76-2.59,12.58c0,.54.24.82.73.82a3.75,3.75,0,0,0,1.77-1l2.77-2.27q4.18-3.65,8.27-7.27a93.73,93.73,0,0,0,7.72-7.72c.66.12,1.36.22,2.09.32a20,20,0,0,0,2.45.13,15.19,15.19,0,0,0,2.18-.13c.61-.1,1.21-.2,1.82-.32Z" style="stroke:#fffde9;stroke-linecap:round;stroke-linejoin:round;stroke-width:17.63226089022828px"/><path d="M559.06,431.78c-.13-.55-.32-1.24-.59-2.09a8.39,8.39,0,0,0-4.09-4.72,9.21,9.21,0,0,0-4.41-.91,8.15,8.15,0,0,0-5.49,1.68,5.14,5.14,0,0,0-2,4,4.53,4.53,0,0,0,.46,2.09,5.64,5.64,0,0,0,1.59,1.82,21.92,21.92,0,0,0,3,1.95c1.27.7,2.85,1.53,4.72,2.5a24.58,24.58,0,0,1,6.18,4.72,10.21,10.21,0,0,1,2.54,7.27,13.47,13.47,0,0,1-6,11.67,18.31,18.31,0,0,1-6.13,2.68,29.43,29.43,0,0,1-6.95.82,28.48,28.48,0,0,1-6.27-.68,26.43,26.43,0,0,1-5.91-2.14,29.82,29.82,0,0,0,1.59-4.49,42.4,42.4,0,0,0,1-4.59h1.72a8.6,8.6,0,0,0,1.23,3.41,9.07,9.07,0,0,0,2.32,2.49,10.66,10.66,0,0,0,6.36,2.09,8.16,8.16,0,0,0,5.4-1.77,5.27,5.27,0,0,0,2.14-4.13,4.9,4.9,0,0,0-2.14-4.18,57.84,57.84,0,0,0-6-3.63c-1.15-.61-2.3-1.26-3.45-2a14.62,14.62,0,0,1-3.09-2.49,11.44,11.44,0,0,1-2.18-3.41,12.25,12.25,0,0,1-.82-4.77,14.78,14.78,0,0,1,4.36-10.36,16.8,16.8,0,0,1,5.45-3.54,19.72,19.72,0,0,1,7.63-1.36,24.16,24.16,0,0,1,7.14.95q3,1,5.13,1.86a21.23,21.23,0,0,0-1.86,5,36.44,36.44,0,0,0-.78,4.18Z" style="stroke:#fffde9;stroke-linecap:round;stroke-linejoin:round;stroke-width:17.63226089022828px"/><path d="M173,416.61a12.16,12.16,0,0,0-3.09-7.22q-2.64-2.86-7.81-2.86a10.71,10.71,0,0,0-4,.72,9.54,9.54,0,0,0-3,1.86,7.44,7.44,0,0,0-1.77,2.64,8.3,8.3,0,0,0-.59,3,8.43,8.43,0,0,0,.68,3.32,13.27,13.27,0,0,0,2,3.18,30.54,30.54,0,0,0,3.32,3.36q2,1.77,4.63,4,2.09,1.72,4,3.5a23.19,23.19,0,0,1,3.31,3.81,19.24,19.24,0,0,1,2.27,4.45,15.87,15.87,0,0,1,.87,5.41,19.07,19.07,0,0,1-1.78,8.45,17.53,17.53,0,0,1-4.81,6.08,20.24,20.24,0,0,1-7,3.64,29.63,29.63,0,0,1-8.36,1.18,39,39,0,0,1-9.9-1.18,33.08,33.08,0,0,1-9.08-4.09,37.3,37.3,0,0,0,2.45-5.72,41.82,41.82,0,0,0,1.45-5.36h1.91a12,12,0,0,0,3.72,8.31,13.67,13.67,0,0,0,12.68,2.54,9.87,9.87,0,0,0,3.31-1.77,9.51,9.51,0,0,0,2.36-2.81,7.74,7.74,0,0,0,.91-3.82,7.91,7.91,0,0,0-.77-3.45,15.13,15.13,0,0,0-2.09-3.23,29.59,29.59,0,0,0-3-3.13q-1.72-1.55-3.73-3.18-2.36-1.91-4.4-3.77a27.58,27.58,0,0,1-3.59-3.95,17,17,0,0,1-2.41-4.63,18,18,0,0,1-.86-5.73,19.61,19.61,0,0,1,1.63-8.22,17,17,0,0,1,4.46-6,19.29,19.29,0,0,1,6.67-3.68,26.11,26.11,0,0,1,8.22-1.28,35.23,35.23,0,0,1,9,1.09,28.84,28.84,0,0,1,8.17,3.73,30.49,30.49,0,0,0-2.54,5.86q-.74,2.49-1.36,4.95Z"/><path d="M200.69,395.72q-2.17,6.81-4.13,14.94t-3.77,17.21a21.67,21.67,0,0,1,7.58-6.22,19.52,19.52,0,0,1,8.22-1.86q5.46,0,8.4,2.59a9.08,9.08,0,0,1,3,7.22,26.82,26.82,0,0,1-.41,4.27q-.4,2.44-1,4.95c-.36,1.67-.74,3.27-1.13,4.81s-.71,2.87-.95,4-.67,2.89-1.28,5.76-1.24,6.47-1.9,10.77a28,28,0,0,0-3.23-.18h-6.27c-1.06,0-2.46.06-4.22.18.6-1.82,1.13-3.51,1.59-5.09s.89-3.13,1.32-4.68.86-3.18,1.31-4.9,1-3.74,1.59-6c.18-.73.43-1.67.73-2.82s.59-2.33.86-3.54.5-2.35.68-3.41a14.73,14.73,0,0,0,.28-2.41,4.6,4.6,0,0,0-1.32-3.4,5.37,5.37,0,0,0-3.95-1.32,7.93,7.93,0,0,0-4.23,1.14,13.4,13.4,0,0,0-3.31,2.86,16.71,16.71,0,0,0-2.41,3.81,35.73,35.73,0,0,0-1.59,4.09,59,59,0,0,0-1.86,6.54q-.87,3.72-1.59,7.41t-1.27,6.9c-.37,2.15-.64,3.77-.82,4.86a29.06,29.06,0,0,0-3.18-.18h-6.36a34.1,34.1,0,0,0-3.54.18q1.46-5.73,3-12.31t3-13.31q1.5-6.72,2.91-13.22T184,413.11q1.14-5.67,2-10.17t1.32-7.22c1,.12,2,.22,3,.31s2.25.14,3.59.14,2.37-.05,3.49-.14S199.66,395.84,200.69,395.72Z"/><path d="M229.25,403.89a6.68,6.68,0,0,1,2-4.86,7,7,0,0,1,9.81,0,6.91,6.91,0,0,1-4.91,11.81,6.59,6.59,0,0,1-4.9-2.05A6.68,6.68,0,0,1,229.25,403.89Zm-2.82,16.81c1,.12,2.11.22,3.23.32s2.31.13,3.59.13c1.57,0,2.89,0,3.95-.13s2-.2,3-.32q-.92,2.91-2.32,8.4c-.94,3.66-1.87,7.62-2.81,11.85s-1.8,8.45-2.59,12.63-1.36,7.69-1.73,10.54a27.47,27.47,0,0,0-3.18-.18h-7.4a25.68,25.68,0,0,0-3.14.18q1.36-4.55,2.87-10.63t2.81-12.22q1.32-6.13,2.36-11.62T226.43,420.7Z"/><path d="M269.62,407.62a27.88,27.88,0,0,0-3.45-2.23,10.39,10.39,0,0,0-5.18-1.23,5.89,5.89,0,0,0-2.68.5,3.46,3.46,0,0,0-1.37,1.18,3.6,3.6,0,0,0-.49,1.37,7.52,7.52,0,0,0-.1,1.13,27.1,27.1,0,0,0,.78,6q.76,3.4,1.59,6.59h4.81c.67,0,1.38,0,2.14-.05s1.55-.07,2.4-.13a21.16,21.16,0,0,0-.59,2.4c-.09.58-.19,1.38-.32,2.41-1.51-.06-3-.1-4.58-.13s-3-.05-4.41-.05q-1.91,8.63-3.81,18.08t-3.27,20.71a20,20,0,0,0-2.78-.18h-7.9a36.52,36.52,0,0,0-3.77.18c.61-1.82,1.3-4.22,2.09-7.22s1.59-6.26,2.41-9.77,1.63-7.14,2.45-10.9,1.56-7.39,2.23-10.9c-.91,0-2.09,0-3.55.05s-2.69.07-3.72.13c.3-1,.51-1.83.64-2.41s.27-1.37.45-2.4c1.21.06,2.41.1,3.59.13s2.37.05,3.59.05q.54-2.91,1.13-5.59a38.7,38.7,0,0,1,1.55-5.22,25.6,25.6,0,0,1,2.54-5,30.6,30.6,0,0,1,4-4.9,16.59,16.59,0,0,1,6.63-4.18,20.68,20.68,0,0,1,5.64-.91,18.35,18.35,0,0,1,3,.23l2.46.41-2.91,11.53Z"/><path d="M281.83,464c-1.22.3-2.43.59-3.64.86a18.35,18.35,0,0,1-4,.41,13.88,13.88,0,0,1-4.27-.64,11.61,11.61,0,0,1-3.54-1.81,8.4,8.4,0,0,1-2.45-3.05,9.44,9.44,0,0,1-.91-4.22c0-.73,0-1.45.09-2.18a20.08,20.08,0,0,1,.37-2.45q.27-1.36.63-3.09c.24-1.15.55-2.54.91-4.18q1-4.64,2-9.18t2.05-9.17c-.85,0-1.74,0-2.68.05l-3.5.13c.24-.79.42-1.47.55-2s.27-1.5.45-2.77c.67.06,1.29.1,1.86.13s1.11.05,1.59.05H270q.36-2,.72-4.59c.24-1.72.52-3.56.82-5.49l3.86-1.41c1.06-.4,2.08-.79,3-1.18s2-.85,3-1.37l3.73-1.86.72.82c-.48,1.45-.89,2.77-1.22,3.95s-.65,2.35-1,3.5-.57,2.33-.81,3.54-.52,2.57-.82,4.09h3.36c.6,0,1.3,0,2.09-.05s1.66-.07,2.63-.13a10.1,10.1,0,0,0-.72,2.54c-.13.85-.22,1.61-.28,2.27-.84-.06-1.63-.1-2.36-.13s-1.42-.05-2.09-.05h-3.54q-.36,1.64-1.23,5.41t-1.77,7.9c-.6,2.75-1.15,5.3-1.63,7.63s-.79,3.86-.91,4.59c-.3,1.51-.52,2.71-.64,3.58a18.61,18.61,0,0,0-.18,2.5,4,4,0,0,0,1.32,3.45,5.94,5.94,0,0,0,3.68,1,10.93,10.93,0,0,0,2.81-.36Z"/><path d="M328.64,421.24c-.54.85-1.06,1.64-1.54,2.36l-1.54,2.32c-.55.82-1.13,1.71-1.73,2.68s-1.3,2.12-2.09,3.45q-8.72,14-17.17,27.48t-16.44,27.84c-.67-.12-1.36-.22-2.09-.31a19.21,19.21,0,0,0-2.36-.14,16.6,16.6,0,0,0-4,.45q1.72-2.62,4-5.9t4.59-6.54c1.51-2.18,2.92-4.26,4.22-6.22s2.35-3.56,3.14-4.77c-.3-1.52-.65-3.48-1.05-5.91s-.81-5-1.27-7.63-.91-5.34-1.36-8-.86-5.13-1.23-7.31q-.63-3.63-1.31-7.18T288,420.7c.85.12,1.77.22,2.77.32s2.1.13,3.31.13,2.29,0,3.41-.13,2.17-.2,3.13-.32q1,7.91,1.91,15.08t2.18,14.62q.92-1.45,3-5t4.59-8q2.49-4.41,5-8.91c1.63-3,3-5.58,4.09-7.76.48.12,1,.22,1.59.32a12.65,12.65,0,0,0,1.95.13,13.35,13.35,0,0,0,2-.13c.58-.1,1.11-.2,1.59-.32Z"/><path d="M379.68,416.61a12.16,12.16,0,0,0-3.09-7.22q-2.64-2.86-7.81-2.86a10.71,10.71,0,0,0-4,.72,9.54,9.54,0,0,0-3,1.86,7.32,7.32,0,0,0-1.77,2.64,8.3,8.3,0,0,0-.59,3,8.43,8.43,0,0,0,.68,3.32,13.27,13.27,0,0,0,2,3.18,30.54,30.54,0,0,0,3.32,3.36q2,1.77,4.63,4,2.08,1.72,4,3.5a23.19,23.19,0,0,1,3.31,3.81,19.24,19.24,0,0,1,2.27,4.45,15.87,15.87,0,0,1,.87,5.41,19.07,19.07,0,0,1-1.78,8.45,17.53,17.53,0,0,1-4.81,6.08,20.24,20.24,0,0,1-7,3.64,29.63,29.63,0,0,1-8.36,1.18,39,39,0,0,1-9.9-1.18,33.08,33.08,0,0,1-9.08-4.09,37.3,37.3,0,0,0,2.45-5.72,43.53,43.53,0,0,0,1.45-5.36h1.91a12,12,0,0,0,3.72,8.31,13.67,13.67,0,0,0,12.68,2.54,9.87,9.87,0,0,0,3.31-1.77,9.51,9.51,0,0,0,2.36-2.81,7.74,7.74,0,0,0,.91-3.82,7.91,7.91,0,0,0-.77-3.45,15.13,15.13,0,0,0-2.09-3.23,29.59,29.59,0,0,0-3-3.13q-1.73-1.55-3.73-3.18-2.35-1.91-4.4-3.77a27.58,27.58,0,0,1-3.59-3.95,17,17,0,0,1-2.41-4.63,18,18,0,0,1-.86-5.73,19.61,19.61,0,0,1,1.63-8.22,17,17,0,0,1,4.46-6,19.29,19.29,0,0,1,6.67-3.68,26.11,26.11,0,0,1,8.22-1.28,35.23,35.23,0,0,1,9,1.09,28.84,28.84,0,0,1,8.17,3.73,30.49,30.49,0,0,0-2.54,5.86q-.74,2.49-1.36,4.95Z"/><path d="M407.33,395.72q-2.18,6.81-4.13,14.94t-3.77,17.21a21.67,21.67,0,0,1,7.58-6.22,19.52,19.52,0,0,1,8.22-1.86q5.46,0,8.4,2.59a9.08,9.08,0,0,1,3,7.22,26.82,26.82,0,0,1-.41,4.27q-.4,2.44-1,4.95c-.36,1.67-.74,3.27-1.13,4.81s-.71,2.87-.95,4-.67,2.89-1.28,5.76-1.24,6.47-1.9,10.77a28,28,0,0,0-3.23-.18h-6.27c-1.06,0-2.46.06-4.22.18.6-1.82,1.13-3.51,1.59-5.09s.89-3.13,1.32-4.68.86-3.18,1.31-4.9l1.59-6c.18-.73.43-1.67.73-2.82s.59-2.33.86-3.54.5-2.35.68-3.41a14.73,14.73,0,0,0,.28-2.41,4.6,4.6,0,0,0-1.32-3.4,5.37,5.37,0,0,0-3.95-1.32,7.93,7.93,0,0,0-4.23,1.14,13.4,13.4,0,0,0-3.31,2.86,16.71,16.71,0,0,0-2.41,3.81,35.73,35.73,0,0,0-1.59,4.09,59,59,0,0,0-1.86,6.54q-.87,3.72-1.59,7.41t-1.27,6.9c-.37,2.15-.64,3.77-.82,4.86a29.06,29.06,0,0,0-3.18-.18h-6.36a34.1,34.1,0,0,0-3.54.18q1.45-5.73,3-12.31t3-13.31q1.5-6.72,2.91-13.22t2.54-12.17q1.14-5.67,2-10.17t1.32-7.22c1,.12,2,.22,3,.31s2.25.14,3.59.14,2.37-.05,3.49-.14S406.3,395.84,407.33,395.72Z"/><path d="M436.71,453.31a8.44,8.44,0,0,0,1,4.22,4,4,0,0,0,3.77,1.87,5.39,5.39,0,0,0,3.45-1.09,8.66,8.66,0,0,0,2.23-2.73,15.29,15.29,0,0,0,1.32-3.63c.3-1.34.57-2.58.81-3.73l1.37-7q-4.09.63-6.27,1.18A12.35,12.35,0,0,0,440.7,444a7.41,7.41,0,0,0-3.09,4.09A16.77,16.77,0,0,0,436.71,453.31Zm27.52,9.45a13.67,13.67,0,0,1-2.86,1.54,12.64,12.64,0,0,1-4.5.64,10.41,10.41,0,0,1-4-.68,6.86,6.86,0,0,1-2.5-1.73,7.15,7.15,0,0,1-1.32-2.18c-.27-.76-.46-1.38-.59-1.86a13,13,0,0,1-5,5.31,15.65,15.65,0,0,1-7.31,1.5,12,12,0,0,1-8.68-3.09c-2.15-2.06-3.22-4.9-3.22-8.54a14.19,14.19,0,0,1,2.5-8.08,12.9,12.9,0,0,1,7.22-5.18,36.33,36.33,0,0,1,5.18-1.09c2.06-.3,4-.58,5.9-.82,1.4-.18,2.53-.35,3.41-.5a5.16,5.16,0,0,0,2.09-.77,2.89,2.89,0,0,0,1.09-1.59,10.71,10.71,0,0,0,.32-2.95,7.09,7.09,0,0,0-.73-3.41,6.32,6.32,0,0,0-1.86-2.13,6.85,6.85,0,0,0-2.55-1.14,12.6,12.6,0,0,0-2.77-.32,14.06,14.06,0,0,0-5.13.91,19.59,19.59,0,0,0-4.5,2.55h-.45c.12-1.22.21-2.14.27-2.78s.12-1.43.18-2.4a32,32,0,0,1,15.9-4.18,24.14,24.14,0,0,1,5.13.54,13.82,13.82,0,0,1,4.5,1.82,9.7,9.7,0,0,1,3.23,3.41,10.59,10.59,0,0,1,1.22,5.31,24.94,24.94,0,0,1-.41,4.36c-.27,1.58-.53,2.88-.77,3.91l-2.45,11.35c-.49,2.12-.79,3.68-.91,4.68a21.17,21.17,0,0,0-.18,2.41,7.1,7.1,0,0,0,.45,2.36,1.89,1.89,0,0,0,2,1.27,1.54,1.54,0,0,0,.77-.18l.68-.36Z"/><path d="M495,432.51a13.06,13.06,0,0,0-1.73-.91,7.26,7.26,0,0,0-2.9-.46,9.42,9.42,0,0,0-4.68,1.05,9.77,9.77,0,0,0-3,2.59,12.07,12.07,0,0,0-1.82,3.31c-.42,1.18-.76,2.26-1,3.23-.55,1.94-1.18,4.68-1.91,8.22s-1.63,8.4-2.72,14.58a23.83,23.83,0,0,0-3.09-.18h-6.91a22.88,22.88,0,0,0-3,.18q3.09-11.08,5.58-22.21t4.05-21.21c.84.12,1.77.22,2.77.32s2.1.13,3.31.13,2.26,0,3.14-.13,1.74-.2,2.59-.32c-.43,1.69-.82,3.39-1.19,5.08l-1.09,5.09c.37-.73.93-1.71,1.68-2.95a22.3,22.3,0,0,1,2.87-3.68,19,19,0,0,1,4-3.18A9.7,9.7,0,0,1,495,419.7a7.73,7.73,0,0,1,2.18.27,6.44,6.44,0,0,1,1.64.73,25.53,25.53,0,0,0-2.23,5.67,33.65,33.65,0,0,0-.77,5.77Z"/><path d="M538.52,422.15q-1.54,1-3.86,2.77t-5.32,4.41c-.36.36-1,1-2,1.81s-1.94,1.73-3,2.64-2,1.77-2.95,2.59-1.54,1.37-1.91,1.68q1.28,3.36,2.82,7.4t3,7.77c1,2.48,1.91,4.68,2.73,6.58s1.41,3.23,1.77,4v.36a20.86,20.86,0,0,0-2.73-.18h-7.49a28,28,0,0,0-3.23.18l-1.22-4-1.09-3.5c-.4-1.24-.9-2.74-1.5-4.49s-1.45-4.15-2.54-7.18a16.69,16.69,0,0,0-.78-2,.81.81,0,0,0-.77-.41.94.94,0,0,0-.91.63,20,20,0,0,0-.72,2.46q-1.28,5.54-2.09,10.08c-.55,3-1,5.85-1.46,8.45a21.13,21.13,0,0,0-2.77-.18h-7.08a28.79,28.79,0,0,0-3.32.18q3.18-12.54,6-25.07t5.5-25.62c.6-3,1.21-6,1.81-9.18s1.06-6,1.37-8.53c1,.12,2.09.22,3.18.31s2.33.14,3.72.14,2.38-.05,3.32-.14l3-.31q-2.17,8.71-3.95,16.39t-3,13.45q-1.23,5.76-2.59,12.58c0,.54.24.82.73.82a3.75,3.75,0,0,0,1.77-1l2.77-2.27q4.19-3.65,8.27-7.27a93.73,93.73,0,0,0,7.72-7.72c.66.12,1.36.22,2.09.32a20,20,0,0,0,2.45.13,15.09,15.09,0,0,0,2.18-.13c.61-.1,1.21-.2,1.82-.32Z"/><path d="M558.27,431.78c-.12-.55-.32-1.24-.59-2.09a8.39,8.39,0,0,0-4.09-4.72,9.21,9.21,0,0,0-4.41-.91,8.15,8.15,0,0,0-5.49,1.68,5.14,5.14,0,0,0-2,4,4.53,4.53,0,0,0,.46,2.09,5.64,5.64,0,0,0,1.59,1.82,21.92,21.92,0,0,0,3,1.95c1.27.7,2.85,1.53,4.72,2.5a24.4,24.4,0,0,1,6.18,4.72,10.21,10.21,0,0,1,2.54,7.27,13.47,13.47,0,0,1-6,11.67,18.31,18.31,0,0,1-6.13,2.68,29.43,29.43,0,0,1-6.95.82,28.48,28.48,0,0,1-6.27-.68,26.18,26.18,0,0,1-5.9-2.14,32.21,32.21,0,0,0,1.59-4.49,44.93,44.93,0,0,0,.95-4.59h1.73a8.59,8.59,0,0,0,1.22,3.41,9.07,9.07,0,0,0,2.32,2.49,10.72,10.72,0,0,0,6.36,2.09,8.16,8.16,0,0,0,5.4-1.77,5.24,5.24,0,0,0,2.14-4.13,4.88,4.88,0,0,0-2.14-4.18,56.76,56.76,0,0,0-6-3.63c-1.15-.61-2.3-1.26-3.45-2a14.62,14.62,0,0,1-3.09-2.49,11.44,11.44,0,0,1-2.18-3.41,12.44,12.44,0,0,1-.82-4.77,14.78,14.78,0,0,1,4.36-10.36,16.8,16.8,0,0,1,5.45-3.54,19.72,19.72,0,0,1,7.63-1.36,24.16,24.16,0,0,1,7.14.95c2,.64,3.74,1.26,5.13,1.86a21.23,21.23,0,0,0-1.86,5,38.77,38.77,0,0,0-.78,4.18Z"/><path d="M194.5,806.45H507.56c17.43,0,31.57,14.8,31.57,33h0c0,18.25-14.14,33-31.57,33H194.5c-17.43,0-31.57-14.8-31.57-33h0C162.93,821.25,177.07,806.45,194.5,806.45Z" style="fill:#30393e"/><path d="M162.93,796.46h376.2v45.59H162.93V796.46Z" style="fill:#30393e"/><path d="M430.29,508.63H546.05c7.13,0,12.91,6.25,12.91,14v16.35c0,7.7-5.78,13.95-12.91,13.95H430.29c-7.13,0-12.91-6.25-12.91-13.95V522.59C417.38,514.88,423.16,508.63,430.29,508.63Z" style="fill:#6c7d88"/><path d="M430.29,563.47H546.05c7.13,0,12.91,6.25,12.91,13.95v16.35c0,7.71-5.78,14-12.91,14H430.29c-7.13,0-12.91-6.25-12.91-14V577.42C417.38,569.72,423.16,563.47,430.29,563.47Z" style="fill:#6c7d88"/><path d="M430.29,618.31H546.05c7.13,0,12.91,6.24,12.91,14v16.35c0,7.71-5.78,13.95-12.91,13.95H430.29c-7.13,0-12.91-6.24-12.91-13.95V632.26C417.38,624.55,423.16,618.31,430.29,618.31Z" style="fill:#6c7d88"/><path d="M451.09,523.92H452a8.51,8.51,0,0,1,8.5,8.5h0a8.5,8.5,0,0,1-8.5,8.5h-.87a8.5,8.5,0,0,1-8.5-8.5h0A8.51,8.51,0,0,1,451.09,523.92Z" style="fill:#7cffdf;stroke:#fffde9;stroke-linecap:round;stroke-linejoin:round;stroke-width:1.5696370368437655px"/><path d="M451.09,577.59H452a8.5,8.5,0,0,1,8.5,8.5h0a8.51,8.51,0,0,1-8.5,8.5h-.87a8.51,8.51,0,0,1-8.5-8.5h0A8.5,8.5,0,0,1,451.09,577.59Z" style="fill:#7cffdf;stroke:#fffde9;stroke-linecap:round;stroke-linejoin:round;stroke-width:1.5696370368437655px"/><path d="M451.09,631.25H452a8.51,8.51,0,0,1,8.5,8.5h0a8.51,8.51,0,0,1-8.5,8.5h-.87a8.51,8.51,0,0,1-8.5-8.5h0A8.51,8.51,0,0,1,451.09,631.25Z" style="fill:#7cffdf;stroke:#fffde9;stroke-linecap:round;stroke-linejoin:round;stroke-width:1.5696370368437655px"/><path d="M472.84,634.09v-2.35h8v2.35h-2.69v8.79h2.69v2.35h-8v-2.35h2.69v-8.79Z" style="fill:#fffaea"/><path d="M483.51,631.74h2.86l3.76,9.8v-9.8h2.35v13.49h-2.85l-3.78-9.8v9.8h-2.34Z" style="fill:#fffaea"/><path d="M503.62,634.09h-5.74V637h5.22v2.35h-5.22v5.88h-2.66V631.74h8.4Z" style="fill:#fffaea"/><path d="M510.28,633.89a1.55,1.55,0,0,0-1.49,1.09,13.38,13.38,0,0,0,0,7,1.57,1.57,0,0,0,3,0,13.38,13.38,0,0,0,0-7A1.57,1.57,0,0,0,510.28,633.89Zm-4.74,4.61a9.34,9.34,0,0,1,1.2-5.23,4.41,4.41,0,0,1,7.08,0,12,12,0,0,1,0,10.45,4.43,4.43,0,0,1-7.08,0A9.33,9.33,0,0,1,505.54,638.5Z" style="fill:#fffaea"/><path d="M472.25,578.68h3.47l1.76,6.46,1.74-6.46h3.49V593.4h-2.5V581.61l-1.56,6.44h-2.32l-1.58-6.44V593.4h-2.5Z" style="fill:#fffaea"/><path d="M485.25,581.25v-2.57H494v2.57h-2.92v9.59H494v2.56h-8.76v-2.56h2.93v-9.59Z" style="fill:#fffaea"/><path d="M496.88,578.68H500l4.1,10.7v-10.7h2.56V593.4h-3.1l-4.12-10.69V593.4h-2.57Z" style="fill:#fffaea"/><path d="M515.39,593.4h-2.9V581.23h-3.74v-2.55h10.38v2.55h-3.74Z" style="fill:#fffaea"/><path d="M154.79,512.54H262.13a7.9,7.9,0,0,1,7.9,7.9v24.7a7.9,7.9,0,0,1-7.9,7.9H154.79a7.9,7.9,0,0,1-7.9-7.9v-24.7A7.9,7.9,0,0,1,154.79,512.54Z" style="fill:#8d8d8d"/><path d="M154.89,514.25H262a3,3,0,0,1,3,3v31.6a3,3,0,0,1-3,3H154.89a3,3,0,0,1-3-3v-31.6A3,3,0,0,1,154.89,514.25Z" style="fill:#fffaea"/><path d="M287.85,520h3.09l-11,23.5h-3.08Z" style="fill:#fffaea"/><path d="M295.21,520h11.33v3.63h-8v3.87a5.09,5.09,0,0,1,1.07-.29,8,8,0,0,1,1.22-.09,6.71,6.71,0,0,1,5,2,6.89,6.89,0,0,1,1.93,5.08,6.65,6.65,0,0,1-2.09,5.19,8.1,8.1,0,0,1-5.69,1.9,16.57,16.57,0,0,1-2.7-.22,19.91,19.91,0,0,1-2.8-.67v-3.72a10.62,10.62,0,0,0,2.38.86,10.79,10.79,0,0,0,2.45.29,5.08,5.08,0,0,0,3.31-.93,3.28,3.28,0,0,0,1.13-2.7,3.31,3.31,0,0,0-1.12-2.62,4.36,4.36,0,0,0-3-1,9.36,9.36,0,0,0-2.22.27,11.43,11.43,0,0,0-2.24.81Z" style="fill:#fffaea"/><path d="M311.45,530.42q0-5.42,1.72-8.12a6.3,6.3,0,0,1,10.34,0q1.73,2.69,1.72,8.12t-1.72,8.12a6.31,6.31,0,0,1-10.34,0Q311.44,535.83,311.45,530.42Zm4.8,5.57c.44,1.17,1.13,1.75,2.08,1.75s1.66-.58,2.1-1.75a17,17,0,0,0,.66-5.57c0-1,0-1.83-.1-2.59l-4.88,7.76Zm2.08-12.9c-.95,0-1.64.58-2.08,1.75a17.4,17.4,0,0,0-.65,5.58c0,.8,0,1.52,0,2.17l4.81-7.67,0-.08C320,523.67,319.29,523.09,318.33,523.09Z" style="fill:#fffaea"/><path d="M328.67,530.42q0-5.42,1.71-8.12a6.31,6.31,0,0,1,10.35,0q1.72,2.69,1.72,8.12t-1.72,8.12a6.32,6.32,0,0,1-10.35,0Q328.67,535.83,328.67,530.42Zm4.8,5.57c.44,1.17,1.13,1.75,2.08,1.75s1.66-.58,2.1-1.75a17.37,17.37,0,0,0,.65-5.57c0-1,0-1.83-.09-2.59l-4.88,7.76C333.38,535.74,333.42,535.87,333.47,536Zm2.08-12.9c-.95,0-1.64.58-2.08,1.75a17.12,17.12,0,0,0-.65,5.58c0,.8,0,1.52.05,2.17l4.8-7.67a.24.24,0,0,0,0-.08C337.21,523.67,336.51,523.09,335.55,523.09Z" style="fill:#fffaea"/><path d="M345.88,530.42c0-3.61.58-6.32,1.72-8.12a6.31,6.31,0,0,1,10.35,0q1.73,2.69,1.72,8.12T358,538.54a6.32,6.32,0,0,1-10.35,0C346.46,536.73,345.88,534,345.88,530.42Zm4.81,5.57c.44,1.17,1.13,1.75,2.08,1.75s1.66-.58,2.09-1.75a17,17,0,0,0,.66-5.57c0-1,0-1.83-.1-2.59l-4.87,7.76C350.6,535.74,350.64,535.87,350.69,536Zm2.08-12.9c-.95,0-1.64.58-2.08,1.75a17.06,17.06,0,0,0-.66,5.58c0,.8,0,1.52.06,2.17l4.8-7.67,0-.08C354.43,523.67,353.73,523.09,352.77,523.09Z" style="fill:#fffaea"/><path d="M182.49,527.08l-5.26,8.23h5.26Zm-.36-4.59h4.31v12.82h2.29v3.54h-2.29v4.49h-3.95v-4.49h-8.27v-4Z" style="fill:#6c7d88"/><path d="M191.9,522.49h13.18v2.92L198,543.34h-4.2l6.78-17.21h-8.7Z" style="fill:#6c7d88"/><path d="M216.21,532.9a2.36,2.36,0,0,0-2,1,5.9,5.9,0,0,0,0,5.61,2.36,2.36,0,0,0,2,1,2.39,2.39,0,0,0,2.06-1,5.8,5.8,0,0,0,0-5.6A2.38,2.38,0,0,0,216.21,532.9Zm5.41-9.92v3.75a10.77,10.77,0,0,0-2.12-1,6.48,6.48,0,0,0-1.94-.31,4,4,0,0,0-3.4,1.5,7.37,7.37,0,0,0-1.23,4.43,4.21,4.21,0,0,1,1.68-1.36,5.91,5.91,0,0,1,2.4-.45,5.45,5.45,0,0,1,4.36,1.78,7.52,7.52,0,0,1,1.53,5,7.88,7.88,0,0,1-1.72,5.43,6.19,6.19,0,0,1-4.85,1.93c-2.54,0-4.39-.86-5.54-2.56s-1.73-4.45-1.73-8.25c0-3.61.71-6.32,2.11-8.12a7.55,7.55,0,0,1,6.33-2.7,10.27,10.27,0,0,1,2,.21A12.45,12.45,0,0,1,221.62,523Z" style="fill:#6c7d88"/><path d="M230.51,539.71h8.79v3.63H226.06v-3.52l2.23-2.37q4-4.23,4.83-5.21a10.15,10.15,0,0,0,1.51-2.13,4.06,4.06,0,0,0,.46-1.83,2.76,2.76,0,0,0-.84-2.16,3.44,3.44,0,0,0-2.4-.76,8.07,8.07,0,0,0-2.48.44,15.32,15.32,0,0,0-2.86,1.28v-3.85a21.5,21.5,0,0,1,2.92-.83,14.1,14.1,0,0,1,2.75-.28,8,8,0,0,1,5.2,1.54,5.14,5.14,0,0,1,1.89,4.21,6.53,6.53,0,0,1-.41,2.31,10.09,10.09,0,0,1-1.42,2.38c-.49.64-1.85,2.06-4.06,4.28Z" style="fill:#6c7d88"/><path d="M477.44,538.19l-.23,0H477a4.33,4.33,0,0,1-3.84-1.93,13.08,13.08,0,0,1,0-11.41,4.84,4.84,0,0,1,7.73,0,10.26,10.26,0,0,1,1.31,5.71,12.88,12.88,0,0,1-.63,4.34,4.62,4.62,0,0,1-1.8,2.5l1.83,1.79-2,1.48Zm-.39-12.6a1.72,1.72,0,0,0-1.63,1.19,14.67,14.67,0,0,0,0,7.67,1.72,1.72,0,0,0,3.27,0,14.67,14.67,0,0,0,0-7.67A1.73,1.73,0,0,0,477.05,525.59Z" style="fill:#fffaea"/><path d="M484.3,523.25h3.13l4.1,10.69V523.25h2.56V538H491l-4.12-10.69V538H484.3Z" style="fill:#fffaea"/><path d="M502.82,538h-2.91V525.79h-3.74v-2.54h10.38v2.54h-3.73Z" style="fill:#fffaea"/><path d="M507.52,523.25h3.13l2.86,5.91,2.87-5.91h3.13L515,532.17V538h-2.91v-5.79Z" style="fill:#fffaea"/></g></svg>