<svg id="Layer_1" data-name="Layer 1" xmlns="http://www.w3.org/2000/svg" xmlns:xlink="http://www.w3.org/1999/xlink" viewBox="0 0 360.32 611.85"><defs><linearGradient id="linear-gradient" x1="-26.31" y1="172.06" x2="401.94" y2="471.92" gradientUnits="userSpaceOnUse"><stop offset="0.03" stop-color="#6bdfff"/><stop offset="0.19" stop-color="#1ed0ff"/><stop offset="1" stop-color="#0097c4"/></linearGradient><linearGradient id="linear-gradient-2" x1="1961.95" y1="254.37" x2="2714.24" y2="800.94" gradientTransform="translate(-18.2 152.99) scale(0.09 0.09)" gradientUnits="userSpaceOnUse"><stop offset="0" stop-color="#fff"/><stop offset="1" stop-color="#d9d9d9"/></linearGradient></defs><path d="M33.93,565.19a9.27,9.27,0,0,0-2.31.1v15.65l.27,17.71h11.6L43.66,581H323.07l.17,17.61h11.6s.27-17.61.27-17.71V565.29s-1.07-.1-2.39-.1Z" style="fill:#2a2a2a"/><path d="M24.7,472.54H285.1v6.1H24.7Z" style="fill:#b6b6b6;fill-opacity:0"/><path d="M311.82,120.45a24.1,24.1,0,1,1,24.1,24A24,24,0,0,1,311.82,120.45Z" style="fill:#2a2a2a;fill-opacity:0"/><path d="M336,100.15l-.4,27.4,12.4-7.2Z" style="fill:#b3b3b3;fill-opacity:0"/><path d="M323,121.65l12.5,7.4,12.5-7.5-12.8,18.9Z" style="fill:#8c8c8c;fill-opacity:0"/><path d="M335.52,129.05l12.5-7.5-12.8,18.9Z" style="fill:#b3b3b3;fill-opacity:0"/><path d="M336,100.15h0l11.9,20.2Z" style="fill:#b3b3b3;fill-opacity:0"/><path d="M335.92,100.05,323,120.65l12.5,6.9,12.4-7.3-12.4,7.2.4-27.4Z" style="fill:#8c8c8c;fill-opacity:0"/><path d="M314.42,203.45h41.8c2.3,0,4.1,1.4,4.1,3.2v44c0,1.8-1.9,3.2-4.1,3.2h-41.8c-2.3,0-4.1-1.4-4.1-3.2v-44C310.22,204.85,312.12,203.45,314.42,203.45Z" style="fill:#a6dfdd;fill-opacity:0"/><path d="M109.41,32.85c-44.18,0-80,41.28-80,92.17V563.1a2.57,2.57,0,0,0,2.36,2.75H335a2.59,2.59,0,0,0,2.39-2.75V125c0-50.89-35.82-92.17-80-92.17Z" style="stroke:#fdf9e3;stroke-miterlimit:10;stroke-width:2px;fill:url(#linear-gradient)"/><path d="M266.76,281.59h6.54v283.6h-6.54Z" style="fill:#fdf9e3"/><path d="M116.1,46.6a72.88,72.88,0,0,0-72.72,73V273.49a72.2,72.2,0,0,0,.48,8.1h279a74.65,74.65,0,0,0,.47-8.1V119.64a72.88,72.88,0,0,0-72.71-73Z" style="fill:#fedf80;stroke:#fdf9e3;stroke-linecap:round;stroke-linejoin:round;stroke-width:3px"/><path d="M180.74,146s-4.28,14.85,12.62,23.59c20.06,10.83,21.41,12.27,30.1,15,9.15,1.8,14-2.06,14.45-3.45s1.33-4.73-6.08-11.33-4.45-4.19-10.9-6.56c-5.63-2.58-8.35-4.59-29.36-7.12C189.39,148.45,180.74,146,180.74,146Z" style="fill:#f99;stroke:#606060;stroke-linecap:round;stroke-linejoin:round;stroke-width:0.5774761599948804px"/><path d="M188.48,164.88c4.75-3.33,3.91-5.34,2.69,2.84,7-3,3.71-4.39,4,2.85,6.31-2.52,3.4-6.86,3.77,2.24,4.89-2.88,4.88-5.68,4.07,1.64.2.68,3.95-3.37,4.48-3.88a25.57,25.57,0,0,1-.3,5.6c1.36-1.4,2.92-3.27,4.3-3.89-1.62,5.84-4.26,7.31,2.9,1.14a12.92,12.92,0,0,0-1.17,5.06c3.09-1.7,6.26-6,4.5-2.55-3.94,6.88.94,1.91,3.59.27-.27.83-1.19,2.87-1.55,4.15.92-.5,3-2.35,4.76-3.44-.51,1.57-1.64,3.51-2.09,4.61,1.8-1.12,3.37-2.74,5.19-4-1.43,2.14-1.75,4.34-2.14,4.92a75.32,75.32,0,0,0,5.94-5.09c-2.33,6.87-1.23,5.59,2.72-.45,0,0-1.74,4.94-1,4.8,2.49-1.38,3.89-7.32,3.92-2.17,2.46-2.31.91-2,1.11-2.25-2,18.12-50.89,7.38-50.46-8.34" style="fill:#fffcf0;stroke:#606060;stroke-linecap:round;stroke-linejoin:round;stroke-width:0.5774761599948804px"/><path d="M241.44,170.57c-2.54-.28-6.46,2.74-9.16,2.84,1.24-1.75,3.51-5.17,0-3.59-4.09,1.08-5.58,4.59-3.7-1.64.48-2.21-3.92,2-6,3.29a45.84,45.84,0,0,1,.59-5.59c-.73.52-3.82,3.75-6.3,4.9.16-1.09,3.71-6.88.81-5-6.19,4.73-5,5.51-3.9-1.8-2.39.74-3.26,4.45-5.93,5,.37-2.13,1.32-4.4.77-6.7-.09-2.1-4.32,5.24-5.57,5.65.16-1.1,1.8-6.48,1.8-8.72-.78,1.39-4.78,4.88-5.93,6-.38-1.38.25-4-.19-6.2-1,1.07.86-1.12-5.43,4.56-.27-8.82,3-7.33-6-.79,2.63-11.56,3.68-11.23,14.81-10.14,8.61,2,18.58.94,25.67,6.46" style="fill:#fffcf0;stroke:#606060;stroke-linecap:round;stroke-linejoin:round;stroke-width:0.5774761599948804px"/><path d="M180.33,208.82c23.64,8.45,43.8,32,43.8,32s2,2,3.81.55c1.72-1.24,2.44-2.65,2.23-3.7-.17-4.48-7.12-34.65-25.5-49.9C192.2,180.59,175.46,195.57,180.33,208.82Z" style="fill:#34cffa;stroke:#606060;stroke-linecap:round;stroke-linejoin:round;stroke-width:0.5774761599948804px"/><path d="M132.4,145.25c6.84,0,43.75-17.47,35.93-28.22s-46.58-32-67.26-14.77C113.84,106.87,134.23,125.09,132.4,145.25Z" style="fill:#34cffa;stroke:#606060;stroke-linecap:round;stroke-linejoin:round;stroke-width:0.5774761599948804px"/><path d="M254.44,169c-4.83,1.92-7.18,3.18-11.15,2.18-1.89-.53-26.54-7.44-35.45-9.84-2.89-.77-6.18-4.05-11.14-3.29-9-1.83-4.73-1.88-13.5-10,4,13.7,6.23,19.84,11.56,23.65,4.05,2.76,23.48,10.55,32.72,11.38,11.49.54,12.32-6.43,6.15-11.69-7.6-6,17,6.68-3.67,16.88-11.85,4.61-23,2.7-23.61,3.39-11.84,4.61-30.8,34.92-30.8,34.92-5.7,18-10.62,21.12-1.56,54.68-4.71,0-29.22.82-47.31-.05,0,0-39.81-78.19-6.3-131.32,2.19-3.66,10.66-16.46,20.22-22.93a83.11,83.11,0,0,1,80-12.76c14.4,5.15,21.43,14,29.73,20.59,7.19,5.95,13.92,12,17.84,17C272.78,157.34,267.76,160.22,254.44,169Z" style="fill:#34cffa;stroke:#606060;stroke-linecap:round;stroke-linejoin:round;stroke-width:0.5774761599948804px"/><path d="M254.77,169c-4.82,1.92-6.12,3.42-11.15,2.18-1.88-.53-27-6.12-35.92-8.53C203,161.28,203,160.14,197,158c-9-1.83-4.58-1-13.36-9.15,4,13.7,5.76,19,11.09,22.8,4.05,2.76,23.81,10.55,33.05,11.38,11.49.54,12.32-6.43,6.14-11.69-7.6-5.95,17.06,6.68-3.66,16.88-11.85,4.61-23,2.7-23.62,3.39-11.83,4.61-24.91,24.91-29.74,35.53-2.94,6.46-12,20.51-2.94,54.07-9.36,0-26.24-.05-26.24-.05s-8.55-22-6.83-44.78c3.66-25.62,25-47.5,29.63-51.34,5.18-5.56,12-7.82,9.7-17.34-6.71-27.33-8.25-32.56,14.29-21.76,6.46,2.31,27.13-3.81,39.18-2,15.49,2.26,26.94,9.09,27.31.33a42.78,42.78,0,0,1,7.51,7.56C273.11,157.34,268.09,160.22,254.77,169Z" style="stroke:#606060;stroke-linecap:round;stroke-linejoin:round;stroke-width:0.5774761599948804px;fill:url(#linear-gradient-2)"/><path d="M232.57,169.53c1.61-.23,1.72-.5,2.53-.36a41.85,41.85,0,0,0,.15,4.91,9.79,9.79,0,0,0,2.5-3.23c.26,1-2.64,7.83-.44,5.62,3.1-5.39.91,2.94-.21,3,0,0-.49-1.49-.67-1.88a65.66,65.66,0,0,0-4.9-7.35" style="fill:#fffcf0;stroke:#606060;stroke-linecap:round;stroke-linejoin:round;stroke-width:0.5774761599948804px"/><path d="M156.3,154.34c-.11-.4.8,3.95,1.16,5,2.54,7.25,4.6,10.27,10.58,15.09-4-3.75-6.07-10.65-7.55-16.35-1-3.71-.68-8.82,1.56-1.38,2.28,5.89,6.75,10.68,10.93,15.14a25,25,0,0,1-6.59-13.67c-.87-4.44-1.35-9.95,1-13.89.38,7.75,2.38,15.67,8,21.32.48.57,1.08,1.33,1.54,1.8-6.94-8.46-6.45-20.64-8.35-30.49-5.75,6.29-6.85,13.64-3.72,21.49-1.13-2.82-4.1-9.28-4-16-.33-4.05-2,3.32-2.15,4.71a32.38,32.38,0,0,0-.14,8.79,39.55,39.55,0,0,0,.66,4.41c-1.8-4.59-1.76-7.8-2.57-11.7,0-.4,0-.83,0-1.22-.54,2.91-.93,4.13-.29,7" style="fill:#de9f90;stroke:#606060;stroke-linecap:round;stroke-linejoin:round;stroke-width:0.5774761599948804px"/><path d="M216,281.35s3.43,3.08,6.89-13a2.75,2.75,0,0,0,0-1.07c-2.8-13.17,5.84-23.4,7.49-23.82s-7.54,12.77-2.16,23.23c2,3,5.2,5.1,7.94,7-1.07.76-5,.52-7,.35a1.46,1.46,0,0,0-1.53,1.25l-1.66,6C226.14,281.64,216,281.35,216,281.35Z" style="fill:#34cffa;stroke:#606060;stroke-linecap:round;stroke-linejoin:round;stroke-width:0.5774761599948804px"/><path d="M90.72,248.57c-1.12-.36.35-6.16.7-8,3.1-15.78,8.94-40.51,32.06-55.64,25.75-16.85,24,10.42,35.45,14.06C128.57,211.65,106.2,236.59,96.4,245,94.22,246.83,91.68,249.21,90.72,248.57Z" style="fill:#34cffa;stroke:#606060;stroke-linecap:round;stroke-linejoin:round;stroke-width:0.5774761599948804px"/><path d="M259.19,152.18a13.34,13.34,0,0,0,3.3,1.65C264,153.25,260.55,151.77,259.19,152.18Z" style="fill:#ffc4be;stroke:#606060;stroke-linecap:round;stroke-linejoin:round;stroke-width:0.5774761599948804px"/><path d="M236.28,149.82c.58,1.2-.46,2.66,5.63,3.15C236.28,149.82,233.58,148.56,236.28,149.82Z" style="fill:#ffc4be;stroke:#606060;stroke-linecap:round;stroke-linejoin:round;stroke-width:0.5774761599948804px"/><path d="M193.28,128.34c-2.17.6,10.65,2.2,9.82,5.9-1.6-1.8-5.34-2.25-7.57-2.56-9.56-.66-4.28-1.07-.8,1.88.92,1.75,2.89,4.11,8.77,2.93,1.87-.23,3.64,2.18,4.6,2.8,5.48-.65,7.86-.58.39-1-1.42-.36-3.76-2.6-4.67-3.53a8.28,8.28,0,0,0-.92-3.21C200.68,130.65,195.81,127.84,193.28,128.34Z" style="fill:#e8806d;stroke:#606060;stroke-linecap:round;stroke-linejoin:round;stroke-width:0.5774761599948804px"/><path d="M239.2,129.79c-1.08.79-2.52,2.14-2,3.14a14.91,14.91,0,0,0,5.26,5.27c3.74,2.43,5.23,2.27,5.23,2.27s-4.14-2.13-4.49-3-.12-2.85-.91-3.36c-1.24-.8-3.29-.6-4.27-1.13A7.83,7.83,0,0,1,239.2,129.79Z" style="fill:#e8806d;stroke:#606060;stroke-linecap:round;stroke-linejoin:round;stroke-width:0.5774761599948804px"/><path d="M200.32,134.39a1.34,1.34,0,1,1,1.34,1.37A1.36,1.36,0,0,1,200.32,134.39Z" style="fill:#f2ff00;stroke:#606060;stroke-linecap:round;stroke-linejoin:round;stroke-width:0.5774761599948804px"/><path d="M242.77,135.75s.31,1.14-.44,1.14a1.31,1.31,0,0,1-1.33-1.37c0-.57.06-1.27.8-1.27S242.77,135.75,242.77,135.75Z" style="fill:#f2ff00;stroke:#606060;stroke-linecap:round;stroke-linejoin:round;stroke-width:0.5774761599948804px"/><path d="M242.83,171c-2.43-.36-7.7,1.64-10.55,2.44,1.23-1.75,3.5-5.17,0-3.59-4.09,1.08-6.37,6.24-3.85-2.1,2.61.62,9.8,2.11,14.43,3.28" style="fill:#fffcf0;stroke:#606060;stroke-linecap:round;stroke-linejoin:round;stroke-width:0.5774761599948804px"/><path d="M231.51,185.05c-5.48,5.52-18.31,5.16-26.06,4.81-10.09-1-20.35-1.47-28.53-6.89,1.39,2.49,10.38,8.69,16.76,9.61,2.11,1,6.41-.53,4.91.55-7.6,5.43-15.77,16.37-17.08,18.62-9.82,16.78-20.55,32.85-10.87,69.47-7.39,0-23,.35-32.56.35-5.37-11.26-8.12-21.42-8-40.39.06-10.17,3.56-25.82,8.2-31,1.39-1.55,16.3-9.09,17.67-9.92,3-1.8,0,.32,3-1.26-3-.48-7.66-6.58-10.9-12.27-4.7-8.22,18-31.69,28-37.85,1.06,11,4,23.33,15.09,29.1C207.84,186.66,221.18,185.94,231.51,185.05Z" style="stroke:#606060;stroke-linecap:round;stroke-linejoin:round;stroke-width:0.5774761599948804px;opacity:0.13510000705719;isolation:isolate"/><path d="M252.41,281.59h10.06v283.6H252.41Z" style="fill:#fdf9e3"/><path d="M95.09,512.17H271.64c9.83,0,17.8,8.8,17.8,19.65h0c0,10.85-8,19.65-17.8,19.65H95.09c-9.83,0-17.8-8.8-17.8-19.65h0C77.29,521,85.26,512.17,95.09,512.17Z" style="fill:#30393e"/><path d="M77.29,506.24H289.44v27.09H77.29V506.24Z" style="fill:#30393e"/><path d="M189.39,544.23l17.08-14.07-34.06.05" style="fill:#6c7d88"/><path d="M151.27,315h.4a3.89,3.89,0,0,1,3.92,3.85h0a3.89,3.89,0,0,1-3.92,3.85h-.4a3.88,3.88,0,0,1-3.92-3.85h0A3.88,3.88,0,0,1,151.27,315Z" style="fill:#80ffe0;stroke:#fffde9;stroke-linecap:round;stroke-linejoin:round;stroke-width:0.933062016963959px"/><g style="isolation:isolate"><path d="M158.94,315.71h1.78a1.21,1.21,0,0,1,.68.23,1.28,1.28,0,0,1,.48.53l.9,1.8a2.33,2.33,0,0,1,.25,1,2.22,2.22,0,0,1-.27,1l-.9,1.78a1.37,1.37,0,0,1-.49.55,1.32,1.32,0,0,1-.72.21h-1.72a.42.42,0,0,1-.32-.14.43.43,0,0,1-.14-.31.45.45,0,0,1,.14-.33.41.41,0,0,1,.32-.13h.47v-5.32h-.46a.41.41,0,0,1-.32-.13.45.45,0,0,1-.14-.33.45.45,0,0,1,.14-.32A.41.41,0,0,1,158.94,315.71Zm1.36.91V322h.32a.47.47,0,0,0,.45-.29l.89-1.77a1.69,1.69,0,0,0,.17-.59,1.25,1.25,0,0,0-.14-.56l-.92-1.83a.5.5,0,0,0-.47-.28Z" style="fill:#80ffe0"/><path d="M164.73,315.71h3.66a.43.43,0,0,1,.31.13.45.45,0,0,1,.14.32.45.45,0,0,1-.14.33.42.42,0,0,1-.31.13H167V322h1.37a.44.44,0,0,1,.32.13.46.46,0,0,1,.13.32.45.45,0,0,1-.14.32.46.46,0,0,1-.31.13h-3.66a.44.44,0,0,1-.45-.45.46.46,0,0,1,.13-.32.44.44,0,0,1,.32-.13h1.39v-5.33h-1.39a.44.44,0,0,1-.32-.13.48.48,0,0,1-.13-.32.49.49,0,0,1,.13-.33A.44.44,0,0,1,164.73,315.71Z" style="fill:#80ffe0"/><path d="M171.11,315.71h2.35a1.19,1.19,0,0,1,.81.36,1.16,1.16,0,0,1,.39.88.45.45,0,0,1-.14.33.42.42,0,0,1-.31.13.37.37,0,0,1-.31-.1,1.22,1.22,0,0,1-.17-.39.33.33,0,0,0-.34-.29h-2.24c-.1,0-.16,0-.16.11a.25.25,0,0,0,.07.15l3.35,4.28a1.07,1.07,0,0,1,.25.66,1,1,0,0,1-.3.71.86.86,0,0,1-.65.31h-2.43a1.09,1.09,0,0,1-.84-.37,1.14,1.14,0,0,1-.36-.81c0-.33.16-.5.47-.5a.4.4,0,0,1,.31.13.42.42,0,0,1,.13.31.37.37,0,0,0,.1.24.37.37,0,0,0,.25.1h2.25c.09,0,.14,0,.14-.12a.27.27,0,0,0-.06-.14l-3.35-4.28a1,1,0,0,1-.24-.66,1,1,0,0,1,.3-.73A1,1,0,0,1,171.11,315.71Z" style="fill:#80ffe0"/><path d="M178.36,322H180a.42.42,0,0,1,.32.13.4.4,0,0,1,.14.32.41.41,0,0,1-.14.32.46.46,0,0,1-.32.13H178.3a1.27,1.27,0,0,1-.66-.21,1.17,1.17,0,0,1-.48-.45l-1-2a2,2,0,0,1-.21-.89,1.7,1.7,0,0,1,.2-.87l1-2a1.45,1.45,0,0,1,.47-.49,1.09,1.09,0,0,1,.61-.21H180a.42.42,0,0,1,.32.13.44.44,0,0,1,.13.32.44.44,0,0,1-.13.33.42.42,0,0,1-.32.13H178.3a.39.39,0,0,0-.34.26l-1,1.86a1.25,1.25,0,0,0-.11.53,1.09,1.09,0,0,0,.13.55l.95,1.84A.46.46,0,0,0,178.36,322Z" style="fill:#80ffe0"/><path d="M185,316.37l1,2a1.91,1.91,0,0,1,.21.89,1.94,1.94,0,0,1-.21.89l-1,2a1.09,1.09,0,0,1-1.07.66,1.13,1.13,0,0,1-.65-.19,1.28,1.28,0,0,1-.43-.47l-1-2a2,2,0,0,1-.2-.89,2,2,0,0,1,.2-.89l1-2a1.14,1.14,0,0,1,1.08-.66A1.1,1.1,0,0,1,185,316.37Zm-1.37.45-.93,1.9a1.3,1.3,0,0,0-.13.56,1.25,1.25,0,0,0,.13.57l1,1.92a.27.27,0,0,0,.27.18.29.29,0,0,0,.26-.18l1-1.92a1.31,1.31,0,0,0,.13-.57,1.21,1.21,0,0,0-.13-.56l-1-1.9a.29.29,0,0,0-.28-.21A.33.33,0,0,0,183.65,316.82Z" style="fill:#80ffe0"/><path d="M192,316.17v6.68h-1.21l-2.43-5.54v5.09a.44.44,0,0,1-.13.32.46.46,0,0,1-.32.13.48.48,0,0,1-.32-.13.44.44,0,0,1-.13-.32v-6.69h1.19l2.44,5.53v-5.07a.48.48,0,0,1,.46-.46.41.41,0,0,1,.32.13A.44.44,0,0,1,192,316.17Z" style="fill:#80ffe0"/><path d="M197.82,316.17v6.68h-1.21l-2.43-5.54v5.09a.44.44,0,0,1-.13.32.48.48,0,0,1-.32.13.46.46,0,0,1-.32-.13.44.44,0,0,1-.13-.32v-6.69h1.19l2.44,5.53v-5.07a.41.41,0,0,1,.14-.32.43.43,0,0,1,.32-.14.42.42,0,0,1,.32.13A.44.44,0,0,1,197.82,316.17Z" style="fill:#80ffe0"/><path d="M203.17,316.62H200v2.2h1.37a.44.44,0,0,1,.45.45.44.44,0,0,1-.13.33.42.42,0,0,1-.32.13H200V322h3.2a.44.44,0,0,1,.32.13.46.46,0,0,1,.13.32.45.45,0,0,1-.14.32.48.48,0,0,1-.32.13h-4.1v-7.14h4.1a.45.45,0,0,1,.32.78A.44.44,0,0,1,203.17,316.62Z" style="fill:#80ffe0"/><path d="M207.35,322H209a.44.44,0,0,1,.33.13.43.43,0,0,1,.14.32.45.45,0,0,1-.14.32.49.49,0,0,1-.33.13h-1.68a1.28,1.28,0,0,1-.67-.21,1.17,1.17,0,0,1-.48-.45l-1-2a2,2,0,0,1-.21-.89,1.8,1.8,0,0,1,.2-.87l1-2a1.45,1.45,0,0,1,.47-.49,1.12,1.12,0,0,1,.61-.21H209a.44.44,0,0,1,.32.13.48.48,0,0,1,.13.32.49.49,0,0,1-.13.33.44.44,0,0,1-.32.13h-1.72a.41.41,0,0,0-.35.26l-1,1.86a1.12,1.12,0,0,0-.12.53,1.09,1.09,0,0,0,.13.55l1,1.84A.45.45,0,0,0,207.35,322Z" style="fill:#80ffe0"/><path d="M210.66,316.94v-1.22h4.55V317a.42.42,0,0,1-.13.32.46.46,0,0,1-.64,0,.45.45,0,0,1-.14-.32v-.33h-.91v5.78a.45.45,0,0,1-.14.32.46.46,0,0,1-.32.13.48.48,0,0,1-.32-.13.45.45,0,0,1-.14-.32v-5.78h-.91v.32a.42.42,0,0,1-.13.32.44.44,0,0,1-.32.13.44.44,0,0,1-.45-.45Z" style="fill:#80ffe0"/><path d="M220.56,316.62h-3.19v2.2h1.37a.44.44,0,0,1,.45.45.44.44,0,0,1-.13.33.42.42,0,0,1-.32.13h-1.37V322h3.2a.44.44,0,0,1,.32.13.42.42,0,0,1,.13.32.45.45,0,0,1-.14.32.48.48,0,0,1-.32.13h-4.09v-7.14h4.09a.45.45,0,0,1,.32.78A.44.44,0,0,1,220.56,316.62Z" style="fill:#80ffe0"/><path d="M222.7,315.71h1.79a1.21,1.21,0,0,1,.68.23,1.28,1.28,0,0,1,.48.53l.89,1.8a2.1,2.1,0,0,1,0,2l-.9,1.78a1.37,1.37,0,0,1-.49.55,1.32,1.32,0,0,1-.72.21h-1.73a.45.45,0,0,1-.32-.14.46.46,0,0,1-.13-.31.49.49,0,0,1,.13-.33.44.44,0,0,1,.32-.13h.48v-5.32h-.47a.44.44,0,0,1-.32-.13.49.49,0,0,1-.13-.33.48.48,0,0,1,.13-.32A.44.44,0,0,1,222.7,315.71Zm1.37.91V322h.31a.47.47,0,0,0,.45-.29l.89-1.77a1.34,1.34,0,0,0,.17-.59,1.24,1.24,0,0,0-.13-.56l-.92-1.83a.5.5,0,0,0-.48-.28Z" style="fill:#80ffe0"/></g><path d="M141.55,334.43h91.53c3.74,0,6.78,1.79,6.78,4v12.11c0,2.2-3,4-6.78,4H141.55c-3.75,0-6.79-1.78-6.79-4V338.42C134.76,336.22,137.8,334.43,141.55,334.43Z" style="fill:#4a6a77"/><g style="isolation:isolate"><path d="M175.85,341h3.66a.43.43,0,0,1,.31.13.44.44,0,0,1,0,.64.43.43,0,0,1-.31.14h-1.37v5.32h1.37a.44.44,0,0,1,.45.45.43.43,0,0,1-.14.32.42.42,0,0,1-.31.13h-3.66a.44.44,0,0,1-.32-.13.46.46,0,0,1-.13-.32.44.44,0,0,1,.45-.45h1.39v-5.32h-1.39a.45.45,0,0,1-.32-.14.46.46,0,0,1-.13-.31.49.49,0,0,1,.13-.33A.44.44,0,0,1,175.85,341Z" style="fill:#90f4ec"/><path d="M186.6,341.48v6.67h-1.21L183,342.61v5.09a.42.42,0,0,1-.13.32.44.44,0,0,1-.32.13.44.44,0,0,1-.45-.45V341h1.19l2.44,5.53v-5.07a.44.44,0,0,1,.13-.33.46.46,0,0,1,.33-.13.44.44,0,0,1,.32.13A.44.44,0,0,1,186.6,341.48Z" style="fill:#90f4ec"/><path d="M188.7,347.7V341h4.09a.45.45,0,0,1,.32.77.43.43,0,0,1-.32.14H189.6v1.42h2.29a.44.44,0,0,1,.45.45.44.44,0,0,1-.13.32.42.42,0,0,1-.32.13H189.6v3.45a.44.44,0,0,1-.45.45.44.44,0,0,1-.32-.13A.42.42,0,0,1,188.7,347.7Z" style="fill:#90f4ec"/><path d="M198.69,341.68l1,2a2,2,0,0,1,0,1.79l-1,2a1.11,1.11,0,0,1-1.08.66A1.22,1.22,0,0,1,197,348a1.31,1.31,0,0,1-.43-.48l-1-2a2,2,0,0,1-.2-.89,2,2,0,0,1,.2-.9l1-2a1.14,1.14,0,0,1,1.08-.66A1.12,1.12,0,0,1,198.69,341.68Zm-1.38.45-.93,1.9a1.27,1.27,0,0,0-.13.56,1.24,1.24,0,0,0,.13.56l1,1.92a.27.27,0,0,0,.27.18.28.28,0,0,0,.26-.18l1-1.92a1.32,1.32,0,0,0,.14-.56,1.19,1.19,0,0,0-.14-.56l-.94-1.9a.31.31,0,0,0-.29-.21A.33.33,0,0,0,197.31,342.13Z" style="fill:#90f4ec"/></g><path d="M229.19,387.42,222,399.24h14.29" style="fill:#4a6a77"/><path d="M229.12,414.47l7.17-11.85-14.29,0" style="fill:#4a6a77"/><path d="M162.52,392.49H212.1a3.49,3.49,0,0,1,3.65,3.3V406.1a3.49,3.49,0,0,1-3.65,3.3H162.52a3.49,3.49,0,0,1-3.65-3.3V395.79A3.49,3.49,0,0,1,162.52,392.49Z" style="fill:#8d8d8d"/><path d="M162.57,393.2H212a1.31,1.31,0,0,1,1.37,1.24v13.19a1.31,1.31,0,0,1-1.37,1.24H162.57a1.32,1.32,0,0,1-1.37-1.24V394.44A1.32,1.32,0,0,1,162.57,393.2Z" style="fill:#fffaea"/><g style="isolation:isolate"><path d="M170.59,400l1.57-1.36a1,1,0,0,1,.65-.26.87.87,0,0,1,.64.27.81.81,0,0,1,.27.58v2.26a1.4,1.4,0,0,1-.55,1.1l-.5.43.19.47h.5a.35.35,0,0,1,.26.1.39.39,0,0,1,.11.27.38.38,0,0,1-.11.26.35.35,0,0,1-.26.1h-1l-.27-.69-.51.42a1,1,0,0,1-.67.27.87.87,0,0,1-.65-.26.91.91,0,0,1-.26-.65v-2.06a1.66,1.66,0,0,1,.12-.66A1.73,1.73,0,0,1,170.59,400Zm2-.82-1.57,1.36a.87.87,0,0,0-.27.34,1.14,1.14,0,0,0-.07.46v1.93c0,.15.06.23.18.23a.19.19,0,0,0,.13-.06l.75-.64-.24-.65a.46.46,0,0,1-.05-.21.31.31,0,0,1,.11-.25.36.36,0,0,1,.26-.11.33.33,0,0,1,.34.21l.19.5a2.6,2.6,0,0,0,.44-.42.57.57,0,0,0,.13-.38v-2.18c0-.12-.05-.18-.17-.18A.19.19,0,0,0,172.64,399.14Z" style="fill:#6f6f6f"/><path d="M179.16,398.72v5.46h-1l-2-4.53v4.17a.38.38,0,0,1-.11.26.35.35,0,0,1-.26.1.36.36,0,0,1-.37-.36v-5.48h1l2,4.53v-4.15a.36.36,0,0,1,.11-.26.36.36,0,0,1,.27-.12.36.36,0,0,1,.26.11A.4.4,0,0,1,179.16,398.72Z" style="fill:#6f6f6f"/><path d="M180.86,399.35v-1h3.73v1a.37.37,0,0,1-.63.26.34.34,0,0,1-.12-.26v-.27h-.74v4.73a.38.38,0,0,1-.11.26.37.37,0,0,1-.26.1.36.36,0,0,1-.27-.1.38.38,0,0,1-.11-.26v-4.73h-.75v.26a.33.33,0,0,1-.11.26.35.35,0,0,1-.26.11.38.38,0,0,1-.37-.37Z" style="fill:#6f6f6f"/><path d="M188.55,401.38v2.44a.38.38,0,0,1-.11.26.35.35,0,0,1-.26.1.39.39,0,0,1-.27-.1.38.38,0,0,1-.11-.26v-2.44l-1.48-1.88v-.78a.36.36,0,0,1,.11-.27.35.35,0,0,1,.26-.11.34.34,0,0,1,.26.12.33.33,0,0,1,.11.26v.51l1.11,1.42,1.13-1.42v-.51a.33.33,0,0,1,.11-.26.34.34,0,0,1,.26-.12.36.36,0,0,1,.25.11.34.34,0,0,1,.12.27v.77Z" style="fill:#6f6f6f"/><path d="M193.23,399.31H194a.4.4,0,0,1,.27.11.4.4,0,0,1,.11.26v.63a.34.34,0,0,1-.12.26.32.32,0,0,1-.25.11h-.76a.35.35,0,0,1-.26-.1.41.41,0,0,1-.1-.27v-.63a.36.36,0,0,1,.11-.26A.33.33,0,0,1,193.23,399.31Zm0,2.55H194a.35.35,0,0,1,.26.1.34.34,0,0,1,.12.26v.63a.39.39,0,0,1-.11.27.38.38,0,0,1-.26.11h-.76a.36.36,0,0,1-.26-.11.4.4,0,0,1-.1-.26v-.64A.36.36,0,0,1,193,402,.35.35,0,0,1,193.23,401.86Z" style="fill:#6f6f6f"/></g><g style="isolation:isolate"><path d="M203.63,404.17h-4.1v-3.11a.92.92,0,0,1,.26-.65.86.86,0,0,1,.64-.26h2.74V398H200a.44.44,0,0,1-.32-.13.44.44,0,0,1-.13-.32.42.42,0,0,1,.13-.32.41.41,0,0,1,.32-.13h3.22a.84.84,0,0,1,.64.26.87.87,0,0,1,.27.64v2.2a.87.87,0,0,1-.27.64.85.85,0,0,1-.64.27h-2.74v2.21h3.2a.48.48,0,0,1,.32.13.44.44,0,0,1,.13.32.42.42,0,0,1-.13.32A.44.44,0,0,1,203.63,404.17Z" style="fill:#6c7d88"/></g><path d="M141.55,362.38h91.52c3.75,0,6.79,1.78,6.79,4v12.11c0,2.2-3,4-6.79,4H141.55c-3.75,0-6.79-1.79-6.79-4V366.36C134.76,364.16,137.8,362.38,141.55,362.38Z" style="fill:#4a6a77"/><g style="isolation:isolate"><path d="M177.25,371.76v-.23l-.93-1.33v5.45a.4.4,0,0,1-.13.31.45.45,0,0,1-.32.14.43.43,0,0,1-.32-.14.42.42,0,0,1-.13-.31V369h1.16l1.11,1.62,1.15-1.62H180v6.69a.4.4,0,0,1-.13.31.47.47,0,0,1-.33.14.45.45,0,0,1-.32-.14.42.42,0,0,1-.13-.31v-5.43l-.91,1.29v.25a.45.45,0,0,1-.14.32.42.42,0,0,1-.32.13.4.4,0,0,1-.31-.13A.45.45,0,0,1,177.25,371.76Z" style="fill:#90f4ec"/><path d="M182.52,369h3.66a.43.43,0,0,1,.31.13.44.44,0,0,1,0,.64.39.39,0,0,1-.31.14h-1.37v5.32h1.37a.41.41,0,0,1,.31.14.42.42,0,0,1,.14.32.41.41,0,0,1-.14.31.43.43,0,0,1-.31.14h-3.66a.45.45,0,0,1-.32-.14.44.44,0,0,1-.13-.31.46.46,0,0,1,.45-.46h1.39v-5.32h-1.39a.44.44,0,0,1-.32-.13.48.48,0,0,1-.13-.32.49.49,0,0,1,.13-.33A.44.44,0,0,1,182.52,369Z" style="fill:#90f4ec"/><path d="M193.27,369.42v6.68h-1.21l-2.43-5.55v5.1a.44.44,0,0,1-.13.31.45.45,0,0,1-.32.14.43.43,0,0,1-.32-.14.4.4,0,0,1-.13-.31V369h1.19l2.44,5.53v-5.07a.42.42,0,0,1,.13-.32.43.43,0,0,1,.33-.14.44.44,0,0,1,.32.13A.44.44,0,0,1,193.27,369.42Z" style="fill:#90f4ec"/><path d="M195.36,370.19V369h4.55v1.23a.45.45,0,0,1-.77.32.45.45,0,0,1-.14-.32v-.33h-.91v5.78a.41.41,0,0,1-.14.31.43.43,0,0,1-.31.14.45.45,0,0,1-.33-.14.4.4,0,0,1-.13-.31v-5.78h-.92v.32a.44.44,0,0,1-.13.32.46.46,0,0,1-.64,0A.44.44,0,0,1,195.36,370.19Z" style="fill:#90f4ec"/></g><path d="M75,503.54H291a2,2,0,0,1,2,2v2.32a2,2,0,0,1-2,2H75a2,2,0,0,1-2-2v-2.32A2,2,0,0,1,75,503.54Z" style="fill:#7396ac"/><path d="M54.88,473.67h260.4v6.1H54.88Z" style="fill:#b6b6b6;fill-opacity:0"/><path d="M129.57,479.77h49.57a3.48,3.48,0,0,1,3.65,3.3v10.31a3.48,3.48,0,0,1-3.65,3.29H129.57a3.48,3.48,0,0,1-3.65-3.29V483.07A3.48,3.48,0,0,1,129.57,479.77Z" style="fill:#8d8d8d"/><path d="M129.61,480.48h49.47a1.3,1.3,0,0,1,1.36,1.24v13.19a1.3,1.3,0,0,1-1.36,1.23H129.61a1.3,1.3,0,0,1-1.36-1.23V481.72A1.3,1.3,0,0,1,129.61,480.48Z" style="fill:#fffaea"/><g style="isolation:isolate"><path d="M189.7,487.1l.63,1.29a1.2,1.2,0,0,1,.13.57,1.18,1.18,0,0,1-.13.56l-.63,1.28a.72.72,0,0,1-.69.42.73.73,0,0,1-.41-.12.77.77,0,0,1-.27-.3l-.64-1.28a1.25,1.25,0,0,1-.13-.56,1.33,1.33,0,0,1,.13-.57l.64-1.29a.77.77,0,0,1,1.37,0Zm-.88.29-.59,1.21a.79.79,0,0,0-.09.35.74.74,0,0,0,.09.36l.61,1.22a.17.17,0,0,0,.17.12.18.18,0,0,0,.17-.12l.62-1.22a.94.94,0,0,0,.08-.36.85.85,0,0,0-.08-.35l-.61-1.21a.18.18,0,0,0-.18-.14A.22.22,0,0,0,188.82,487.39Z" style="fill:#ffe"/><path d="M191.8,490.93v-4.25h2.6a.28.28,0,0,1,.2.08.28.28,0,0,1,.09.2.29.29,0,0,1-.09.21.25.25,0,0,1-.2.09h-2v.9h1.46a.29.29,0,0,1,0,.58h-1.46v2.19a.28.28,0,0,1-.08.21.3.3,0,0,1-.2.08.27.27,0,0,1-.29-.29Z" style="fill:#ffe"/></g><g style="isolation:isolate"><path d="M143.2,493.21h-5.6V489a1.18,1.18,0,0,1,.37-.88,1.15,1.15,0,0,1,.86-.37h3.74v-3h-4.4a.6.6,0,0,1-.44-.18.64.64,0,0,1-.17-.44.61.61,0,0,1,.17-.43.6.6,0,0,1,.44-.18h4.4a1.22,1.22,0,0,1,.88.36,1.19,1.19,0,0,1,.36.87v3a1.23,1.23,0,0,1-1.24,1.25h-3.74v3h4.37a.59.59,0,0,1,.43.17.63.63,0,0,1,0,.88A.6.6,0,0,1,143.2,493.21Z" style="fill:#6c7d88"/><path d="M152.26,493.21h-5.6V489a1.18,1.18,0,0,1,.37-.88,1.15,1.15,0,0,1,.86-.37h3.74v-3h-4.4a.6.6,0,0,1-.44-.18.64.64,0,0,1-.17-.44.61.61,0,0,1,.17-.43.6.6,0,0,1,.44-.18h4.4a1.22,1.22,0,0,1,.88.36,1.19,1.19,0,0,1,.36.87v3a1.23,1.23,0,0,1-1.24,1.25h-3.74v3h4.37a.59.59,0,0,1,.43.17.63.63,0,0,1,0,.88A.6.6,0,0,1,152.26,493.21Z" style="fill:#6c7d88"/><path d="M161.93,484.72V487a1.77,1.77,0,0,1-.49,1.31,1.82,1.82,0,0,1,.51,1.24V492a1.15,1.15,0,0,1-.37.86,1.2,1.2,0,0,1-.88.37h-4.35a.58.58,0,0,1-.43-.18.63.63,0,0,1,0-.88.57.57,0,0,1,.43-.17h4.34v-2.41a.6.6,0,0,0-.18-.44.61.61,0,0,0-.44-.19H157.6a.64.64,0,0,1-.44-.17.62.62,0,0,1,.44-1.06h2.49a.6.6,0,0,0,.43-.18.58.58,0,0,0,.18-.43v-2.38h-4.39a.61.61,0,0,1-.62-.62.58.58,0,0,1,.18-.43.6.6,0,0,1,.44-.18h4.39a1.19,1.19,0,0,1,.88.36A1.22,1.22,0,0,1,161.93,484.72Z" style="fill:#6c7d88"/><path d="M168.82,492.59V490h-3.71V484.1a.61.61,0,0,1,.19-.44.58.58,0,0,1,.44-.19.56.56,0,0,1,.43.19.58.58,0,0,1,.19.44v4.68h2.46v-3.6a.64.64,0,0,1,.18-.45.58.58,0,0,1,.43-.18.6.6,0,0,1,.44.18.64.64,0,0,1,.18.45v3.6a.57.57,0,0,1,.43.18.6.6,0,0,1,.18.44.58.58,0,0,1-.18.43.57.57,0,0,1-.43.18v2.58a.6.6,0,0,1-.18.44.62.62,0,0,1-.44.18A.58.58,0,0,1,169,493,.6.6,0,0,1,168.82,492.59Z" style="fill:#6c7d88"/></g><g style="isolation:isolate"><path d="M202.33,492.07h2.85v-3h-3.72v-5.47h4.33a.58.58,0,0,1,.43.18.57.57,0,0,1,.19.43.61.61,0,0,1-.62.62H202.7v3h2.48a1.26,1.26,0,0,1,1.23,1.23v3a1.25,1.25,0,0,1-1.23,1.23h-2.85a2,2,0,0,1-.82-.19l-.93-.38a.6.6,0,0,1-.37-.59.64.64,0,0,1,.17-.44.54.54,0,0,1,.41-.18,1.09,1.09,0,0,1,.42.11l.82.35A.55.55,0,0,0,202.33,492.07Z" style="fill:#ffe"/><path d="M209.11,492.11v-7.36a1.21,1.21,0,0,1,1.19-1.19h3.83a1.11,1.11,0,0,1,.83.36,1.14,1.14,0,0,1,.35.83v7.36a1.2,1.2,0,0,1-1.19,1.19H210.3a1.15,1.15,0,0,1-.85-.35A1.14,1.14,0,0,1,209.11,492.11Zm5,0v-7.26h-3.75v7.26Z" style="fill:#ffe"/><path d="M218.17,492.11v-7.36a1.21,1.21,0,0,1,1.19-1.19h3.83a1.11,1.11,0,0,1,.83.36,1.14,1.14,0,0,1,.35.83v7.36a1.2,1.2,0,0,1-1.19,1.19h-3.82a1.15,1.15,0,0,1-.85-.35A1.14,1.14,0,0,1,218.17,492.11Zm5,0v-7.26H219.4v7.26Z" style="fill:#ffe"/><path d="M227.23,492.11v-7.36a1.21,1.21,0,0,1,1.19-1.19h3.83a1.11,1.11,0,0,1,.83.36,1.14,1.14,0,0,1,.35.83v7.36a1.2,1.2,0,0,1-1.19,1.19h-3.82a1.15,1.15,0,0,1-.85-.35A1.18,1.18,0,0,1,227.23,492.11Zm5,0v-7.26h-3.75v7.26Z" style="fill:#ffe"/></g><path d="M65.25,302.93c-.29,0-.44-.07-.44-.2a7.19,7.19,0,0,1,.71-2L66.6,298a3.3,3.3,0,0,1,.47-.81.86.86,0,0,1,.64-.42.34.34,0,0,1,.25.13.74.74,0,0,0,.52.13,11.27,11.27,0,0,0,4.32-1.67,59.14,59.14,0,0,0,6.38-4.06,46.66,46.66,0,0,0,5.73-4.76.31.31,0,0,0,.12-.23c0-.31-.46-.58-1.38-.79a38.21,38.21,0,0,0-4.13-.12,23,23,0,0,1-5.77-.48c-1.06-.32-1.58-.91-1.58-1.75a11.87,11.87,0,0,1,1.23-3.83l.82-2.05a16.17,16.17,0,0,1,3.67-4.87,44.91,44.91,0,0,1,5.67-4.69q3.75-2.6,5-2.6a.84.84,0,0,1,.6.22,5.07,5.07,0,0,1,.57.57,8.06,8.06,0,0,0,1.56,1.55c1,.76,1.49,1.26,1.49,1.5a.79.79,0,0,1-.12.38,4,4,0,0,1-2.08,1.74,15.1,15.1,0,0,1-2.65.75,5.33,5.33,0,0,0-1.89.61,47.44,47.44,0,0,0-5.4,4.78c-1.34,1.42-2,2.3-2,2.63a.13.13,0,0,0,.15.15c3.1,0,5.1,0,6,.06a4.42,4.42,0,0,1,1.89.38,4.59,4.59,0,0,1,1.19,1.05,26.13,26.13,0,0,0,2.55,2.41,2.47,2.47,0,0,1,.94,1.9q0,2.9-6.16,7.62A52.15,52.15,0,0,1,73,300.76Q67.4,302.93,65.25,302.93Z" style="fill:#4a6a77;stroke:#fdf9e3;stroke-miterlimit:10;stroke-width:7px"/><path d="M101.73,303.19c-.16,0-.25,0-.28-.07a.7.7,0,0,1,0-.31,23.8,23.8,0,0,1,.26-3.22q1.2-9.16,2.69-13.07v-.11c-.11,0-.26-.11-.43-.33a1.88,1.88,0,0,0-1.53-.49,11.69,11.69,0,0,0-4.48,1.05,2.58,2.58,0,0,0-1,.56l-.26.58a41.62,41.62,0,0,0-1.61,4.63l0,0c.09,0,.15.16.17.41a20.32,20.32,0,0,1-.7,4.34c-.29,1.25-.58,1.88-.85,1.9a1.45,1.45,0,0,1-.7-.38,23,23,0,0,0-2.64-1.61,5.42,5.42,0,0,1-1-.51,1.14,1.14,0,0,1-.22-.78,21,21,0,0,1,1.17-5.1,2.07,2.07,0,0,0,.15-.58c-.57.08-1.09.16-1.57.26a5.92,5.92,0,0,1-1.16.15c-.29,0-.45-.07-.47-.21l.65-2.22a6.37,6.37,0,0,1,1.26-3,7.9,7.9,0,0,1,3.43-1.54,26.19,26.19,0,0,0,2.25-4.21q3.6-7.92,5.16-9,3.78-2.4,4.6-2.43c.19,0,.3.13.32.38q-.53,3.57-.91,5.42c-.47,2.09-.91,3.15-1.32,3.17a.61.61,0,0,1-.35-.2c-.14-.12-.24-.19-.32-.19a9.87,9.87,0,0,0-1.25,2.19,13.73,13.73,0,0,0-1.09,2.44,4.29,4.29,0,0,0,1.05-.2,12.35,12.35,0,0,1,3.4-.65,1.78,1.78,0,0,1,1.7.74c.08.15.15.23.23.23s.34-.48.73-1.43q.74-2,4-8.85c1.33-2.87,2.42-5.27,3.28-7.18.22-.47.37-.7.47-.7a23.08,23.08,0,0,1,2.08,1.46,21.73,21.73,0,0,1,1.85,1.33,1.49,1.49,0,0,1,.58,1,3.76,3.76,0,0,1-.64,1.81q-11.58,23.18-11.58,30.85a5.3,5.3,0,0,0,.21,1.88.84.84,0,0,1,.06.26c0,.1-.41.25-1.23.47A32.6,32.6,0,0,1,101.73,303.19Z" style="fill:#4a6a77;stroke:#fdf9e3;stroke-miterlimit:10;stroke-width:7px"/><path d="M111.31,300.35c-.18,0-.33-.14-.47-.44a25.72,25.72,0,0,0-1.44-3.45,2.07,2.07,0,0,1-.35-.88c0-.18.18-.37.53-.59,2-1.23,3.52-1.84,4.39-1.84a1.13,1.13,0,0,1,.5.08l.06,0q0-3,7.47-18.25a.76.76,0,0,0,.12-.44,4.31,4.31,0,0,1-1,.38,8.43,8.43,0,0,0-1.29-.11,2.64,2.64,0,0,1-.52,0c-.08,0-.13-.17-.15-.44l0-1.32,0-1.2a7.86,7.86,0,0,1,.16-1.89,1.46,1.46,0,0,1,1-.92,29.68,29.68,0,0,1,3.63-.94,23.48,23.48,0,0,1,4-.76,3.32,3.32,0,0,1,1.52.49,17.05,17.05,0,0,0,3.17,1.41c.51.16.77.3.79.44s-.06.14-.18.23c-1.09.84-1.91,1.44-2.46,1.79a9.93,9.93,0,0,0-1.14.85,5.34,5.34,0,0,0-1,1.2q-.7,1.14-5.24,11.37a72.1,72.1,0,0,0-3.31,7.65c0,.21.28.33.83.35a9.65,9.65,0,0,1,2.48.58c.29.1.44.23.44.38s-.87,1.23-2.61,2.88A5.59,5.59,0,0,1,120,298s-.09-.06-.15-.18a.57.57,0,0,0-.52-.29c-.32,0-.5.1-.56.29-.12.37-.25.56-.41.56s-.19-.09-.32-.26a.89.89,0,0,0-.62-.36q-4.07.71-5,1.79C111.9,300.07,111.54,300.33,111.31,300.35Z" style="fill:#4a6a77;stroke:#fdf9e3;stroke-miterlimit:10;stroke-width:7px"/><path d="M131.11,301.47l-.06,0c-.66-.8-1.22-1.43-1.67-1.88a9.93,9.93,0,0,1-1-1.2,2.38,2.38,0,0,1-.41-1.32q0-1.87,2.37-7.73V289c-.51.14-1,.28-1.37.41a15.51,15.51,0,0,1-2.85.74c-.37,0-.56-.15-.58-.44a8.32,8.32,0,0,1,.11-1.18,13.29,13.29,0,0,0,.27-2.75q0-.68,1-1.2a39.18,39.18,0,0,1,5.89-1.88q.65-.32,3.2-6.09a0,0,0,0,1,0,0v-.06h0v-.06h0v-.05l0,0v-.06h0v-.06h0v-.06h0v-.06h0l0-.06h0v-.05h0V276h0l.2-.44c-.68,0-1,.24-1.08.73a.88.88,0,0,1-.09.26c0,.08-.2.13-.5.15a1.36,1.36,0,0,1-.79-.23c-2.56-2.33-3.84-3.73-3.86-4.19s1.29-.86,3.86-1.34a45.5,45.5,0,0,1,5.25-.77c.13,0,.27-.1.41-.3a1.13,1.13,0,0,1,.76-.61c1.07-.22,2-.42,2.72-.62a9.9,9.9,0,0,1,1.94-.41c.35,0,.54.11.55.33a2.12,2.12,0,0,1-.17.67.69.69,0,0,0-.06.26,54.72,54.72,0,0,1,5.65-.32c2.52,0,3.8.32,3.84,1a2.79,2.79,0,0,1-.26,1,10.08,10.08,0,0,0-.5,1.59c-.16.64-.27,1.14-.34,1.5s-.13.64-.19.84a1.08,1.08,0,0,1-.32.5.38.38,0,0,1-.23.08c-.28,0-.63-.24-1.06-.73a2.18,2.18,0,0,0-1-.79q-1.5-.06-2.67-.06c-2.87,0-4.59.24-5.16.71a3.39,3.39,0,0,0-1,1.72,12.93,12.93,0,0,1-.59,1.43,6.83,6.83,0,0,1-.58,1.06l-.35.27q-.09,0-.15-.12a.33.33,0,0,0-.18-.17l-.06,0a9.27,9.27,0,0,0-.52,1,10.09,10.09,0,0,0-.62,1.46s.06,0,.18,0a5.77,5.77,0,0,1,1.17-.17q3,0,6.33,3.46a1.7,1.7,0,0,1,.44.87c0,.22-.14.38-.41.47q-4.55,1.38-4.9,1.41l-.17-.12.06-.47c0-.39-.3-.58-.88-.58s-.88,0-1.23,0-.72,0-1,0a2.71,2.71,0,0,0-1.73.63,6.4,6.4,0,0,0-1.4,2.46,55,55,0,0,0-1.67,5.7c0,.09,0,.14.1.14s.1,0,.1.12a12.38,12.38,0,0,1-1.27,3.34C131.89,300.57,131.35,301.47,131.11,301.47Z" style="fill:#4a6a77;stroke:#fdf9e3;stroke-miterlimit:10;stroke-width:7px"/><path d="M152,299.24a.69.69,0,0,1-.26-.06,23.79,23.79,0,0,0-3.61-1.85c-.09,0-.14-.13-.14-.35,0-.86.62-3,1.87-6.56s2.5-6.63,3.74-9.35,2.28-4.8,3.12-6.26a2,2,0,0,0,.12-.33c-.51,0-2.17.32-5,.88l-1.73.29a.92.92,0,0,1-.53-.17,26.22,26.22,0,0,1-2.43-2.49,7.78,7.78,0,0,1-1.14-1.32c0-.12.18-.21.55-.29a12.31,12.31,0,0,0,1.67-.56q3.22-1.32,13.77-2.93a54.71,54.71,0,0,1,7.65-.82c1,0,1.55.13,1.67.38-.08.67-.22,1.67-.41,3-.33,2.11-.81,3.18-1.44,3.22a.92.92,0,0,1-.67-.41.86.86,0,0,0-.7-.26,14.7,14.7,0,0,0-1.59.12c-.17,0-.8.11-1.89.23a6,6,0,0,0-1.75.31.49.49,0,0,0-.14.36,4.16,4.16,0,0,1-.52,1.35,95.87,95.87,0,0,0-8.82,20.8c-.31,1-.57,1.75-.76,2.27S152.21,299.24,152,299.24Z" style="fill:#4a6a77;stroke:#fdf9e3;stroke-miterlimit:10;stroke-width:7px"/><path d="M165.42,300.85a29.13,29.13,0,0,1-3.4-.73,8.15,8.15,0,0,1-1.64-.4.71.71,0,0,1-.44-.72c0-.68.68-2.09,2.05-4.21q1.44-2.24,8.18-12.19a55.55,55.55,0,0,0-2.44-5.91,44,44,0,0,0-3.51-6.87l0-.05c0-.34,1-1.21,2.9-2.64a6.07,6.07,0,0,1,1.49-.94q.51,0,1.2,1.14a56.83,56.83,0,0,1,2.73,6.13A18.79,18.79,0,0,0,174,276.8l1-1.38a36.94,36.94,0,0,1,6.47-7.59l1.41-1.05a5.37,5.37,0,0,1,1.87-1.26c.16,0,.26.24.3.73a20.21,20.21,0,0,0,.79,3.08,3.38,3.38,0,0,1,.23.9,1.08,1.08,0,0,1-.14.5,7.65,7.65,0,0,0-.41.88,1,1,0,0,1,.07-.2l.09-.25a.77.77,0,0,0,0-.25q0-.12-.09-.12-.49,0-3.92,4.81-4.76,6.58-14.8,22.2a.58.58,0,0,0-.09.3.81.81,0,0,0,.15.45,1,1,0,0,1,.15.54q0,.62-1.14,1.56A.84.84,0,0,1,165.42,300.85Z" style="fill:#4a6a77;stroke:#fdf9e3;stroke-miterlimit:10;stroke-width:7px"/><path d="M171.86,302.93c-.29,0-.43-.07-.43-.2a7,7,0,0,1,.7-2l1.08-2.75a3.65,3.65,0,0,1,.47-.81.88.88,0,0,1,.65-.42.34.34,0,0,1,.24.13.74.74,0,0,0,.52.13,11.27,11.27,0,0,0,4.32-1.67,60.22,60.22,0,0,0,6.39-4.06,47.27,47.27,0,0,0,5.72-4.76.31.31,0,0,0,.12-.23c0-.31-.46-.58-1.38-.79a38.21,38.21,0,0,0-4.13-.12,23.1,23.1,0,0,1-5.77-.48c-1.05-.32-1.58-.91-1.58-1.75a11.87,11.87,0,0,1,1.23-3.83l.82-2.05a16.06,16.06,0,0,1,3.68-4.87,43.54,43.54,0,0,1,5.67-4.69c2.5-1.73,4.17-2.6,5-2.6a.84.84,0,0,1,.6.22,6,6,0,0,1,.58.57,8,8,0,0,0,1.55,1.55c1,.76,1.49,1.26,1.49,1.5a.89.89,0,0,1-.11.38,4,4,0,0,1-2.08,1.74,15.44,15.44,0,0,1-2.66.75,5.48,5.48,0,0,0-1.89.61,47.44,47.44,0,0,0-5.4,4.78c-1.34,1.42-2,2.3-2,2.63a.13.13,0,0,0,.15.15c3.1,0,5.1,0,6,.06a4.49,4.49,0,0,1,1.89.38,4.57,4.57,0,0,1,1.18,1.05,26.13,26.13,0,0,0,2.55,2.41,2.44,2.44,0,0,1,.94,1.9q0,2.9-6.15,7.62a52.39,52.39,0,0,1-12.19,7.32Q174,302.93,171.86,302.93Z" style="fill:#4a6a77;stroke:#fdf9e3;stroke-miterlimit:10;stroke-width:7px"/><path d="M208.34,303.19c-.16,0-.25,0-.28-.07a.7.7,0,0,1,0-.31,23.8,23.8,0,0,1,.26-3.22q1.2-9.16,2.69-13.07v-.11c-.11,0-.26-.11-.43-.33a1.88,1.88,0,0,0-1.53-.49,11.69,11.69,0,0,0-4.48,1.05,2.58,2.58,0,0,0-1,.56l-.26.58a44.32,44.32,0,0,0-1.61,4.63l0,0c.1,0,.15.16.17.41a20.32,20.32,0,0,1-.7,4.34c-.29,1.25-.58,1.88-.85,1.9a1.45,1.45,0,0,1-.7-.38A23,23,0,0,0,197,297.1a5.42,5.42,0,0,1-1-.51,1.14,1.14,0,0,1-.22-.78,21,21,0,0,1,1.17-5.1,2.07,2.07,0,0,0,.15-.58c-.57.08-1.09.16-1.57.26a5.92,5.92,0,0,1-1.16.15c-.29,0-.45-.07-.46-.21l.64-2.22a6.37,6.37,0,0,1,1.26-3,7.9,7.9,0,0,1,3.43-1.54,26.19,26.19,0,0,0,2.25-4.21q3.6-7.92,5.16-9,3.78-2.4,4.6-2.43c.19,0,.3.13.32.38q-.53,3.57-.91,5.42c-.47,2.09-.91,3.15-1.32,3.17a.61.61,0,0,1-.35-.2.58.58,0,0,0-.32-.19,9.65,9.65,0,0,0-1.24,2.19,13.38,13.38,0,0,0-1.1,2.44,4.29,4.29,0,0,0,1.05-.2,12.35,12.35,0,0,1,3.4-.65,1.78,1.78,0,0,1,1.7.74c.08.15.15.23.23.23s.34-.48.74-1.43q.72-2,3.95-8.85c1.33-2.87,2.42-5.27,3.28-7.18.22-.47.37-.7.47-.7a23.08,23.08,0,0,1,2.08,1.46,21.73,21.73,0,0,1,1.85,1.33,1.49,1.49,0,0,1,.58,1,3.76,3.76,0,0,1-.64,1.81q-11.58,23.18-11.57,30.85a5.38,5.38,0,0,0,.2,1.88.84.84,0,0,1,.06.26c0,.1-.41.25-1.23.47A32.6,32.6,0,0,1,208.34,303.19Z" style="fill:#4a6a77;stroke:#fdf9e3;stroke-miterlimit:10;stroke-width:7px"/><path d="M233.89,300.56c-.2,0-.35-.25-.44-.74a40.37,40.37,0,0,1-.94-7.06c0-.64.08-1.43.17-2.37q.06-.83.06-1.29a.67.67,0,0,1-.32.12.51.51,0,0,1-.32-.26,1.43,1.43,0,0,0-1-.56c-.23,0-.51,0-.82,0a37.33,37.33,0,0,0-4.31.35.52.52,0,0,0-.38.19c-.07.11-.34.72-.79,1.83a.48.48,0,0,0-.06.21c0,.15.12.27.36.33s.35.16.35.25-.36.54-1.09,1.09c-.25.19-.59.48-1,.85-1.37,1.25-2.25,1.87-2.64,1.87a.23.23,0,0,1-.23-.17,15,15,0,0,1-.78-3.72q0-1.38-.45-1.41c-.28,0-.41-.06-.41-.12v-.38c0-.58,0-1.08,0-1.49a13.24,13.24,0,0,0-.14-2,3.45,3.45,0,0,1-.06-.58.58.58,0,0,1,.29-.56l2.32-.47q9.28-16.61,14.94-19.65a1.09,1.09,0,0,1,.58-.18,7.05,7.05,0,0,1,2.26,1l2,1.08a2.16,2.16,0,0,1,1.29,2.17,18.45,18.45,0,0,1-1,4.83,113.59,113.59,0,0,0-3.9,19.95l0,.85a10.79,10.79,0,0,0,.18,1.91,5.73,5.73,0,0,1,0,.67.78.78,0,0,1-.26.67,17.24,17.24,0,0,0-2.52,2.05C234.43,300.31,234.1,300.56,233.89,300.56Zm-.77-16.38c.18,0,.33-.21.46-.64s.32-1.26.6-2.49q.49-2.58,2-8.56a.23.23,0,0,0,0-.13.13.13,0,0,1,0-.07,67.23,67.23,0,0,0-7.82,11.07l1.67-.09a4.67,4.67,0,0,1,2.61.65A1.09,1.09,0,0,0,233.12,284.18Z" style="fill:#4a6a77;stroke:#fdf9e3;stroke-miterlimit:10;stroke-width:7px"/><path d="M241.59,301.17c-.2,0-.58-.77-1.14-2.33a11.5,11.5,0,0,1-.85-3.15q2-5.54,2.34-6.35a2.78,2.78,0,0,0,.29-.91.69.69,0,0,0-.29-.41q-1.14-.94-1.14-1.35a.82.82,0,0,1,.32-.56,6.82,6.82,0,0,1,2.29-1.52.66.66,0,0,0,.48-.37c.11-.2.42-.82.92-1.86q2.37-4.83,2.84-5.56a.66.66,0,0,0,.15-.35,13.57,13.57,0,0,0-2.11-2.08c-.1-.08-.33-.32-.7-.71a.22.22,0,0,1-.09-.2c0-.45.86-1,2.56-1.72a43.34,43.34,0,0,1,6.2-1.89,36.49,36.49,0,0,1,8-1.08c2.6,0,4,.56,4.1,1.67,0,.68.06,1.32.06,1.9a14.24,14.24,0,0,1-.28,3,5.63,5.63,0,0,1-1.57,2.71,19.58,19.58,0,0,1-3.83,3c-1.7,1.07-4.08,2.47-7.12,4.21a3.84,3.84,0,0,1-.59.32,2.91,2.91,0,0,0-.67.47l4,.11c1.92,0,3.52.09,4.81.21a6.9,6.9,0,0,1,3,.81,2.49,2.49,0,0,1,1,2.32,12.77,12.77,0,0,1-.73,3.7.86.86,0,0,1-.28.36.75.75,0,0,1-.51.19,1,1,0,0,1-.68-.41,2.35,2.35,0,0,0-.58-.47,8.9,8.9,0,0,0-3.31-.52c-3.77-.26-6.52-.46-8.24-.62-1.36-.14-2.36-.2-3-.2s-.85.08-1,.26-.59,1.44-1.41,3.78a6.13,6.13,0,0,1-.73,1.84A15.86,15.86,0,0,1,241.59,301.17ZM251.35,280l2.11-1.32a41.6,41.6,0,0,0,5.8-3.84.2.2,0,0,0-.15-.05,30.12,30.12,0,0,0-4.92.7,1.3,1.3,0,0,0-.76.61,18.23,18.23,0,0,0-2.11,3.78Z" style="fill:#4a6a77;stroke:#fdf9e3;stroke-miterlimit:10;stroke-width:7px"/><path d="M264.85,299.24a16.22,16.22,0,0,1-2.34-2.17c-.82-.82-1.23-1.33-1.23-1.52s.31-1.1.94-2.93c0-.2-.5-.35-1.5-.47a.83.83,0,0,0-.32.06.87.87,0,0,1-.32.06q-.85,0-1.53-3.75a.47.47,0,0,0-.32-.34c-.17-.07-.26-.15-.26-.25s0,0,0,0a.31.31,0,0,0,.1-.08,1.47,1.47,0,0,0,.15-.17.49.49,0,0,0,.09-.3l0-.2a1.71,1.71,0,0,1-.09-.47c0-.18.06-.26.18-.26a1.11,1.11,0,0,1,.44.1,1.09,1.09,0,0,0,.46.1.32.32,0,0,0,.24-.09,24.15,24.15,0,0,1,5.8-4.36,6.13,6.13,0,0,0,2-1.52l2.75-4.69q5.75-10.08,6.45-10.17a13.94,13.94,0,0,0,2.64-1.11,2.57,2.57,0,0,1,1.14-.47c.21,0,.32.2.32.59a20.28,20.28,0,0,1-.5,3.42c-.09.77-1.11,2.8-3,6.1-.24.37-.46.75-.68,1.14.16,0,1.47-.7,3.93-2.05q12.73-7.12,13.48-7.12a.11.11,0,0,1,.11.06c.3,1.09.54,2,.73,2.64a7.74,7.74,0,0,1,.47,2,.62.62,0,0,1-.2.52,3,3,0,0,1-.6.38c-.27.14-.6.34-1,.59l-12.13,6.56q-9.81,5.16-10.72,6.21a23.21,23.21,0,0,0-1.65,3.14c0,.12.15.19.44.23q5.22,1.5,6.89,2.17,1.26.52,5.39,2.58,1.2.62,1.2,1.08a.67.67,0,0,1-.28.53c-.18.16-.49.39-.92.7a12.26,12.26,0,0,0-.94.82c-1.05,1.18-1.8,1.76-2.25,1.76-.24,0-.38-.28-.44-.85a2,2,0,0,0-.25-.77,2.06,2.06,0,0,0-.92-.63c-.86-.32-4.11-1.2-9.73-2.67-.33.16-.68.81-1,1.95a20.8,20.8,0,0,0-.66,2.44C265.24,298.74,265.07,299.24,264.85,299.24Z" style="fill:#4a6a77;stroke:#fdf9e3;stroke-miterlimit:10;stroke-width:7px"/><path d="M277.42,302.93c-.29,0-.44-.07-.44-.2a7.39,7.39,0,0,1,.7-2l1.09-2.75a3.3,3.3,0,0,1,.47-.81.86.86,0,0,1,.64-.42.36.36,0,0,1,.25.13.73.73,0,0,0,.51.13,11.27,11.27,0,0,0,4.32-1.67,59.22,59.22,0,0,0,6.39-4.06,46.66,46.66,0,0,0,5.73-4.76.31.31,0,0,0,.12-.23c0-.31-.46-.58-1.38-.79a38.35,38.35,0,0,0-4.13-.12,23,23,0,0,1-5.77-.48c-1.06-.32-1.59-.91-1.59-1.75a11.87,11.87,0,0,1,1.23-3.83l.83-2.05a16.17,16.17,0,0,1,3.67-4.87,44.91,44.91,0,0,1,5.67-4.69q3.75-2.6,5-2.6a.87.87,0,0,1,.6.22,5.07,5.07,0,0,1,.57.57,8,8,0,0,0,1.55,1.55q1.5,1.14,1.5,1.5a.79.79,0,0,1-.12.38,4,4,0,0,1-2.08,1.74,15.34,15.34,0,0,1-2.65.75,5.33,5.33,0,0,0-1.89.61,45.76,45.76,0,0,0-5.4,4.78c-1.34,1.42-2,2.3-2,2.63,0,.1.05.15.14.15q4.66,0,6,.06a4.42,4.42,0,0,1,1.89.38,4.59,4.59,0,0,1,1.19,1.05,26.13,26.13,0,0,0,2.55,2.41,2.46,2.46,0,0,1,.93,1.9q0,2.9-6.15,7.62a52,52,0,0,1-12.19,7.32C281.43,302.21,278.85,302.93,277.42,302.93Z" style="fill:#4a6a77;stroke:#fdf9e3;stroke-miterlimit:10;stroke-width:7px"/><path d="M65.25,302.93c-.29,0-.44-.07-.44-.2a7.19,7.19,0,0,1,.71-2L66.6,298a3.3,3.3,0,0,1,.47-.81.86.86,0,0,1,.64-.42.34.34,0,0,1,.25.13.74.74,0,0,0,.52.13,11.27,11.27,0,0,0,4.32-1.67,59.14,59.14,0,0,0,6.38-4.06,46.66,46.66,0,0,0,5.73-4.76.31.31,0,0,0,.12-.23c0-.31-.46-.58-1.38-.79a38.21,38.21,0,0,0-4.13-.12,23,23,0,0,1-5.77-.48c-1.06-.32-1.58-.91-1.58-1.75a11.87,11.87,0,0,1,1.23-3.83l.82-2.05a16.17,16.17,0,0,1,3.67-4.87,44.91,44.91,0,0,1,5.67-4.69q3.75-2.6,5-2.6a.84.84,0,0,1,.6.22,5.07,5.07,0,0,1,.57.57,8.06,8.06,0,0,0,1.56,1.55c1,.76,1.49,1.26,1.49,1.5a.79.79,0,0,1-.12.38,4,4,0,0,1-2.08,1.74,15.1,15.1,0,0,1-2.65.75,5.33,5.33,0,0,0-1.89.61,47.44,47.44,0,0,0-5.4,4.78c-1.34,1.42-2,2.3-2,2.63a.13.13,0,0,0,.15.15c3.1,0,5.1,0,6,.06a4.42,4.42,0,0,1,1.89.38,4.59,4.59,0,0,1,1.19,1.05,26.13,26.13,0,0,0,2.55,2.41,2.47,2.47,0,0,1,.94,1.9q0,2.9-6.16,7.62A52.15,52.15,0,0,1,73,300.76Q67.4,302.93,65.25,302.93Z" style="fill:#3c474c"/><path d="M101.73,303.19c-.16,0-.25,0-.28-.07a.7.7,0,0,1,0-.31,23.8,23.8,0,0,1,.26-3.22q1.2-9.16,2.69-13.07v-.11c-.11,0-.26-.11-.43-.33a1.88,1.88,0,0,0-1.53-.49,11.69,11.69,0,0,0-4.48,1.05,2.58,2.58,0,0,0-1,.56l-.26.58a41.62,41.62,0,0,0-1.61,4.63l0,0c.09,0,.15.16.17.41a20.32,20.32,0,0,1-.7,4.34c-.29,1.25-.58,1.88-.85,1.9a1.45,1.45,0,0,1-.7-.38,23,23,0,0,0-2.64-1.61,5.42,5.42,0,0,1-1-.51,1.14,1.14,0,0,1-.22-.78,21,21,0,0,1,1.17-5.1,2.07,2.07,0,0,0,.15-.58c-.57.08-1.09.16-1.57.26a5.92,5.92,0,0,1-1.16.15c-.29,0-.45-.07-.47-.21l.65-2.22a6.37,6.37,0,0,1,1.26-3,7.9,7.9,0,0,1,3.43-1.54,26.19,26.19,0,0,0,2.25-4.21q3.6-7.92,5.16-9,3.78-2.4,4.6-2.43c.19,0,.3.13.32.38q-.53,3.57-.91,5.42c-.47,2.09-.91,3.15-1.32,3.17a.61.61,0,0,1-.35-.2c-.14-.12-.24-.19-.32-.19a9.87,9.87,0,0,0-1.25,2.19,13.73,13.73,0,0,0-1.09,2.44,4.29,4.29,0,0,0,1.05-.2,12.35,12.35,0,0,1,3.4-.65,1.78,1.78,0,0,1,1.7.74c.08.15.15.23.23.23s.34-.48.73-1.43q.74-2,4-8.85c1.33-2.87,2.42-5.27,3.28-7.18.22-.47.37-.7.47-.7a23.08,23.08,0,0,1,2.08,1.46,21.73,21.73,0,0,1,1.85,1.33,1.49,1.49,0,0,1,.58,1,3.76,3.76,0,0,1-.64,1.81q-11.58,23.18-11.58,30.85a5.3,5.3,0,0,0,.21,1.88.84.84,0,0,1,.06.26c0,.1-.41.25-1.23.47A32.6,32.6,0,0,1,101.73,303.19Z" style="fill:#3c474c"/><path d="M111.31,300.35c-.18,0-.33-.14-.47-.44a25.72,25.72,0,0,0-1.44-3.45,2.07,2.07,0,0,1-.35-.88c0-.18.18-.37.53-.59,2-1.23,3.52-1.84,4.39-1.84a1.13,1.13,0,0,1,.5.08l.06,0q0-3,7.47-18.25a.76.76,0,0,0,.12-.44,4.31,4.31,0,0,1-1,.38,8.43,8.43,0,0,0-1.29-.11,2.64,2.64,0,0,1-.52,0c-.08,0-.13-.17-.15-.44l0-1.32,0-1.2a7.86,7.86,0,0,1,.16-1.89,1.46,1.46,0,0,1,1-.92,29.68,29.68,0,0,1,3.63-.94,23.48,23.48,0,0,1,4-.76,3.32,3.32,0,0,1,1.52.49,17.05,17.05,0,0,0,3.17,1.41c.51.16.77.3.79.44s-.06.14-.18.23c-1.09.84-1.91,1.44-2.46,1.79a9.93,9.93,0,0,0-1.14.85,5.34,5.34,0,0,0-1,1.2q-.7,1.14-5.24,11.37a72.1,72.1,0,0,0-3.31,7.65c0,.21.28.33.83.35a9.65,9.65,0,0,1,2.48.58c.29.1.44.23.44.38s-.87,1.23-2.61,2.88A5.59,5.59,0,0,1,120,298s-.09-.06-.15-.18a.57.57,0,0,0-.52-.29c-.32,0-.5.1-.56.29-.12.37-.25.56-.41.56s-.19-.09-.32-.26a.89.89,0,0,0-.62-.36q-4.07.71-5,1.79C111.9,300.07,111.54,300.33,111.31,300.35Z" style="fill:#3c474c"/><path d="M131.11,301.47l-.06,0c-.66-.8-1.22-1.43-1.67-1.88a9.93,9.93,0,0,1-1-1.2,2.38,2.38,0,0,1-.41-1.32q0-1.87,2.37-7.73V289c-.51.14-1,.28-1.37.41a15.51,15.51,0,0,1-2.85.74c-.37,0-.56-.15-.58-.44a8.32,8.32,0,0,1,.11-1.18,13.29,13.29,0,0,0,.27-2.75q0-.68,1-1.2a39.18,39.18,0,0,1,5.89-1.88q.65-.32,3.2-6.09a0,0,0,0,1,0,0v-.06h0v-.06h0v-.05l0,0v-.06h0v-.06h0v-.06h0v-.06h0l0-.06h0v-.05h0V276h0l.2-.44c-.68,0-1,.24-1.08.73a.88.88,0,0,1-.09.26c0,.08-.2.13-.5.15a1.36,1.36,0,0,1-.79-.23c-2.56-2.33-3.84-3.73-3.86-4.19s1.29-.86,3.86-1.34a45.5,45.5,0,0,1,5.25-.77c.13,0,.27-.1.41-.3a1.13,1.13,0,0,1,.76-.61c1.07-.22,2-.42,2.72-.62a9.9,9.9,0,0,1,1.94-.41c.35,0,.54.11.55.33a2.12,2.12,0,0,1-.17.67.69.69,0,0,0-.06.26,54.72,54.72,0,0,1,5.65-.32c2.52,0,3.8.32,3.84,1a2.79,2.79,0,0,1-.26,1,10.08,10.08,0,0,0-.5,1.59c-.16.64-.27,1.14-.34,1.5s-.13.64-.19.84a1.08,1.08,0,0,1-.32.5.38.38,0,0,1-.23.08c-.28,0-.63-.24-1.06-.73a2.18,2.18,0,0,0-1-.79q-1.5-.06-2.67-.06c-2.87,0-4.59.24-5.16.71a3.39,3.39,0,0,0-1,1.72,12.93,12.93,0,0,1-.59,1.43,6.83,6.83,0,0,1-.58,1.06l-.35.27q-.09,0-.15-.12a.33.33,0,0,0-.18-.17l-.06,0a9.27,9.27,0,0,0-.52,1,10.09,10.09,0,0,0-.62,1.46s.06,0,.18,0a5.77,5.77,0,0,1,1.17-.17q3,0,6.33,3.46a1.7,1.7,0,0,1,.44.87c0,.22-.14.38-.41.47q-4.55,1.38-4.9,1.41l-.17-.12.06-.47c0-.39-.3-.58-.88-.58s-.88,0-1.23,0-.72,0-1,0a2.71,2.71,0,0,0-1.73.63,6.4,6.4,0,0,0-1.4,2.46,55,55,0,0,0-1.67,5.7c0,.09,0,.14.1.14s.1,0,.1.12a12.38,12.38,0,0,1-1.27,3.34C131.89,300.57,131.35,301.47,131.11,301.47Z" style="fill:#3c474c"/><path d="M152,299.24a.69.69,0,0,1-.26-.06,23.79,23.79,0,0,0-3.61-1.85c-.09,0-.14-.13-.14-.35,0-.86.62-3,1.87-6.56s2.5-6.63,3.74-9.35,2.28-4.8,3.12-6.26a2,2,0,0,0,.12-.33c-.51,0-2.17.32-5,.88l-1.73.29a.92.92,0,0,1-.53-.17,26.22,26.22,0,0,1-2.43-2.49,7.78,7.78,0,0,1-1.14-1.32c0-.12.18-.21.55-.29a12.31,12.31,0,0,0,1.67-.56q3.22-1.32,13.77-2.93a54.71,54.71,0,0,1,7.65-.82c1,0,1.55.13,1.67.38-.08.67-.22,1.67-.41,3-.33,2.11-.81,3.18-1.44,3.22a.92.92,0,0,1-.67-.41.86.86,0,0,0-.7-.26,14.7,14.7,0,0,0-1.59.12c-.17,0-.8.11-1.89.23a6,6,0,0,0-1.75.31.49.49,0,0,0-.14.36,4.16,4.16,0,0,1-.52,1.35,95.87,95.87,0,0,0-8.82,20.8c-.31,1-.57,1.75-.76,2.27S152.21,299.24,152,299.24Z" style="fill:#3c474c"/><path d="M165.42,300.85a29.13,29.13,0,0,1-3.4-.73,8.15,8.15,0,0,1-1.64-.4.71.71,0,0,1-.44-.72c0-.68.68-2.09,2.05-4.21q1.44-2.24,8.18-12.19a55.55,55.55,0,0,0-2.44-5.91,44,44,0,0,0-3.51-6.87l0-.05c0-.34,1-1.21,2.9-2.64a6.07,6.07,0,0,1,1.49-.94q.51,0,1.2,1.14a56.83,56.83,0,0,1,2.73,6.13A18.79,18.79,0,0,0,174,276.8l1-1.38a36.94,36.94,0,0,1,6.47-7.59l1.41-1.05a5.37,5.37,0,0,1,1.87-1.26c.16,0,.26.24.3.73a20.21,20.21,0,0,0,.79,3.08,3.38,3.38,0,0,1,.23.9,1.08,1.08,0,0,1-.14.5,7.65,7.65,0,0,0-.41.88,1,1,0,0,1,.07-.2l.09-.25a.77.77,0,0,0,0-.25q0-.12-.09-.12-.49,0-3.92,4.81-4.76,6.58-14.8,22.2a.58.58,0,0,0-.09.3.81.81,0,0,0,.15.45,1,1,0,0,1,.15.54q0,.62-1.14,1.56A.84.84,0,0,1,165.42,300.85Z" style="fill:#3c474c"/><path d="M171.86,302.93c-.29,0-.43-.07-.43-.2a7,7,0,0,1,.7-2l1.08-2.75a3.65,3.65,0,0,1,.47-.81.88.88,0,0,1,.65-.42.34.34,0,0,1,.24.13.74.74,0,0,0,.52.13,11.27,11.27,0,0,0,4.32-1.67,60.22,60.22,0,0,0,6.39-4.06,47.27,47.27,0,0,0,5.72-4.76.31.31,0,0,0,.12-.23c0-.31-.46-.58-1.38-.79a38.21,38.21,0,0,0-4.13-.12,23.1,23.1,0,0,1-5.77-.48c-1.05-.32-1.58-.91-1.58-1.75a11.87,11.87,0,0,1,1.23-3.83l.82-2.05a16.06,16.06,0,0,1,3.68-4.87,43.54,43.54,0,0,1,5.67-4.69c2.5-1.73,4.17-2.6,5-2.6a.84.84,0,0,1,.6.22,6,6,0,0,1,.58.57,8,8,0,0,0,1.55,1.55c1,.76,1.49,1.26,1.49,1.5a.89.89,0,0,1-.11.38,4,4,0,0,1-2.08,1.74,15.44,15.44,0,0,1-2.66.75,5.48,5.48,0,0,0-1.89.61,47.44,47.44,0,0,0-5.4,4.78c-1.34,1.42-2,2.3-2,2.63a.13.13,0,0,0,.15.15c3.1,0,5.1,0,6,.06a4.49,4.49,0,0,1,1.89.38,4.57,4.57,0,0,1,1.18,1.05,26.13,26.13,0,0,0,2.55,2.41,2.44,2.44,0,0,1,.94,1.9q0,2.9-6.15,7.62a52.39,52.39,0,0,1-12.19,7.32Q174,302.93,171.86,302.93Z" style="fill:#3c474c"/><path d="M208.34,303.19c-.16,0-.25,0-.28-.07a.7.7,0,0,1,0-.31,23.8,23.8,0,0,1,.26-3.22q1.2-9.16,2.69-13.07v-.11c-.11,0-.26-.11-.43-.33a1.88,1.88,0,0,0-1.53-.49,11.69,11.69,0,0,0-4.48,1.05,2.58,2.58,0,0,0-1,.56l-.26.58a44.32,44.32,0,0,0-1.61,4.63l0,0c.1,0,.15.16.17.41a20.32,20.32,0,0,1-.7,4.34c-.29,1.25-.58,1.88-.85,1.9a1.45,1.45,0,0,1-.7-.38A23,23,0,0,0,197,297.1a5.42,5.42,0,0,1-1-.51,1.14,1.14,0,0,1-.22-.78,21,21,0,0,1,1.17-5.1,2.07,2.07,0,0,0,.15-.58c-.57.08-1.09.16-1.57.26a5.92,5.92,0,0,1-1.16.15c-.29,0-.45-.07-.46-.21l.64-2.22a6.37,6.37,0,0,1,1.26-3,7.9,7.9,0,0,1,3.43-1.54,26.19,26.19,0,0,0,2.25-4.21q3.6-7.92,5.16-9,3.78-2.4,4.6-2.43c.19,0,.3.13.32.38q-.53,3.57-.91,5.42c-.47,2.09-.91,3.15-1.32,3.17a.61.61,0,0,1-.35-.2.58.58,0,0,0-.32-.19,9.65,9.65,0,0,0-1.24,2.19,13.38,13.38,0,0,0-1.1,2.44,4.29,4.29,0,0,0,1.05-.2,12.35,12.35,0,0,1,3.4-.65,1.78,1.78,0,0,1,1.7.74c.08.15.15.23.23.23s.34-.48.74-1.43q.72-2,3.95-8.85c1.33-2.87,2.42-5.27,3.28-7.18.22-.47.37-.7.47-.7a23.08,23.08,0,0,1,2.08,1.46,21.73,21.73,0,0,1,1.85,1.33,1.49,1.49,0,0,1,.58,1,3.76,3.76,0,0,1-.64,1.81q-11.58,23.18-11.57,30.85a5.38,5.38,0,0,0,.2,1.88.84.84,0,0,1,.06.26c0,.1-.41.25-1.23.47A32.6,32.6,0,0,1,208.34,303.19Z" style="fill:#3c474c"/><path d="M233.89,300.56c-.2,0-.35-.25-.44-.74a40.37,40.37,0,0,1-.94-7.06c0-.64.08-1.43.17-2.37q.06-.83.06-1.29a.67.67,0,0,1-.32.12.51.51,0,0,1-.32-.26,1.43,1.43,0,0,0-1-.56c-.23,0-.51,0-.82,0a37.33,37.33,0,0,0-4.31.35.52.52,0,0,0-.38.19c-.07.11-.34.72-.79,1.83a.48.48,0,0,0-.06.21c0,.15.12.27.36.33s.35.16.35.25-.36.54-1.09,1.09c-.25.19-.59.48-1,.85-1.37,1.25-2.25,1.87-2.64,1.87a.23.23,0,0,1-.23-.17,15,15,0,0,1-.78-3.72q0-1.38-.45-1.41c-.28,0-.41-.06-.41-.12v-.38c0-.58,0-1.08,0-1.49a13.24,13.24,0,0,0-.14-2,3.45,3.45,0,0,1-.06-.58.58.58,0,0,1,.29-.56l2.32-.47q9.28-16.61,14.94-19.65a1.09,1.09,0,0,1,.58-.18,7.05,7.05,0,0,1,2.26,1l2,1.08a2.16,2.16,0,0,1,1.29,2.17,18.45,18.45,0,0,1-1,4.83,113.59,113.59,0,0,0-3.9,19.95l0,.85a10.79,10.79,0,0,0,.18,1.91,5.73,5.73,0,0,1,0,.67.78.78,0,0,1-.26.67,17.24,17.24,0,0,0-2.52,2.05C234.43,300.31,234.1,300.56,233.89,300.56Zm-.77-16.38c.18,0,.33-.21.46-.64s.32-1.26.6-2.49q.49-2.58,2-8.56a.23.23,0,0,0,0-.13.13.13,0,0,1,0-.07,67.23,67.23,0,0,0-7.82,11.07l1.67-.09a4.67,4.67,0,0,1,2.61.65A1.09,1.09,0,0,0,233.12,284.18Z" style="fill:#3c474c"/><path d="M241.59,301.17c-.2,0-.58-.77-1.14-2.33a11.5,11.5,0,0,1-.85-3.15q2-5.54,2.34-6.35a2.78,2.78,0,0,0,.29-.91.69.69,0,0,0-.29-.41q-1.14-.94-1.14-1.35a.82.82,0,0,1,.32-.56,6.82,6.82,0,0,1,2.29-1.52.66.66,0,0,0,.48-.37c.11-.2.42-.82.92-1.86q2.37-4.83,2.84-5.56a.66.66,0,0,0,.15-.35,13.57,13.57,0,0,0-2.11-2.08c-.1-.08-.33-.32-.7-.71a.22.22,0,0,1-.09-.2c0-.45.86-1,2.56-1.72a43.34,43.34,0,0,1,6.2-1.89,36.49,36.49,0,0,1,8-1.08c2.6,0,4,.56,4.1,1.67,0,.68.06,1.32.06,1.9a14.24,14.24,0,0,1-.28,3,5.63,5.63,0,0,1-1.57,2.71,19.58,19.58,0,0,1-3.83,3c-1.7,1.07-4.08,2.47-7.12,4.21a3.84,3.84,0,0,1-.59.32,2.91,2.91,0,0,0-.67.47l4,.11c1.92,0,3.52.09,4.81.21a6.9,6.9,0,0,1,3,.81,2.49,2.49,0,0,1,1,2.32,12.77,12.77,0,0,1-.73,3.7.86.86,0,0,1-.28.36.75.75,0,0,1-.51.19,1,1,0,0,1-.68-.41,2.35,2.35,0,0,0-.58-.47,8.9,8.9,0,0,0-3.31-.52c-3.77-.26-6.52-.46-8.24-.62-1.36-.14-2.36-.2-3-.2s-.85.08-1,.26-.59,1.44-1.41,3.78a6.13,6.13,0,0,1-.73,1.84A15.86,15.86,0,0,1,241.59,301.17ZM251.35,280l2.11-1.32a41.6,41.6,0,0,0,5.8-3.84.2.2,0,0,0-.15-.05,30.12,30.12,0,0,0-4.92.7,1.3,1.3,0,0,0-.76.61,18.23,18.23,0,0,0-2.11,3.78Z" style="fill:#3c474c"/><path d="M264.85,299.24a16.22,16.22,0,0,1-2.34-2.17c-.82-.82-1.23-1.33-1.23-1.52s.31-1.1.94-2.93c0-.2-.5-.35-1.5-.47a.83.83,0,0,0-.32.06.87.87,0,0,1-.32.06q-.85,0-1.53-3.75a.47.47,0,0,0-.32-.34c-.17-.07-.26-.15-.26-.25s0,0,0,0a.31.31,0,0,0,.1-.08,1.47,1.47,0,0,0,.15-.17.49.49,0,0,0,.09-.3l0-.2a1.71,1.71,0,0,1-.09-.47c0-.18.06-.26.18-.26a1.11,1.11,0,0,1,.44.1,1.09,1.09,0,0,0,.46.1.32.32,0,0,0,.24-.09,24.15,24.15,0,0,1,5.8-4.36,6.13,6.13,0,0,0,2-1.52l2.75-4.69q5.75-10.08,6.45-10.17a13.94,13.94,0,0,0,2.64-1.11,2.57,2.57,0,0,1,1.14-.47c.21,0,.32.2.32.59a20.28,20.28,0,0,1-.5,3.42c-.09.77-1.11,2.8-3,6.1-.24.37-.46.75-.68,1.14.16,0,1.47-.7,3.93-2.05q12.73-7.12,13.48-7.12a.11.11,0,0,1,.11.06c.3,1.09.54,2,.73,2.64a7.74,7.74,0,0,1,.47,2,.62.62,0,0,1-.2.52,3,3,0,0,1-.6.38c-.27.14-.6.34-1,.59l-12.13,6.56q-9.81,5.16-10.72,6.21a23.21,23.21,0,0,0-1.65,3.14c0,.12.15.19.44.23q5.22,1.5,6.89,2.17,1.26.52,5.39,2.58,1.2.62,1.2,1.08a.67.67,0,0,1-.28.53c-.18.16-.49.39-.92.7a12.26,12.26,0,0,0-.94.82c-1.05,1.18-1.8,1.76-2.25,1.76-.24,0-.38-.28-.44-.85a2,2,0,0,0-.25-.77,2.06,2.06,0,0,0-.92-.63c-.86-.32-4.11-1.2-9.73-2.67-.33.16-.68.81-1,1.95a20.8,20.8,0,0,0-.66,2.44C265.24,298.74,265.07,299.24,264.85,299.24Z" style="fill:#3c474c"/><path d="M277.42,302.93c-.29,0-.44-.07-.44-.2a7.39,7.39,0,0,1,.7-2l1.09-2.75a3.3,3.3,0,0,1,.47-.81.86.86,0,0,1,.64-.42.36.36,0,0,1,.25.13.73.73,0,0,0,.51.13,11.27,11.27,0,0,0,4.32-1.67,59.22,59.22,0,0,0,6.39-4.06,46.66,46.66,0,0,0,5.73-4.76.31.31,0,0,0,.12-.23c0-.31-.46-.58-1.38-.79a38.35,38.35,0,0,0-4.13-.12,23,23,0,0,1-5.77-.48c-1.06-.32-1.59-.91-1.59-1.75a11.87,11.87,0,0,1,1.23-3.83l.83-2.05a16.17,16.17,0,0,1,3.67-4.87,44.91,44.91,0,0,1,5.67-4.69q3.75-2.6,5-2.6a.87.87,0,0,1,.6.22,5.07,5.07,0,0,1,.57.57,8,8,0,0,0,1.55,1.55q1.5,1.14,1.5,1.5a.79.79,0,0,1-.12.38,4,4,0,0,1-2.08,1.74,15.34,15.34,0,0,1-2.65.75,5.33,5.33,0,0,0-1.89.61,45.76,45.76,0,0,0-5.4,4.78c-1.34,1.42-2,2.3-2,2.63,0,.1.05.15.14.15q4.66,0,6,.06a4.42,4.42,0,0,1,1.89.38,4.59,4.59,0,0,1,1.19,1.05,26.13,26.13,0,0,0,2.55,2.41,2.46,2.46,0,0,1,.93,1.9q0,2.9-6.15,7.62a52,52,0,0,1-12.19,7.32C281.43,302.21,278.85,302.93,277.42,302.93Z" style="fill:#3c474c"/></svg>